<?xml version="1.0" encoding="utf-8" ?>
<svg xmlns="http://www.w3.org/2000/svg" xmlns:xlink="http://www.w3.org/1999/xlink" width="800" height="350">
	<rect fill="#181818" width="800" height="350"/>
	<clipPath id="cl_3">
		<rect x="65.699219" y="69.375" width="704.30078" height="215.21875"/>
	</clipPath>
	<g clip-path="url(#cl_3)">
		<rect fill="#1F1F1F" x="65.699219" y="69.375" width="704.30078" height="215.21875"/>
	</g>
	<path fill="none" stroke="#404040" stroke-width="1" stroke-miterlimit="4" d="M65.6992 284.594L65.6992 69.375M100.462 284.594L100.462 69.375M135.225 284.594L135.225 69.375M169.989 284.594L169.989 69.375M204.752 284.594L204.752 69.375M239.515 284.594L239.515 69.375M274.278 284.594L274.278 69.375M309.041 284.594L309.041 69.375M343.804 284.594L343.804 69.375M378.567 284.594L378.567 69.375M413.33 284.594L413.33 69.375M448.094 284.594L448.094 69.375M482.857 284.594L482.857 69.375M517.62 284.594L517.62 69.375M552.383 284.594L552.383 69.375M587.146 284.594L587.146 69.375M621.909 284.594L621.909 69.375M656.672 284.594L656.672 69.375M691.435 284.594L691.435 69.375M726.198 284.594L726.198 69.375M760.962 284.594L760.962 69.375"/>
	<path fill="none" stroke="#404040" stroke-width="1" stroke-miterlimit="4" d="M65.6992 268.038L770 268.038M65.6992 234.928L770 234.928M65.6992 201.817L770 201.817M65.6992 168.707L770 168.707M65.6992 135.596L770 135.596M65.6992 102.486L770 102.486"/>
	<clipPath id="cl_4">
		<rect x="65.699219" y="69.375" width="704.30078" height="215.21875"/>
	</clipPath>
	<g clip-path="url(#cl_4)">
		<path fill="none" stroke="#1F77B4" stroke-width="1" stroke-miterlimit="4" d="M66.3945 201.817L67.0897 201.817L67.785 464.799L69.1755 548.611L70.5661 362.046L72.6518 346.439L79.6045 299.821L86.5571 210.684L100.462 99.7326L114.368 299.946L135.225 153.771L152.607 252.602L169.989 216.378L187.37 217.297L204.752 222.216L222.133 210.2L239.515 208.281L274.278 212.863L309.041 207.393L343.804 209.686L378.567 208.698L413.33 225.15L448.094 185.457L482.857 215.646L517.62 172.09L552.383 223.165L587.146 221.413L604.528 228.568L621.909 221.345L639.291 226.675L656.672 234.193L674.054 230.3L691.435 233.825L708.817 227.925L726.198 220.543L743.58 218.344L760.962 224.422"/>
	</g>
	<clipPath id="cl_5">
		<rect x="65.699219" y="69.375" width="704.30078" height="215.21875"/>
	</clipPath>
	<g clip-path="url(#cl_5)">
		<path fill="none" stroke="blue" stroke-width="3" stroke-miterlimit="4" d="M656.672 284.594L656.672 69.375"/>
	</g>
	<clipPath id="cl_6">
		<rect x="65.699219" y="69.375" width="704.30078" height="215.21875"/>
	</clipPath>
	<g clip-path="url(#cl_6)">
		<path fill="none" stroke="red" stroke-width="3" stroke-miterlimit="4" d="M760.962 284.594L760.962 69.375"/>
	</g>
	<text fill="#D7D7D7" transform="translate(417.85 346)" font-size="16" font-weight="600" font-family="Khmer Mondulkiri" x="-43.792969, -30.941406, -26.042969, -17.472656, -9.2304688, -4.0507812, 5.3242188, 11.339844, 20.191406, 29.746094, 37.777344, " y="-14.5625, ">
			Nivel [hPa]
	</text>
	<path fill="none" stroke="#D7D7D7" stroke-width="1" stroke-miterlimit="4" d="M65.6992 284.594L65.6992 288.594"/>
	<text fill="#D7D7D7" transform="translate(65.6992 290.594)" font-size="12" font-family="Khmer Mondulkiri" x="-3.1640625, " y="11.039062, ">
			0
	</text>
	<path fill="none" stroke="#D7D7D7" stroke-width="1" stroke-miterlimit="4" d="M100.462 284.594L100.462 288.594"/>
	<text fill="#D7D7D7" transform="translate(100.462 290.594)" font-size="12" font-family="Khmer Mondulkiri" x="-6.328125, 0, " y="11.039062, ">
			50
	</text>
	<path fill="none" stroke="#D7D7D7" stroke-width="1" stroke-miterlimit="4" d="M135.225 284.594L135.225 288.594"/>
	<text fill="#D7D7D7" transform="translate(135.225 290.594)" font-size="12" font-family="Khmer Mondulkiri" x="-9.4921875, -3.1640625, 3.1640625, " y="11.039062, ">
			100
	</text>
	<path fill="none" stroke="#D7D7D7" stroke-width="1" stroke-miterlimit="4" d="M169.989 284.594L169.989 288.594"/>
	<text fill="#D7D7D7" transform="translate(169.989 290.594)" font-size="12" font-family="Khmer Mondulkiri" x="-9.4921875, -3.1640625, 3.1640625, " y="11.039062, ">
			150
	</text>
	<path fill="none" stroke="#D7D7D7" stroke-width="1" stroke-miterlimit="4" d="M204.752 284.594L204.752 288.594"/>
	<text fill="#D7D7D7" transform="translate(204.752 290.594)" font-size="12" font-family="Khmer Mondulkiri" x="-9.4921875, -3.1640625, 3.1640625, " y="11.039062, ">
			200
	</text>
	<path fill="none" stroke="#D7D7D7" stroke-width="1" stroke-miterlimit="4" d="M239.515 284.594L239.515 288.594"/>
	<text fill="#D7D7D7" transform="translate(239.515 290.594)" font-size="12" font-family="Khmer Mondulkiri" x="-9.4921875, -3.1640625, 3.1640625, " y="11.039062, ">
			250
	</text>
	<path fill="none" stroke="#D7D7D7" stroke-width="1" stroke-miterlimit="4" d="M274.278 284.594L274.278 288.594"/>
	<text fill="#D7D7D7" transform="translate(274.278 290.594)" font-size="12" font-family="Khmer Mondulkiri" x="-9.4921875, -3.1640625, 3.1640625, " y="11.039062, ">
			300
	</text>
	<path fill="none" stroke="#D7D7D7" stroke-width="1" stroke-miterlimit="4" d="M309.041 284.594L309.041 288.594"/>
	<text fill="#D7D7D7" transform="translate(309.041 290.594)" font-size="12" font-family="Khmer Mondulkiri" x="-9.4921875, -3.1640625, 3.1640625, " y="11.039062, ">
			350
	</text>
	<path fill="none" stroke="#D7D7D7" stroke-width="1" stroke-miterlimit="4" d="M343.804 284.594L343.804 288.594"/>
	<text fill="#D7D7D7" transform="translate(343.804 290.594)" font-size="12" font-family="Khmer Mondulkiri" x="-9.4921875, -3.1640625, 3.1640625, " y="11.039062, ">
			400
	</text>
	<path fill="none" stroke="#D7D7D7" stroke-width="1" stroke-miterlimit="4" d="M378.567 284.594L378.567 288.594"/>
	<text fill="#D7D7D7" transform="translate(378.567 290.594)" font-size="12" font-family="Khmer Mondulkiri" x="-9.4921875, -3.1640625, 3.1640625, " y="11.039062, ">
			450
	</text>
	<path fill="none" stroke="#D7D7D7" stroke-width="1" stroke-miterlimit="4" d="M413.33 284.594L413.33 288.594"/>
	<text fill="#D7D7D7" transform="translate(413.33 290.594)" font-size="12" font-family="Khmer Mondulkiri" x="-9.4921875, -3.1640625, 3.1640625, " y="11.039062, ">
			500
	</text>
	<path fill="none" stroke="#D7D7D7" stroke-width="1" stroke-miterlimit="4" d="M448.094 284.594L448.094 288.594"/>
	<text fill="#D7D7D7" transform="translate(448.094 290.594)" font-size="12" font-family="Khmer Mondulkiri" x="-9.4921875, -3.1640625, 3.1640625, " y="11.039062, ">
			550
	</text>
	<path fill="none" stroke="#D7D7D7" stroke-width="1" stroke-miterlimit="4" d="M482.857 284.594L482.857 288.594"/>
	<text fill="#D7D7D7" transform="translate(482.857 290.594)" font-size="12" font-family="Khmer Mondulkiri" x="-9.4921875, -3.1640625, 3.1640625, " y="11.039062, ">
			600
	</text>
	<path fill="none" stroke="#D7D7D7" stroke-width="1" stroke-miterlimit="4" d="M517.62 284.594L517.62 288.594"/>
	<text fill="#D7D7D7" transform="translate(517.62 290.594)" font-size="12" font-family="Khmer Mondulkiri" x="-9.4921875, -3.1640625, 3.1640625, " y="11.039062, ">
			650
	</text>
	<path fill="none" stroke="#D7D7D7" stroke-width="1" stroke-miterlimit="4" d="M552.383 284.594L552.383 288.594"/>
	<text fill="#D7D7D7" transform="translate(552.383 290.594)" font-size="12" font-family="Khmer Mondulkiri" x="-9.4921875, -3.1640625, 3.1640625, " y="11.039062, ">
			700
	</text>
	<path fill="none" stroke="#D7D7D7" stroke-width="1" stroke-miterlimit="4" d="M587.146 284.594L587.146 288.594"/>
	<text fill="#D7D7D7" transform="translate(587.146 290.594)" font-size="12" font-family="Khmer Mondulkiri" x="-9.4921875, -3.1640625, 3.1640625, " y="11.039062, ">
			750
	</text>
	<path fill="none" stroke="#D7D7D7" stroke-width="1" stroke-miterlimit="4" d="M621.909 284.594L621.909 288.594"/>
	<text fill="#D7D7D7" transform="translate(621.909 290.594)" font-size="12" font-family="Khmer Mondulkiri" x="-9.4921875, -3.1640625, 3.1640625, " y="11.039062, ">
			800
	</text>
	<path fill="none" stroke="#D7D7D7" stroke-width="1" stroke-miterlimit="4" d="M656.672 284.594L656.672 288.594"/>
	<text fill="#D7D7D7" transform="translate(656.672 290.594)" font-size="12" font-family="Khmer Mondulkiri" x="-9.4921875, -3.1640625, 3.1640625, " y="11.039062, ">
			850
	</text>
	<path fill="none" stroke="#D7D7D7" stroke-width="1" stroke-miterlimit="4" d="M691.435 284.594L691.435 288.594"/>
	<text fill="#D7D7D7" transform="translate(691.435 290.594)" font-size="12" font-family="Khmer Mondulkiri" x="-9.4921875, -3.1640625, 3.1640625, " y="11.039062, ">
			900
	</text>
	<path fill="none" stroke="#D7D7D7" stroke-width="1" stroke-miterlimit="4" d="M726.198 284.594L726.198 288.594"/>
	<text fill="#D7D7D7" transform="translate(726.198 290.594)" font-size="12" font-family="Khmer Mondulkiri" x="-9.4921875, -3.1640625, 3.1640625, " y="11.039062, ">
			950
	</text>
	<path fill="none" stroke="#D7D7D7" stroke-width="1" stroke-miterlimit="4" d="M760.962 284.594L760.962 288.594"/>
	<text fill="#D7D7D7" transform="translate(760.962 290.594)" font-size="12" font-family="Khmer Mondulkiri" x="-14.326172, -7.9980469, -4.6582031, 1.6699219, 7.9980469, " y="11.039062, ">
			1,000
	</text>
	<path fill="none" stroke="#D7D7D7" stroke-width="1" stroke-miterlimit="4" d="M72.6518 284.594L72.6518 286.594"/>
	<path fill="none" stroke="#D7D7D7" stroke-width="1" stroke-miterlimit="4" d="M79.6045 284.594L79.6045 286.594"/>
	<path fill="none" stroke="#D7D7D7" stroke-width="1" stroke-miterlimit="4" d="M86.5571 284.594L86.5571 286.594"/>
	<path fill="none" stroke="#D7D7D7" stroke-width="1" stroke-miterlimit="4" d="M93.5097 284.594L93.5097 286.594"/>
	<path fill="none" stroke="#D7D7D7" stroke-width="1" stroke-miterlimit="4" d="M107.415 284.594L107.415 286.594"/>
	<path fill="none" stroke="#D7D7D7" stroke-width="1" stroke-miterlimit="4" d="M114.368 284.594L114.368 286.594"/>
	<path fill="none" stroke="#D7D7D7" stroke-width="1" stroke-miterlimit="4" d="M121.32 284.594L121.32 286.594"/>
	<path fill="none" stroke="#D7D7D7" stroke-width="1" stroke-miterlimit="4" d="M128.273 284.594L128.273 286.594"/>
	<path fill="none" stroke="#D7D7D7" stroke-width="1" stroke-miterlimit="4" d="M142.178 284.594L142.178 286.594"/>
	<path fill="none" stroke="#D7D7D7" stroke-width="1" stroke-miterlimit="4" d="M149.131 284.594L149.131 286.594"/>
	<path fill="none" stroke="#D7D7D7" stroke-width="1" stroke-miterlimit="4" d="M156.083 284.594L156.083 286.594"/>
	<path fill="none" stroke="#D7D7D7" stroke-width="1" stroke-miterlimit="4" d="M163.036 284.594L163.036 286.594"/>
	<path fill="none" stroke="#D7D7D7" stroke-width="1" stroke-miterlimit="4" d="M176.941 284.594L176.941 286.594"/>
	<path fill="none" stroke="#D7D7D7" stroke-width="1" stroke-miterlimit="4" d="M183.894 284.594L183.894 286.594"/>
	<path fill="none" stroke="#D7D7D7" stroke-width="1" stroke-miterlimit="4" d="M190.846 284.594L190.846 286.594"/>
	<path fill="none" stroke="#D7D7D7" stroke-width="1" stroke-miterlimit="4" d="M197.799 284.594L197.799 286.594"/>
	<path fill="none" stroke="#D7D7D7" stroke-width="1" stroke-miterlimit="4" d="M211.704 284.594L211.704 286.594"/>
	<path fill="none" stroke="#D7D7D7" stroke-width="1" stroke-miterlimit="4" d="M218.657 284.594L218.657 286.594"/>
	<path fill="none" stroke="#D7D7D7" stroke-width="1" stroke-miterlimit="4" d="M225.61 284.594L225.61 286.594"/>
	<path fill="none" stroke="#D7D7D7" stroke-width="1" stroke-miterlimit="4" d="M232.562 284.594L232.562 286.594"/>
	<path fill="none" stroke="#D7D7D7" stroke-width="1" stroke-miterlimit="4" d="M246.467 284.594L246.467 286.594"/>
	<path fill="none" stroke="#D7D7D7" stroke-width="1" stroke-miterlimit="4" d="M253.42 284.594L253.42 286.594"/>
	<path fill="none" stroke="#D7D7D7" stroke-width="1" stroke-miterlimit="4" d="M260.373 284.594L260.373 286.594"/>
	<path fill="none" stroke="#D7D7D7" stroke-width="1" stroke-miterlimit="4" d="M267.325 284.594L267.325 286.594"/>
	<path fill="none" stroke="#D7D7D7" stroke-width="1" stroke-miterlimit="4" d="M281.231 284.594L281.231 286.594"/>
	<path fill="none" stroke="#D7D7D7" stroke-width="1" stroke-miterlimit="4" d="M288.183 284.594L288.183 286.594"/>
	<path fill="none" stroke="#D7D7D7" stroke-width="1" stroke-miterlimit="4" d="M295.136 284.594L295.136 286.594"/>
	<path fill="none" stroke="#D7D7D7" stroke-width="1" stroke-miterlimit="4" d="M302.088 284.594L302.088 286.594"/>
	<path fill="none" stroke="#D7D7D7" stroke-width="1" stroke-miterlimit="4" d="M315.994 284.594L315.994 286.594"/>
	<path fill="none" stroke="#D7D7D7" stroke-width="1" stroke-miterlimit="4" d="M322.946 284.594L322.946 286.594"/>
	<path fill="none" stroke="#D7D7D7" stroke-width="1" stroke-miterlimit="4" d="M329.899 284.594L329.899 286.594"/>
	<path fill="none" stroke="#D7D7D7" stroke-width="1" stroke-miterlimit="4" d="M336.852 284.594L336.852 286.594"/>
	<path fill="none" stroke="#D7D7D7" stroke-width="1" stroke-miterlimit="4" d="M350.757 284.594L350.757 286.594"/>
	<path fill="none" stroke="#D7D7D7" stroke-width="1" stroke-miterlimit="4" d="M357.709 284.594L357.709 286.594"/>
	<path fill="none" stroke="#D7D7D7" stroke-width="1" stroke-miterlimit="4" d="M364.662 284.594L364.662 286.594"/>
	<path fill="none" stroke="#D7D7D7" stroke-width="1" stroke-miterlimit="4" d="M371.615 284.594L371.615 286.594"/>
	<path fill="none" stroke="#D7D7D7" stroke-width="1" stroke-miterlimit="4" d="M385.52 284.594L385.52 286.594"/>
	<path fill="none" stroke="#D7D7D7" stroke-width="1" stroke-miterlimit="4" d="M392.473 284.594L392.473 286.594"/>
	<path fill="none" stroke="#D7D7D7" stroke-width="1" stroke-miterlimit="4" d="M399.425 284.594L399.425 286.594"/>
	<path fill="none" stroke="#D7D7D7" stroke-width="1" stroke-miterlimit="4" d="M406.378 284.594L406.378 286.594"/>
	<path fill="none" stroke="#D7D7D7" stroke-width="1" stroke-miterlimit="4" d="M420.283 284.594L420.283 286.594"/>
	<path fill="none" stroke="#D7D7D7" stroke-width="1" stroke-miterlimit="4" d="M427.236 284.594L427.236 286.594"/>
	<path fill="none" stroke="#D7D7D7" stroke-width="1" stroke-miterlimit="4" d="M434.188 284.594L434.188 286.594"/>
	<path fill="none" stroke="#D7D7D7" stroke-width="1" stroke-miterlimit="4" d="M441.141 284.594L441.141 286.594"/>
	<path fill="none" stroke="#D7D7D7" stroke-width="1" stroke-miterlimit="4" d="M455.046 284.594L455.046 286.594"/>
	<path fill="none" stroke="#D7D7D7" stroke-width="1" stroke-miterlimit="4" d="M461.999 284.594L461.999 286.594"/>
	<path fill="none" stroke="#D7D7D7" stroke-width="1" stroke-miterlimit="4" d="M468.951 284.594L468.951 286.594"/>
	<path fill="none" stroke="#D7D7D7" stroke-width="1" stroke-miterlimit="4" d="M475.904 284.594L475.904 286.594"/>
	<path fill="none" stroke="#D7D7D7" stroke-width="1" stroke-miterlimit="4" d="M489.809 284.594L489.809 286.594"/>
	<path fill="none" stroke="#D7D7D7" stroke-width="1" stroke-miterlimit="4" d="M496.762 284.594L496.762 286.594"/>
	<path fill="none" stroke="#D7D7D7" stroke-width="1" stroke-miterlimit="4" d="M503.715 284.594L503.715 286.594"/>
	<path fill="none" stroke="#D7D7D7" stroke-width="1" stroke-miterlimit="4" d="M510.667 284.594L510.667 286.594"/>
	<path fill="none" stroke="#D7D7D7" stroke-width="1" stroke-miterlimit="4" d="M524.572 284.594L524.572 286.594"/>
	<path fill="none" stroke="#D7D7D7" stroke-width="1" stroke-miterlimit="4" d="M531.525 284.594L531.525 286.594"/>
	<path fill="none" stroke="#D7D7D7" stroke-width="1" stroke-miterlimit="4" d="M538.478 284.594L538.478 286.594"/>
	<path fill="none" stroke="#D7D7D7" stroke-width="1" stroke-miterlimit="4" d="M545.43 284.594L545.43 286.594"/>
	<path fill="none" stroke="#D7D7D7" stroke-width="1" stroke-miterlimit="4" d="M559.336 284.594L559.336 286.594"/>
	<path fill="none" stroke="#D7D7D7" stroke-width="1" stroke-miterlimit="4" d="M566.288 284.594L566.288 286.594"/>
	<path fill="none" stroke="#D7D7D7" stroke-width="1" stroke-miterlimit="4" d="M573.241 284.594L573.241 286.594"/>
	<path fill="none" stroke="#D7D7D7" stroke-width="1" stroke-miterlimit="4" d="M580.193 284.594L580.193 286.594"/>
	<path fill="none" stroke="#D7D7D7" stroke-width="1" stroke-miterlimit="4" d="M594.099 284.594L594.099 286.594"/>
	<path fill="none" stroke="#D7D7D7" stroke-width="1" stroke-miterlimit="4" d="M601.051 284.594L601.051 286.594"/>
	<path fill="none" stroke="#D7D7D7" stroke-width="1" stroke-miterlimit="4" d="M608.004 284.594L608.004 286.594"/>
	<path fill="none" stroke="#D7D7D7" stroke-width="1" stroke-miterlimit="4" d="M614.956 284.594L614.956 286.594"/>
	<path fill="none" stroke="#D7D7D7" stroke-width="1" stroke-miterlimit="4" d="M628.862 284.594L628.862 286.594"/>
	<path fill="none" stroke="#D7D7D7" stroke-width="1" stroke-miterlimit="4" d="M635.814 284.594L635.814 286.594"/>
	<path fill="none" stroke="#D7D7D7" stroke-width="1" stroke-miterlimit="4" d="M642.767 284.594L642.767 286.594"/>
	<path fill="none" stroke="#D7D7D7" stroke-width="1" stroke-miterlimit="4" d="M649.72 284.594L649.72 286.594"/>
	<path fill="none" stroke="#D7D7D7" stroke-width="1" stroke-miterlimit="4" d="M663.625 284.594L663.625 286.594"/>
	<path fill="none" stroke="#D7D7D7" stroke-width="1" stroke-miterlimit="4" d="M670.577 284.594L670.577 286.594"/>
	<path fill="none" stroke="#D7D7D7" stroke-width="1" stroke-miterlimit="4" d="M677.53 284.594L677.53 286.594"/>
	<path fill="none" stroke="#D7D7D7" stroke-width="1" stroke-miterlimit="4" d="M684.483 284.594L684.483 286.594"/>
	<path fill="none" stroke="#D7D7D7" stroke-width="1" stroke-miterlimit="4" d="M698.388 284.594L698.388 286.594"/>
	<path fill="none" stroke="#D7D7D7" stroke-width="1" stroke-miterlimit="4" d="M705.341 284.594L705.341 286.594"/>
	<path fill="none" stroke="#D7D7D7" stroke-width="1" stroke-miterlimit="4" d="M712.293 284.594L712.293 286.594"/>
	<path fill="none" stroke="#D7D7D7" stroke-width="1" stroke-miterlimit="4" d="M719.246 284.594L719.246 286.594"/>
	<path fill="none" stroke="#D7D7D7" stroke-width="1" stroke-miterlimit="4" d="M733.151 284.594L733.151 286.594"/>
	<path fill="none" stroke="#D7D7D7" stroke-width="1" stroke-miterlimit="4" d="M740.104 284.594L740.104 286.594"/>
	<path fill="none" stroke="#D7D7D7" stroke-width="1" stroke-miterlimit="4" d="M747.056 284.594L747.056 286.594"/>
	<path fill="none" stroke="#D7D7D7" stroke-width="1" stroke-miterlimit="4" d="M754.009 284.594L754.009 286.594"/>
	<path fill="none" stroke="#D7D7D7" stroke-width="1" stroke-miterlimit="4" d="M767.914 284.594L767.914 286.594"/>
	<path fill="none" stroke="#D7D7D7" stroke-width="1" stroke-miterlimit="4" d="M65.6992 284.594L770 284.594"/>
	<path fill="none" stroke="#D7D7D7" stroke-width="1" stroke-miterlimit="4" d="M65.6992 69.475L770 69.475"/>
	<text fill="#D7D7D7" transform="matrix(0 -1 1 0 4 176.984)" font-size="16" font-weight="600" font-family="Khmer Mondulkiri" x="-53.367188, -44.398438, -34.34375, -24.8125, -15.84375, -6.859375, 2.515625, 8.53125, 17.5, 25.742188, 34.304688, 47.351562, " y="14.8125, ">
			dT/dp [degK]
	</text>
	<path fill="none" stroke="#D7D7D7" stroke-width="1" stroke-miterlimit="4" d="M65.6992 268.038L61.6992 268.038"/>
	<text fill="#D7D7D7" transform="translate(56.6992 268.038)" font-size="12" font-family="Khmer Mondulkiri" x="-22.324219, -16.171875, -9.84375, -6.328125, " y="0.0234375, ">
			-0.4
	</text>
	<path fill="none" stroke="#D7D7D7" stroke-width="1" stroke-miterlimit="4" d="M65.6992 234.928L61.6992 234.928"/>
	<text fill="#D7D7D7" transform="translate(56.6992 234.928)" font-size="12" font-family="Khmer Mondulkiri" x="-22.324219, -16.171875, -9.84375, -6.328125, " y="0.0234375, ">
			-0.2
	</text>
	<path fill="none" stroke="#D7D7D7" stroke-width="1" stroke-miterlimit="4" d="M65.6992 201.817L61.6992 201.817"/>
	<text fill="#D7D7D7" transform="translate(56.6992 201.817)" font-size="12" font-family="Khmer Mondulkiri" x="-6.328125, " y="0.0234375, ">
			0
	</text>
	<path fill="none" stroke="#D7D7D7" stroke-width="1" stroke-miterlimit="4" d="M65.6992 168.707L61.6992 168.707"/>
	<text fill="#D7D7D7" transform="translate(56.6992 168.707)" font-size="12" font-family="Khmer Mondulkiri" x="-16.171875, -9.84375, -6.328125, " y="0.0234375, ">
			0.2
	</text>
	<path fill="none" stroke="#D7D7D7" stroke-width="1" stroke-miterlimit="4" d="M65.6992 135.596L61.6992 135.596"/>
	<text fill="#D7D7D7" transform="translate(56.6992 135.596)" font-size="12" font-family="Khmer Mondulkiri" x="-16.171875, -9.84375, -6.328125, " y="0.0234375, ">
			0.4
	</text>
	<path fill="none" stroke="#D7D7D7" stroke-width="1" stroke-miterlimit="4" d="M65.6992 102.486L61.6992 102.486"/>
	<text fill="#D7D7D7" transform="translate(56.6992 102.486)" font-size="12" font-family="Khmer Mondulkiri" x="-16.171875, -9.84375, -6.328125, " y="0.0234375, ">
			0.6
	</text>
	<path fill="none" stroke="#D7D7D7" stroke-width="1" stroke-miterlimit="4" d="M65.6992 281.283L63.6992 281.283"/>
	<path fill="none" stroke="#D7D7D7" stroke-width="1" stroke-miterlimit="4" d="M65.6992 274.661L63.6992 274.661"/>
	<path fill="none" stroke="#D7D7D7" stroke-width="1" stroke-miterlimit="4" d="M65.6992 261.416L63.6992 261.416"/>
	<path fill="none" stroke="#D7D7D7" stroke-width="1" stroke-miterlimit="4" d="M65.6992 254.794L63.6992 254.794"/>
	<path fill="none" stroke="#D7D7D7" stroke-width="1" stroke-miterlimit="4" d="M65.6992 248.172L63.6992 248.172"/>
	<path fill="none" stroke="#D7D7D7" stroke-width="1" stroke-miterlimit="4" d="M65.6992 241.55L63.6992 241.55"/>
	<path fill="none" stroke="#D7D7D7" stroke-width="1" stroke-miterlimit="4" d="M65.6992 228.306L63.6992 228.306"/>
	<path fill="none" stroke="#D7D7D7" stroke-width="1" stroke-miterlimit="4" d="M65.6992 221.684L63.6992 221.684"/>
	<path fill="none" stroke="#D7D7D7" stroke-width="1" stroke-miterlimit="4" d="M65.6992 215.062L63.6992 215.062"/>
	<path fill="none" stroke="#D7D7D7" stroke-width="1" stroke-miterlimit="4" d="M65.6992 208.439L63.6992 208.439"/>
	<path fill="none" stroke="#D7D7D7" stroke-width="1" stroke-miterlimit="4" d="M65.6992 195.195L63.6992 195.195"/>
	<path fill="none" stroke="#D7D7D7" stroke-width="1" stroke-miterlimit="4" d="M65.6992 188.573L63.6992 188.573"/>
	<path fill="none" stroke="#D7D7D7" stroke-width="1" stroke-miterlimit="4" d="M65.6992 181.951L63.6992 181.951"/>
	<path fill="none" stroke="#D7D7D7" stroke-width="1" stroke-miterlimit="4" d="M65.6992 175.329L63.6992 175.329"/>
	<path fill="none" stroke="#D7D7D7" stroke-width="1" stroke-miterlimit="4" d="M65.6992 162.085L63.6992 162.085"/>
	<path fill="none" stroke="#D7D7D7" stroke-width="1" stroke-miterlimit="4" d="M65.6992 155.462L63.6992 155.462"/>
	<path fill="none" stroke="#D7D7D7" stroke-width="1" stroke-miterlimit="4" d="M65.6992 148.84L63.6992 148.84"/>
	<path fill="none" stroke="#D7D7D7" stroke-width="1" stroke-miterlimit="4" d="M65.6992 142.218L63.6992 142.218"/>
	<path fill="none" stroke="#D7D7D7" stroke-width="1" stroke-miterlimit="4" d="M65.6992 128.974L63.6992 128.974"/>
	<path fill="none" stroke="#D7D7D7" stroke-width="1" stroke-miterlimit="4" d="M65.6992 122.352L63.6992 122.352"/>
	<path fill="none" stroke="#D7D7D7" stroke-width="1" stroke-miterlimit="4" d="M65.6992 115.73L63.6992 115.73"/>
	<path fill="none" stroke="#D7D7D7" stroke-width="1" stroke-miterlimit="4" d="M65.6992 109.108L63.6992 109.108"/>
	<path fill="none" stroke="#D7D7D7" stroke-width="1" stroke-miterlimit="4" d="M65.6992 95.8635L63.6992 95.8635"/>
	<path fill="none" stroke="#D7D7D7" stroke-width="1" stroke-miterlimit="4" d="M65.6992 89.2413L63.6992 89.2413"/>
	<path fill="none" stroke="#D7D7D7" stroke-width="1" stroke-miterlimit="4" d="M65.6992 82.6192L63.6992 82.6192"/>
	<path fill="none" stroke="#D7D7D7" stroke-width="1" stroke-miterlimit="4" d="M65.6992 75.9971L63.6992 75.9971"/>
	<path fill="none" stroke="#D7D7D7" stroke-width="1" stroke-miterlimit="4" d="M65.6992 284.594L65.6992 69.375"/>
	<path fill="none" stroke="#D7D7D7" stroke-width="1" stroke-miterlimit="4" d="M770 284.594L770 69.375"/>
	<text fill="#D7D7D7" transform="translate(417.85 39.375)" font-size="16" font-weight="600" font-family="Khmer Mondulkiri" x="-132.11719, -123.08594, -114.34375, -104.8125, -95.78125, -87.3125, -77.78125, -68.742188, -59.710938, -50.671875, -42.140625, -23.390625, -12.882812, -4.8515625, 0.65625, 7.296875, 15.5, 24.257812, 33.289062, 37.976562, 47.007812, 56.039062, 66.546875, 75.382812, 84.664062, 91.304688, 100.33594, 109.36719, 114.05469, 123.08594, " y="-14.5625, ">
			06/01/2025 Lat:-90.00Lon:00.00
	</text>
	<rect fill="blue" transform="translate(656.672 64.375)" x="-25.675293" y="-30.703125" width="51.350586" height="35.703125"/>
	<text fill="white" transform="translate(656.672 64.375)" font-size="14" font-weight="600" font-family="Khmer Mondulkiri" x="-20.675293, -10.462402, 0.62548828, 9.8198242, " y="-12.742188, ">
			COLD
	</text>
	<rect fill="red" transform="translate(760.962 64.375)" x="-20.438965" y="-30.703125" width="40.87793" height="35.703125"/>
	<text fill="white" transform="translate(760.962 64.375)" font-size="14" font-weight="600" font-family="Khmer Mondulkiri" x="-15.438965, -4.4467773, 6.6411133, " y="-12.742188, ">
			HOT
	</text>
</svg>
