<?xml version="1.0" encoding="utf-8" ?>
<svg xmlns="http://www.w3.org/2000/svg" xmlns:xlink="http://www.w3.org/1999/xlink" width="350" height="800">
	<rect fill="#181818" width="350" height="800"/>
	<clipPath id="cl_3">
		<rect x="72.203125" y="54.375" width="262.79688" height="680.21875"/>
	</clipPath>
	<g clip-path="url(#cl_3)">
		<rect fill="#1F1F1F" x="72.203125" y="54.375" width="262.79688" height="680.21875"/>
	</g>
	<path fill="none" stroke="#404040" stroke-width="1" stroke-miterlimit="4" d="M92.4183 734.594L92.4183 54.375M132.849 734.594L132.849 54.375M173.279 734.594L173.279 54.375M213.709 734.594L213.709 54.375M254.139 734.594L254.139 54.375M294.57 734.594L294.57 54.375"/>
	<path fill="none" stroke="#404040" stroke-width="1" stroke-miterlimit="4" d="M72.2031 54.375L335 54.375M72.2031 88.3859L335 88.3859M72.2031 122.397L335 122.397M72.2031 156.408L335 156.408M72.2031 190.419L335 190.419M72.2031 224.43L335 224.43M72.2031 258.441L335 258.441M72.2031 292.452L335 292.452M72.2031 326.462L335 326.462M72.2031 360.473L335 360.473M72.2031 394.484L335 394.484M72.2031 428.495L335 428.495M72.2031 462.506L335 462.506M72.2031 496.517L335 496.517M72.2031 530.528L335 530.528M72.2031 564.539L335 564.539M72.2031 598.55L335 598.55M72.2031 632.561L335 632.561M72.2031 666.572L335 666.572M72.2031 700.583L335 700.583M72.2031 734.594L335 734.594"/>
	<clipPath id="cl_4">
		<rect x="72.203125" y="54.375" width="262.79688" height="680.21875"/>
	</clipPath>
	<g clip-path="url(#cl_4)">
		<path fill="none" stroke="#1F77B4" stroke-width="1" stroke-miterlimit="4" d="M169.341 735.594L236.28 718.594L236.28 717.594L285.897 700.594L252.822 683.594L220.274 666.594L241.864 649.594L223.088 632.594L165.442 615.594L176.428 598.594L189.256 581.594L177.993 564.594L168.819 530.594L168.227 496.594L172.159 462.594L177.052 428.594L188.812 394.594L179.721 360.594L154.485 326.594L146.597 292.594L153.098 258.594L134.195 224.594L133.746 207.594L142.926 190.594L140.614 173.594L147.212 156.594L156.393 139.594L164.877 122.594L166.47 102.594L165.386 88.5938L163.043 75.5938L155.499 68.5938L231.947 61.5938L297.931 59.5938L162.453 58.5938L-22.371 56.5938L-250.181 56.5938L173.279 55.5938"/>
	</g>
	<text fill="#D7D7D7" transform="translate(203.602 796)" font-size="16" font-weight="600" font-family="Khmer Mondulkiri" x="-53.367188, -44.398438, -34.34375, -24.8125, -15.84375, -6.859375, 2.515625, 8.53125, 17.5, 25.742188, 34.304688, 47.351562, " y="-14.5625, ">
			dT/dp [degK]
	</text>
	<path fill="none" stroke="#D7D7D7" stroke-width="1" stroke-miterlimit="4" d="M92.4183 734.594L92.4183 738.594"/>
	<text fill="#D7D7D7" transform="translate(92.4183 740.594)" font-size="12" font-family="Khmer Mondulkiri" x="-11.074219, -4.921875, 1.40625, 4.7460938, " y="11.039062, ">
			-0,4
	</text>
	<path fill="none" stroke="#D7D7D7" stroke-width="1" stroke-miterlimit="4" d="M132.849 734.594L132.849 738.594"/>
	<text fill="#D7D7D7" transform="translate(132.849 740.594)" font-size="12" font-family="Khmer Mondulkiri" x="-11.074219, -4.921875, 1.40625, 4.7460938, " y="11.039062, ">
			-0,2
	</text>
	<path fill="none" stroke="#D7D7D7" stroke-width="1" stroke-miterlimit="4" d="M173.279 734.594L173.279 738.594"/>
	<text fill="#D7D7D7" transform="translate(173.279 740.594)" font-size="12" font-family="Khmer Mondulkiri" x="-3.1640625, " y="11.039062, ">
			0
	</text>
	<path fill="none" stroke="#D7D7D7" stroke-width="1" stroke-miterlimit="4" d="M213.709 734.594L213.709 738.594"/>
	<text fill="#D7D7D7" transform="translate(213.709 740.594)" font-size="12" font-family="Khmer Mondulkiri" x="-7.9980469, -1.6699219, 1.6699219, " y="11.039062, ">
			0,2
	</text>
	<path fill="none" stroke="#D7D7D7" stroke-width="1" stroke-miterlimit="4" d="M254.139 734.594L254.139 738.594"/>
	<text fill="#D7D7D7" transform="translate(254.139 740.594)" font-size="12" font-family="Khmer Mondulkiri" x="-7.9980469, -1.6699219, 1.6699219, " y="11.039062, ">
			0,4
	</text>
	<path fill="none" stroke="#D7D7D7" stroke-width="1" stroke-miterlimit="4" d="M294.57 734.594L294.57 738.594"/>
	<text fill="#D7D7D7" transform="translate(294.57 740.594)" font-size="12" font-family="Khmer Mondulkiri" x="-7.9980469, -1.6699219, 1.6699219, " y="11.039062, ">
			0,6
	</text>
	<path fill="none" stroke="#D7D7D7" stroke-width="1" stroke-miterlimit="4" d="M76.2462 734.594L76.2462 736.594"/>
	<path fill="none" stroke="#D7D7D7" stroke-width="1" stroke-miterlimit="4" d="M84.3322 734.594L84.3322 736.594"/>
	<path fill="none" stroke="#D7D7D7" stroke-width="1" stroke-miterlimit="4" d="M100.504 734.594L100.504 736.594"/>
	<path fill="none" stroke="#D7D7D7" stroke-width="1" stroke-miterlimit="4" d="M108.59 734.594L108.59 736.594"/>
	<path fill="none" stroke="#D7D7D7" stroke-width="1" stroke-miterlimit="4" d="M116.676 734.594L116.676 736.594"/>
	<path fill="none" stroke="#D7D7D7" stroke-width="1" stroke-miterlimit="4" d="M124.762 734.594L124.762 736.594"/>
	<path fill="none" stroke="#D7D7D7" stroke-width="1" stroke-miterlimit="4" d="M140.935 734.594L140.935 736.594"/>
	<path fill="none" stroke="#D7D7D7" stroke-width="1" stroke-miterlimit="4" d="M149.021 734.594L149.021 736.594"/>
	<path fill="none" stroke="#D7D7D7" stroke-width="1" stroke-miterlimit="4" d="M157.107 734.594L157.107 736.594"/>
	<path fill="none" stroke="#D7D7D7" stroke-width="1" stroke-miterlimit="4" d="M165.193 734.594L165.193 736.594"/>
	<path fill="none" stroke="#D7D7D7" stroke-width="1" stroke-miterlimit="4" d="M181.365 734.594L181.365 736.594"/>
	<path fill="none" stroke="#D7D7D7" stroke-width="1" stroke-miterlimit="4" d="M189.451 734.594L189.451 736.594"/>
	<path fill="none" stroke="#D7D7D7" stroke-width="1" stroke-miterlimit="4" d="M197.537 734.594L197.537 736.594"/>
	<path fill="none" stroke="#D7D7D7" stroke-width="1" stroke-miterlimit="4" d="M205.623 734.594L205.623 736.594"/>
	<path fill="none" stroke="#D7D7D7" stroke-width="1" stroke-miterlimit="4" d="M221.795 734.594L221.795 736.594"/>
	<path fill="none" stroke="#D7D7D7" stroke-width="1" stroke-miterlimit="4" d="M229.881 734.594L229.881 736.594"/>
	<path fill="none" stroke="#D7D7D7" stroke-width="1" stroke-miterlimit="4" d="M237.967 734.594L237.967 736.594"/>
	<path fill="none" stroke="#D7D7D7" stroke-width="1" stroke-miterlimit="4" d="M246.053 734.594L246.053 736.594"/>
	<path fill="none" stroke="#D7D7D7" stroke-width="1" stroke-miterlimit="4" d="M262.225 734.594L262.225 736.594"/>
	<path fill="none" stroke="#D7D7D7" stroke-width="1" stroke-miterlimit="4" d="M270.312 734.594L270.312 736.594"/>
	<path fill="none" stroke="#D7D7D7" stroke-width="1" stroke-miterlimit="4" d="M278.398 734.594L278.398 736.594"/>
	<path fill="none" stroke="#D7D7D7" stroke-width="1" stroke-miterlimit="4" d="M286.484 734.594L286.484 736.594"/>
	<path fill="none" stroke="#D7D7D7" stroke-width="1" stroke-miterlimit="4" d="M302.656 734.594L302.656 736.594"/>
	<path fill="none" stroke="#D7D7D7" stroke-width="1" stroke-miterlimit="4" d="M310.742 734.594L310.742 736.594"/>
	<path fill="none" stroke="#D7D7D7" stroke-width="1" stroke-miterlimit="4" d="M318.828 734.594L318.828 736.594"/>
	<path fill="none" stroke="#D7D7D7" stroke-width="1" stroke-miterlimit="4" d="M326.914 734.594L326.914 736.594"/>
	<path fill="none" stroke="#D7D7D7" stroke-width="1" stroke-miterlimit="4" d="M72.2031 734.594L335 734.594"/>
	<path fill="none" stroke="#D7D7D7" stroke-width="1" stroke-miterlimit="4" d="M72.2031 54.475L335 54.475"/>
	<text fill="#D7D7D7" transform="matrix(0 -1 1 0 4 394.484)" font-size="16" font-weight="600" font-family="Khmer Mondulkiri" x="-43.792969, -30.941406, -26.042969, -17.472656, -9.2304688, -4.0507812, 5.3242188, 11.339844, 20.191406, 29.746094, 37.777344, " y="14.8125, ">
			Nivel [hPa]
	</text>
	<path fill="none" stroke="#D7D7D7" stroke-width="1" stroke-miterlimit="4" d="M72.2031 54.375L68.2031 54.375"/>
	<text fill="#D7D7D7" transform="translate(63.2031 54.375)" font-size="12" font-family="Khmer Mondulkiri" x="-6.328125, " y="0.0234375, ">
			0
	</text>
	<path fill="none" stroke="#D7D7D7" stroke-width="1" stroke-miterlimit="4" d="M72.2031 88.3859L68.2031 88.3859"/>
	<text fill="#D7D7D7" transform="translate(63.2031 88.3859)" font-size="12" font-family="Khmer Mondulkiri" x="-12.65625, -6.328125, " y="0.0234375, ">
			50
	</text>
	<path fill="none" stroke="#D7D7D7" stroke-width="1" stroke-miterlimit="4" d="M72.2031 122.397L68.2031 122.397"/>
	<text fill="#D7D7D7" transform="translate(63.2031 122.397)" font-size="12" font-family="Khmer Mondulkiri" x="-18.984375, -12.65625, -6.328125, " y="0.0234375, ">
			100
	</text>
	<path fill="none" stroke="#D7D7D7" stroke-width="1" stroke-miterlimit="4" d="M72.2031 156.408L68.2031 156.408"/>
	<text fill="#D7D7D7" transform="translate(63.2031 156.408)" font-size="12" font-family="Khmer Mondulkiri" x="-18.984375, -12.65625, -6.328125, " y="0.0234375, ">
			150
	</text>
	<path fill="none" stroke="#D7D7D7" stroke-width="1" stroke-miterlimit="4" d="M72.2031 190.419L68.2031 190.419"/>
	<text fill="#D7D7D7" transform="translate(63.2031 190.419)" font-size="12" font-family="Khmer Mondulkiri" x="-18.984375, -12.65625, -6.328125, " y="0.0234375, ">
			200
	</text>
	<path fill="none" stroke="#D7D7D7" stroke-width="1" stroke-miterlimit="4" d="M72.2031 224.43L68.2031 224.43"/>
	<text fill="#D7D7D7" transform="translate(63.2031 224.43)" font-size="12" font-family="Khmer Mondulkiri" x="-18.984375, -12.65625, -6.328125, " y="0.0234375, ">
			250
	</text>
	<path fill="none" stroke="#D7D7D7" stroke-width="1" stroke-miterlimit="4" d="M72.2031 258.441L68.2031 258.441"/>
	<text fill="#D7D7D7" transform="translate(63.2031 258.441)" font-size="12" font-family="Khmer Mondulkiri" x="-18.984375, -12.65625, -6.328125, " y="0.0234375, ">
			300
	</text>
	<path fill="none" stroke="#D7D7D7" stroke-width="1" stroke-miterlimit="4" d="M72.2031 292.452L68.2031 292.452"/>
	<text fill="#D7D7D7" transform="translate(63.2031 292.452)" font-size="12" font-family="Khmer Mondulkiri" x="-18.984375, -12.65625, -6.328125, " y="0.0234375, ">
			350
	</text>
	<path fill="none" stroke="#D7D7D7" stroke-width="1" stroke-miterlimit="4" d="M72.2031 326.462L68.2031 326.462"/>
	<text fill="#D7D7D7" transform="translate(63.2031 326.462)" font-size="12" font-family="Khmer Mondulkiri" x="-18.984375, -12.65625, -6.328125, " y="0.0234375, ">
			400
	</text>
	<path fill="none" stroke="#D7D7D7" stroke-width="1" stroke-miterlimit="4" d="M72.2031 360.473L68.2031 360.473"/>
	<text fill="#D7D7D7" transform="translate(63.2031 360.473)" font-size="12" font-family="Khmer Mondulkiri" x="-18.984375, -12.65625, -6.328125, " y="0.0234375, ">
			450
	</text>
	<path fill="none" stroke="#D7D7D7" stroke-width="1" stroke-miterlimit="4" d="M72.2031 394.484L68.2031 394.484"/>
	<text fill="#D7D7D7" transform="translate(63.2031 394.484)" font-size="12" font-family="Khmer Mondulkiri" x="-18.984375, -12.65625, -6.328125, " y="0.0234375, ">
			500
	</text>
	<path fill="none" stroke="#D7D7D7" stroke-width="1" stroke-miterlimit="4" d="M72.2031 428.495L68.2031 428.495"/>
	<text fill="#D7D7D7" transform="translate(63.2031 428.495)" font-size="12" font-family="Khmer Mondulkiri" x="-18.984375, -12.65625, -6.328125, " y="0.0234375, ">
			550
	</text>
	<path fill="none" stroke="#D7D7D7" stroke-width="1" stroke-miterlimit="4" d="M72.2031 462.506L68.2031 462.506"/>
	<text fill="#D7D7D7" transform="translate(63.2031 462.506)" font-size="12" font-family="Khmer Mondulkiri" x="-18.984375, -12.65625, -6.328125, " y="0.0234375, ">
			600
	</text>
	<path fill="none" stroke="#D7D7D7" stroke-width="1" stroke-miterlimit="4" d="M72.2031 496.517L68.2031 496.517"/>
	<text fill="#D7D7D7" transform="translate(63.2031 496.517)" font-size="12" font-family="Khmer Mondulkiri" x="-18.984375, -12.65625, -6.328125, " y="0.0234375, ">
			650
	</text>
	<path fill="none" stroke="#D7D7D7" stroke-width="1" stroke-miterlimit="4" d="M72.2031 530.528L68.2031 530.528"/>
	<text fill="#D7D7D7" transform="translate(63.2031 530.528)" font-size="12" font-family="Khmer Mondulkiri" x="-18.984375, -12.65625, -6.328125, " y="0.0234375, ">
			700
	</text>
	<path fill="none" stroke="#D7D7D7" stroke-width="1" stroke-miterlimit="4" d="M72.2031 564.539L68.2031 564.539"/>
	<text fill="#D7D7D7" transform="translate(63.2031 564.539)" font-size="12" font-family="Khmer Mondulkiri" x="-18.984375, -12.65625, -6.328125, " y="0.0234375, ">
			750
	</text>
	<path fill="none" stroke="#D7D7D7" stroke-width="1" stroke-miterlimit="4" d="M72.2031 598.55L68.2031 598.55"/>
	<text fill="#D7D7D7" transform="translate(63.2031 598.55)" font-size="12" font-family="Khmer Mondulkiri" x="-18.984375, -12.65625, -6.328125, " y="0.0234375, ">
			800
	</text>
	<path fill="none" stroke="#D7D7D7" stroke-width="1" stroke-miterlimit="4" d="M72.2031 632.561L68.2031 632.561"/>
	<text fill="#D7D7D7" transform="translate(63.2031 632.561)" font-size="12" font-family="Khmer Mondulkiri" x="-18.984375, -12.65625, -6.328125, " y="0.0234375, ">
			850
	</text>
	<path fill="none" stroke="#D7D7D7" stroke-width="1" stroke-miterlimit="4" d="M72.2031 666.572L68.2031 666.572"/>
	<text fill="#D7D7D7" transform="translate(63.2031 666.572)" font-size="12" font-family="Khmer Mondulkiri" x="-18.984375, -12.65625, -6.328125, " y="0.0234375, ">
			900
	</text>
	<path fill="none" stroke="#D7D7D7" stroke-width="1" stroke-miterlimit="4" d="M72.2031 700.583L68.2031 700.583"/>
	<text fill="#D7D7D7" transform="translate(63.2031 700.583)" font-size="12" font-family="Khmer Mondulkiri" x="-18.984375, -12.65625, -6.328125, " y="0.0234375, ">
			950
	</text>
	<path fill="none" stroke="#D7D7D7" stroke-width="1" stroke-miterlimit="4" d="M72.2031 734.594L68.2031 734.594"/>
	<text fill="#D7D7D7" transform="translate(63.2031 734.594)" font-size="12" font-family="Khmer Mondulkiri" x="-28.828125, -22.5, -18.984375, -12.65625, -6.328125, " y="0.0234375, ">
			1.000
	</text>
	<path fill="none" stroke="#D7D7D7" stroke-width="1" stroke-miterlimit="4" d="M72.2031 61.1772L70.2031 61.1772"/>
	<path fill="none" stroke="#D7D7D7" stroke-width="1" stroke-miterlimit="4" d="M72.2031 67.9794L70.2031 67.9794"/>
	<path fill="none" stroke="#D7D7D7" stroke-width="1" stroke-miterlimit="4" d="M72.2031 74.7816L70.2031 74.7816"/>
	<path fill="none" stroke="#D7D7D7" stroke-width="1" stroke-miterlimit="4" d="M72.2031 81.5837L70.2031 81.5837"/>
	<path fill="none" stroke="#D7D7D7" stroke-width="1" stroke-miterlimit="4" d="M72.2031 95.1881L70.2031 95.1881"/>
	<path fill="none" stroke="#D7D7D7" stroke-width="1" stroke-miterlimit="4" d="M72.2031 101.99L70.2031 101.99"/>
	<path fill="none" stroke="#D7D7D7" stroke-width="1" stroke-miterlimit="4" d="M72.2031 108.792L70.2031 108.792"/>
	<path fill="none" stroke="#D7D7D7" stroke-width="1" stroke-miterlimit="4" d="M72.2031 115.595L70.2031 115.595"/>
	<path fill="none" stroke="#D7D7D7" stroke-width="1" stroke-miterlimit="4" d="M72.2031 129.199L70.2031 129.199"/>
	<path fill="none" stroke="#D7D7D7" stroke-width="1" stroke-miterlimit="4" d="M72.2031 136.001L70.2031 136.001"/>
	<path fill="none" stroke="#D7D7D7" stroke-width="1" stroke-miterlimit="4" d="M72.2031 142.803L70.2031 142.803"/>
	<path fill="none" stroke="#D7D7D7" stroke-width="1" stroke-miterlimit="4" d="M72.2031 149.606L70.2031 149.606"/>
	<path fill="none" stroke="#D7D7D7" stroke-width="1" stroke-miterlimit="4" d="M72.2031 163.21L70.2031 163.21"/>
	<path fill="none" stroke="#D7D7D7" stroke-width="1" stroke-miterlimit="4" d="M72.2031 170.012L70.2031 170.012"/>
	<path fill="none" stroke="#D7D7D7" stroke-width="1" stroke-miterlimit="4" d="M72.2031 176.814L70.2031 176.814"/>
	<path fill="none" stroke="#D7D7D7" stroke-width="1" stroke-miterlimit="4" d="M72.2031 183.617L70.2031 183.617"/>
	<path fill="none" stroke="#D7D7D7" stroke-width="1" stroke-miterlimit="4" d="M72.2031 197.221L70.2031 197.221"/>
	<path fill="none" stroke="#D7D7D7" stroke-width="1" stroke-miterlimit="4" d="M72.2031 204.023L70.2031 204.023"/>
	<path fill="none" stroke="#D7D7D7" stroke-width="1" stroke-miterlimit="4" d="M72.2031 210.825L70.2031 210.825"/>
	<path fill="none" stroke="#D7D7D7" stroke-width="1" stroke-miterlimit="4" d="M72.2031 217.628L70.2031 217.628"/>
	<path fill="none" stroke="#D7D7D7" stroke-width="1" stroke-miterlimit="4" d="M72.2031 231.232L70.2031 231.232"/>
	<path fill="none" stroke="#D7D7D7" stroke-width="1" stroke-miterlimit="4" d="M72.2031 238.034L70.2031 238.034"/>
	<path fill="none" stroke="#D7D7D7" stroke-width="1" stroke-miterlimit="4" d="M72.2031 244.836L70.2031 244.836"/>
	<path fill="none" stroke="#D7D7D7" stroke-width="1" stroke-miterlimit="4" d="M72.2031 251.638L70.2031 251.638"/>
	<path fill="none" stroke="#D7D7D7" stroke-width="1" stroke-miterlimit="4" d="M72.2031 265.243L70.2031 265.243"/>
	<path fill="none" stroke="#D7D7D7" stroke-width="1" stroke-miterlimit="4" d="M72.2031 272.045L70.2031 272.045"/>
	<path fill="none" stroke="#D7D7D7" stroke-width="1" stroke-miterlimit="4" d="M72.2031 278.847L70.2031 278.847"/>
	<path fill="none" stroke="#D7D7D7" stroke-width="1" stroke-miterlimit="4" d="M72.2031 285.649L70.2031 285.649"/>
	<path fill="none" stroke="#D7D7D7" stroke-width="1" stroke-miterlimit="4" d="M72.2031 299.254L70.2031 299.254"/>
	<path fill="none" stroke="#D7D7D7" stroke-width="1" stroke-miterlimit="4" d="M72.2031 306.056L70.2031 306.056"/>
	<path fill="none" stroke="#D7D7D7" stroke-width="1" stroke-miterlimit="4" d="M72.2031 312.858L70.2031 312.858"/>
	<path fill="none" stroke="#D7D7D7" stroke-width="1" stroke-miterlimit="4" d="M72.2031 319.66L70.2031 319.66"/>
	<path fill="none" stroke="#D7D7D7" stroke-width="1" stroke-miterlimit="4" d="M72.2031 333.265L70.2031 333.265"/>
	<path fill="none" stroke="#D7D7D7" stroke-width="1" stroke-miterlimit="4" d="M72.2031 340.067L70.2031 340.067"/>
	<path fill="none" stroke="#D7D7D7" stroke-width="1" stroke-miterlimit="4" d="M72.2031 346.869L70.2031 346.869"/>
	<path fill="none" stroke="#D7D7D7" stroke-width="1" stroke-miterlimit="4" d="M72.2031 353.671L70.2031 353.671"/>
	<path fill="none" stroke="#D7D7D7" stroke-width="1" stroke-miterlimit="4" d="M72.2031 367.276L70.2031 367.276"/>
	<path fill="none" stroke="#D7D7D7" stroke-width="1" stroke-miterlimit="4" d="M72.2031 374.078L70.2031 374.078"/>
	<path fill="none" stroke="#D7D7D7" stroke-width="1" stroke-miterlimit="4" d="M72.2031 380.88L70.2031 380.88"/>
	<path fill="none" stroke="#D7D7D7" stroke-width="1" stroke-miterlimit="4" d="M72.2031 387.682L70.2031 387.682"/>
	<path fill="none" stroke="#D7D7D7" stroke-width="1" stroke-miterlimit="4" d="M72.2031 401.287L70.2031 401.287"/>
	<path fill="none" stroke="#D7D7D7" stroke-width="1" stroke-miterlimit="4" d="M72.2031 408.089L70.2031 408.089"/>
	<path fill="none" stroke="#D7D7D7" stroke-width="1" stroke-miterlimit="4" d="M72.2031 414.891L70.2031 414.891"/>
	<path fill="none" stroke="#D7D7D7" stroke-width="1" stroke-miterlimit="4" d="M72.2031 421.693L70.2031 421.693"/>
	<path fill="none" stroke="#D7D7D7" stroke-width="1" stroke-miterlimit="4" d="M72.2031 435.297L70.2031 435.297"/>
	<path fill="none" stroke="#D7D7D7" stroke-width="1" stroke-miterlimit="4" d="M72.2031 442.1L70.2031 442.1"/>
	<path fill="none" stroke="#D7D7D7" stroke-width="1" stroke-miterlimit="4" d="M72.2031 448.902L70.2031 448.902"/>
	<path fill="none" stroke="#D7D7D7" stroke-width="1" stroke-miterlimit="4" d="M72.2031 455.704L70.2031 455.704"/>
	<path fill="none" stroke="#D7D7D7" stroke-width="1" stroke-miterlimit="4" d="M72.2031 469.308L70.2031 469.308"/>
	<path fill="none" stroke="#D7D7D7" stroke-width="1" stroke-miterlimit="4" d="M72.2031 476.111L70.2031 476.111"/>
	<path fill="none" stroke="#D7D7D7" stroke-width="1" stroke-miterlimit="4" d="M72.2031 482.913L70.2031 482.913"/>
	<path fill="none" stroke="#D7D7D7" stroke-width="1" stroke-miterlimit="4" d="M72.2031 489.715L70.2031 489.715"/>
	<path fill="none" stroke="#D7D7D7" stroke-width="1" stroke-miterlimit="4" d="M72.2031 503.319L70.2031 503.319"/>
	<path fill="none" stroke="#D7D7D7" stroke-width="1" stroke-miterlimit="4" d="M72.2031 510.122L70.2031 510.122"/>
	<path fill="none" stroke="#D7D7D7" stroke-width="1" stroke-miterlimit="4" d="M72.2031 516.924L70.2031 516.924"/>
	<path fill="none" stroke="#D7D7D7" stroke-width="1" stroke-miterlimit="4" d="M72.2031 523.726L70.2031 523.726"/>
	<path fill="none" stroke="#D7D7D7" stroke-width="1" stroke-miterlimit="4" d="M72.2031 537.33L70.2031 537.33"/>
	<path fill="none" stroke="#D7D7D7" stroke-width="1" stroke-miterlimit="4" d="M72.2031 544.133L70.2031 544.133"/>
	<path fill="none" stroke="#D7D7D7" stroke-width="1" stroke-miterlimit="4" d="M72.2031 550.935L70.2031 550.935"/>
	<path fill="none" stroke="#D7D7D7" stroke-width="1" stroke-miterlimit="4" d="M72.2031 557.737L70.2031 557.737"/>
	<path fill="none" stroke="#D7D7D7" stroke-width="1" stroke-miterlimit="4" d="M72.2031 571.341L70.2031 571.341"/>
	<path fill="none" stroke="#D7D7D7" stroke-width="1" stroke-miterlimit="4" d="M72.2031 578.143L70.2031 578.143"/>
	<path fill="none" stroke="#D7D7D7" stroke-width="1" stroke-miterlimit="4" d="M72.2031 584.946L70.2031 584.946"/>
	<path fill="none" stroke="#D7D7D7" stroke-width="1" stroke-miterlimit="4" d="M72.2031 591.748L70.2031 591.748"/>
	<path fill="none" stroke="#D7D7D7" stroke-width="1" stroke-miterlimit="4" d="M72.2031 605.352L70.2031 605.352"/>
	<path fill="none" stroke="#D7D7D7" stroke-width="1" stroke-miterlimit="4" d="M72.2031 612.154L70.2031 612.154"/>
	<path fill="none" stroke="#D7D7D7" stroke-width="1" stroke-miterlimit="4" d="M72.2031 618.957L70.2031 618.957"/>
	<path fill="none" stroke="#D7D7D7" stroke-width="1" stroke-miterlimit="4" d="M72.2031 625.759L70.2031 625.759"/>
	<path fill="none" stroke="#D7D7D7" stroke-width="1" stroke-miterlimit="4" d="M72.2031 639.363L70.2031 639.363"/>
	<path fill="none" stroke="#D7D7D7" stroke-width="1" stroke-miterlimit="4" d="M72.2031 646.165L70.2031 646.165"/>
	<path fill="none" stroke="#D7D7D7" stroke-width="1" stroke-miterlimit="4" d="M72.2031 652.968L70.2031 652.968"/>
	<path fill="none" stroke="#D7D7D7" stroke-width="1" stroke-miterlimit="4" d="M72.2031 659.77L70.2031 659.77"/>
	<path fill="none" stroke="#D7D7D7" stroke-width="1" stroke-miterlimit="4" d="M72.2031 673.374L70.2031 673.374"/>
	<path fill="none" stroke="#D7D7D7" stroke-width="1" stroke-miterlimit="4" d="M72.2031 680.176L70.2031 680.176"/>
	<path fill="none" stroke="#D7D7D7" stroke-width="1" stroke-miterlimit="4" d="M72.2031 686.978L70.2031 686.978"/>
	<path fill="none" stroke="#D7D7D7" stroke-width="1" stroke-miterlimit="4" d="M72.2031 693.781L70.2031 693.781"/>
	<path fill="none" stroke="#D7D7D7" stroke-width="1" stroke-miterlimit="4" d="M72.2031 707.385L70.2031 707.385"/>
	<path fill="none" stroke="#D7D7D7" stroke-width="1" stroke-miterlimit="4" d="M72.2031 714.187L70.2031 714.187"/>
	<path fill="none" stroke="#D7D7D7" stroke-width="1" stroke-miterlimit="4" d="M72.2031 720.989L70.2031 720.989"/>
	<path fill="none" stroke="#D7D7D7" stroke-width="1" stroke-miterlimit="4" d="M72.2031 727.792L70.2031 727.792"/>
	<path fill="none" stroke="#D7D7D7" stroke-width="1" stroke-miterlimit="4" d="M72.2031 734.594L72.2031 54.375"/>
	<path fill="none" stroke="#D7D7D7" stroke-width="1" stroke-miterlimit="4" d="M335 734.594L335 54.375"/>
	<text fill="#D7D7D7" transform="translate(203.602 39.375)" font-size="16" font-weight="600" font-family="Khmer Mondulkiri" x="-118.74219, -110.27344, -100.74219, -92, -82.46875, -73.429688, -64.398438, -55.359375, -46.828125, -28.078125, -17.570312, -9.5390625, -4.03125, 2.609375, 11.367188, 20.398438, 24.84375, 33.875, 42.90625, 53.414062, 62.25, 71.53125, 78.171875, 87.203125, 96.234375, 100.67969, 109.71094, " y="-14.5625, ">
			1/6/2025 Lat:90,00Lon:00,00
	</text>
</svg>
