<?xml version="1.0" encoding="utf-8" ?>
<svg xmlns="http://www.w3.org/2000/svg" xmlns:xlink="http://www.w3.org/1999/xlink" width="350" height="800">
	<rect fill="#181818" width="350" height="800"/>
	<clipPath id="cl_3">
		<rect x="72.203125" y="58.046875" width="262.79688" height="676.54688"/>
	</clipPath>
	<g clip-path="url(#cl_3)">
		<rect fill="#1F1F1F" x="72.203125" y="58.046875" width="262.79688" height="676.54688"/>
	</g>
	<path fill="none" stroke="#404040" stroke-width="1" stroke-miterlimit="4" d="M335 734.594L335 58.0469M269.301 734.594L269.301 58.0469M203.602 734.594L203.602 58.0469M137.902 734.594L137.902 58.0469M72.2031 734.594L72.2031 58.0469"/>
	<path fill="none" stroke="#404040" stroke-width="1" stroke-miterlimit="4" d="M72.2031 691.06L335 691.06M72.2031 632.171L335 632.171M72.2031 573.282L335 573.282M72.2031 514.393L335 514.393M72.2031 455.504L335 455.504M72.2031 396.615L335 396.615M72.2031 337.726L335 337.726M72.2031 278.837L335 278.837M72.2031 219.948L335 219.948M72.2031 161.059L335 161.059M72.2031 102.169L335 102.169"/>
	<clipPath id="cl_4">
		<rect x="72.203125" y="58.046875" width="262.79688" height="676.54688"/>
	</clipPath>
	<g clip-path="url(#cl_4)">
		<path fill="none" stroke="#1F77B4" stroke-width="1" stroke-miterlimit="4" d="M203.602 690.594L478.85 690.594L330.774 689.594L210.639 688.594L122.577 687.594L165.467 685.594L215.159 679.594L210.255 673.594L208.732 662.594L208.027 650.594L209.063 632.594L214.578 617.594L220.545 603.594L224.834 588.594L223.331 573.594L229.298 558.594L229.006 544.594L216.719 514.594L220.944 485.594L215.817 455.594L199.414 426.594L193.505 397.594L201.149 367.594L204.329 338.594L206.885 308.594L206.501 279.594L200.538 249.594L193.216 235.594L201.555 220.594L208.695 205.594L171.226 190.594L159.021 176.594L173.055 161.594L151.899 146.594L130.4 132.594L162.651 117.594L203.602 102.594"/>
	</g>
	<text fill="#D7D7D7" transform="translate(203.602 796)" font-size="16" font-weight="600" font-family="Khmer Mondulkiri" x="-58.046875, -49.078125, -43.570312, -34.039062, -25.070312, -16.21875, -6.84375, -0.828125, 10.84375, 19.085938, 24.265625, 31.085938, 35.984375, 45.210938, 52.03125, " y="-14.5625, ">
			dt/dh [Celsius]
	</text>
	<path fill="none" stroke="#D7D7D7" stroke-width="1" stroke-miterlimit="4" d="M335 734.594L335 738.594"/>
	<text fill="#D7D7D7" transform="translate(335 740.594)" font-size="12" font-family="Khmer Mondulkiri" x="-6.2402344, -0.087890625, " y="11.039062, ">
			-1
	</text>
	<path fill="none" stroke="#D7D7D7" stroke-width="1" stroke-miterlimit="4" d="M269.301 734.594L269.301 738.594"/>
	<text fill="#D7D7D7" transform="translate(269.301 740.594)" font-size="12" font-family="Khmer Mondulkiri" x="-11.074219, -4.921875, 1.40625, 4.7460938, " y="11.039062, ">
			-0,5
	</text>
	<path fill="none" stroke="#D7D7D7" stroke-width="1" stroke-miterlimit="4" d="M203.602 734.594L203.602 738.594"/>
	<text fill="#D7D7D7" transform="translate(203.602 740.594)" font-size="12" font-family="Khmer Mondulkiri" x="-3.1640625, " y="11.039062, ">
			0
	</text>
	<path fill="none" stroke="#D7D7D7" stroke-width="1" stroke-miterlimit="4" d="M137.902 734.594L137.902 738.594"/>
	<text fill="#D7D7D7" transform="translate(137.902 740.594)" font-size="12" font-family="Khmer Mondulkiri" x="-7.9980469, -1.6699219, 1.6699219, " y="11.039062, ">
			0,5
	</text>
	<path fill="none" stroke="#D7D7D7" stroke-width="1" stroke-miterlimit="4" d="M72.2031 734.594L72.2031 738.594"/>
	<text fill="#D7D7D7" transform="translate(72.2031 740.594)" font-size="12" font-family="Khmer Mondulkiri" x="-3.1640625, " y="11.039062, ">
			1
	</text>
	<path fill="none" stroke="#D7D7D7" stroke-width="1" stroke-miterlimit="4" d="M321.86 734.594L321.86 736.594"/>
	<path fill="none" stroke="#D7D7D7" stroke-width="1" stroke-miterlimit="4" d="M308.72 734.594L308.72 736.594"/>
	<path fill="none" stroke="#D7D7D7" stroke-width="1" stroke-miterlimit="4" d="M295.58 734.594L295.58 736.594"/>
	<path fill="none" stroke="#D7D7D7" stroke-width="1" stroke-miterlimit="4" d="M282.441 734.594L282.441 736.594"/>
	<path fill="none" stroke="#D7D7D7" stroke-width="1" stroke-miterlimit="4" d="M256.161 734.594L256.161 736.594"/>
	<path fill="none" stroke="#D7D7D7" stroke-width="1" stroke-miterlimit="4" d="M243.021 734.594L243.021 736.594"/>
	<path fill="none" stroke="#D7D7D7" stroke-width="1" stroke-miterlimit="4" d="M229.881 734.594L229.881 736.594"/>
	<path fill="none" stroke="#D7D7D7" stroke-width="1" stroke-miterlimit="4" d="M216.741 734.594L216.741 736.594"/>
	<path fill="none" stroke="#D7D7D7" stroke-width="1" stroke-miterlimit="4" d="M190.462 734.594L190.462 736.594"/>
	<path fill="none" stroke="#D7D7D7" stroke-width="1" stroke-miterlimit="4" d="M177.322 734.594L177.322 736.594"/>
	<path fill="none" stroke="#D7D7D7" stroke-width="1" stroke-miterlimit="4" d="M164.182 734.594L164.182 736.594"/>
	<path fill="none" stroke="#D7D7D7" stroke-width="1" stroke-miterlimit="4" d="M151.042 734.594L151.042 736.594"/>
	<path fill="none" stroke="#D7D7D7" stroke-width="1" stroke-miterlimit="4" d="M124.762 734.594L124.762 736.594"/>
	<path fill="none" stroke="#D7D7D7" stroke-width="1" stroke-miterlimit="4" d="M111.623 734.594L111.623 736.594"/>
	<path fill="none" stroke="#D7D7D7" stroke-width="1" stroke-miterlimit="4" d="M98.4828 734.594L98.4828 736.594"/>
	<path fill="none" stroke="#D7D7D7" stroke-width="1" stroke-miterlimit="4" d="M85.343 734.594L85.343 736.594"/>
	<path fill="none" stroke="#D7D7D7" stroke-width="1" stroke-miterlimit="4" d="M72.2031 734.594L335 734.594"/>
	<path fill="none" stroke="#D7D7D7" stroke-width="1" stroke-miterlimit="4" d="M72.2031 58.1469L335 58.1469"/>
	<text fill="#D7D7D7" transform="matrix(0 -1 1 0 4 396.32)" font-size="16" font-weight="600" font-family="Khmer Mondulkiri" x="-43.792969, -30.941406, -26.042969, -17.472656, -9.2304688, -4.0507812, 5.3242188, 11.339844, 20.191406, 29.746094, 37.777344, " y="14.8125, ">
			Nivel [hPa]
	</text>
	<path fill="none" stroke="#D7D7D7" stroke-width="1" stroke-miterlimit="4" d="M72.2031 691.06L68.2031 691.06"/>
	<text fill="#D7D7D7" transform="translate(63.2031 691.06)" font-size="12" font-family="Khmer Mondulkiri" x="-6.328125, " y="0.0234375, ">
			0
	</text>
	<path fill="none" stroke="#D7D7D7" stroke-width="1" stroke-miterlimit="4" d="M72.2031 632.171L68.2031 632.171"/>
	<text fill="#D7D7D7" transform="translate(63.2031 632.171)" font-size="12" font-family="Khmer Mondulkiri" x="-18.984375, -12.65625, -6.328125, " y="0.0234375, ">
			100
	</text>
	<path fill="none" stroke="#D7D7D7" stroke-width="1" stroke-miterlimit="4" d="M72.2031 573.282L68.2031 573.282"/>
	<text fill="#D7D7D7" transform="translate(63.2031 573.282)" font-size="12" font-family="Khmer Mondulkiri" x="-18.984375, -12.65625, -6.328125, " y="0.0234375, ">
			200
	</text>
	<path fill="none" stroke="#D7D7D7" stroke-width="1" stroke-miterlimit="4" d="M72.2031 514.393L68.2031 514.393"/>
	<text fill="#D7D7D7" transform="translate(63.2031 514.393)" font-size="12" font-family="Khmer Mondulkiri" x="-18.984375, -12.65625, -6.328125, " y="0.0234375, ">
			300
	</text>
	<path fill="none" stroke="#D7D7D7" stroke-width="1" stroke-miterlimit="4" d="M72.2031 455.504L68.2031 455.504"/>
	<text fill="#D7D7D7" transform="translate(63.2031 455.504)" font-size="12" font-family="Khmer Mondulkiri" x="-18.984375, -12.65625, -6.328125, " y="0.0234375, ">
			400
	</text>
	<path fill="none" stroke="#D7D7D7" stroke-width="1" stroke-miterlimit="4" d="M72.2031 396.615L68.2031 396.615"/>
	<text fill="#D7D7D7" transform="translate(63.2031 396.615)" font-size="12" font-family="Khmer Mondulkiri" x="-18.984375, -12.65625, -6.328125, " y="0.0234375, ">
			500
	</text>
	<path fill="none" stroke="#D7D7D7" stroke-width="1" stroke-miterlimit="4" d="M72.2031 337.726L68.2031 337.726"/>
	<text fill="#D7D7D7" transform="translate(63.2031 337.726)" font-size="12" font-family="Khmer Mondulkiri" x="-18.984375, -12.65625, -6.328125, " y="0.0234375, ">
			600
	</text>
	<path fill="none" stroke="#D7D7D7" stroke-width="1" stroke-miterlimit="4" d="M72.2031 278.837L68.2031 278.837"/>
	<text fill="#D7D7D7" transform="translate(63.2031 278.837)" font-size="12" font-family="Khmer Mondulkiri" x="-18.984375, -12.65625, -6.328125, " y="0.0234375, ">
			700
	</text>
	<path fill="none" stroke="#D7D7D7" stroke-width="1" stroke-miterlimit="4" d="M72.2031 219.948L68.2031 219.948"/>
	<text fill="#D7D7D7" transform="translate(63.2031 219.948)" font-size="12" font-family="Khmer Mondulkiri" x="-18.984375, -12.65625, -6.328125, " y="0.0234375, ">
			800
	</text>
	<path fill="none" stroke="#D7D7D7" stroke-width="1" stroke-miterlimit="4" d="M72.2031 161.059L68.2031 161.059"/>
	<text fill="#D7D7D7" transform="translate(63.2031 161.059)" font-size="12" font-family="Khmer Mondulkiri" x="-18.984375, -12.65625, -6.328125, " y="0.0234375, ">
			900
	</text>
	<path fill="none" stroke="#D7D7D7" stroke-width="1" stroke-miterlimit="4" d="M72.2031 102.169L68.2031 102.169"/>
	<text fill="#D7D7D7" transform="translate(63.2031 102.169)" font-size="12" font-family="Khmer Mondulkiri" x="-28.828125, -22.5, -18.984375, -12.65625, -6.328125, " y="0.0234375, ">
			1.000
	</text>
	<path fill="none" stroke="#D7D7D7" stroke-width="1" stroke-miterlimit="4" d="M72.2031 726.393L70.2031 726.393"/>
	<path fill="none" stroke="#D7D7D7" stroke-width="1" stroke-miterlimit="4" d="M72.2031 714.616L70.2031 714.616"/>
	<path fill="none" stroke="#D7D7D7" stroke-width="1" stroke-miterlimit="4" d="M72.2031 702.838L70.2031 702.838"/>
	<path fill="none" stroke="#D7D7D7" stroke-width="1" stroke-miterlimit="4" d="M72.2031 679.282L70.2031 679.282"/>
	<path fill="none" stroke="#D7D7D7" stroke-width="1" stroke-miterlimit="4" d="M72.2031 667.504L70.2031 667.504"/>
	<path fill="none" stroke="#D7D7D7" stroke-width="1" stroke-miterlimit="4" d="M72.2031 655.727L70.2031 655.727"/>
	<path fill="none" stroke="#D7D7D7" stroke-width="1" stroke-miterlimit="4" d="M72.2031 643.949L70.2031 643.949"/>
	<path fill="none" stroke="#D7D7D7" stroke-width="1" stroke-miterlimit="4" d="M72.2031 620.393L70.2031 620.393"/>
	<path fill="none" stroke="#D7D7D7" stroke-width="1" stroke-miterlimit="4" d="M72.2031 608.615L70.2031 608.615"/>
	<path fill="none" stroke="#D7D7D7" stroke-width="1" stroke-miterlimit="4" d="M72.2031 596.838L70.2031 596.838"/>
	<path fill="none" stroke="#D7D7D7" stroke-width="1" stroke-miterlimit="4" d="M72.2031 585.06L70.2031 585.06"/>
	<path fill="none" stroke="#D7D7D7" stroke-width="1" stroke-miterlimit="4" d="M72.2031 561.504L70.2031 561.504"/>
	<path fill="none" stroke="#D7D7D7" stroke-width="1" stroke-miterlimit="4" d="M72.2031 549.726L70.2031 549.726"/>
	<path fill="none" stroke="#D7D7D7" stroke-width="1" stroke-miterlimit="4" d="M72.2031 537.948L70.2031 537.948"/>
	<path fill="none" stroke="#D7D7D7" stroke-width="1" stroke-miterlimit="4" d="M72.2031 526.171L70.2031 526.171"/>
	<path fill="none" stroke="#D7D7D7" stroke-width="1" stroke-miterlimit="4" d="M72.2031 502.615L70.2031 502.615"/>
	<path fill="none" stroke="#D7D7D7" stroke-width="1" stroke-miterlimit="4" d="M72.2031 490.837L70.2031 490.837"/>
	<path fill="none" stroke="#D7D7D7" stroke-width="1" stroke-miterlimit="4" d="M72.2031 479.059L70.2031 479.059"/>
	<path fill="none" stroke="#D7D7D7" stroke-width="1" stroke-miterlimit="4" d="M72.2031 467.282L70.2031 467.282"/>
	<path fill="none" stroke="#D7D7D7" stroke-width="1" stroke-miterlimit="4" d="M72.2031 443.726L70.2031 443.726"/>
	<path fill="none" stroke="#D7D7D7" stroke-width="1" stroke-miterlimit="4" d="M72.2031 431.948L70.2031 431.948"/>
	<path fill="none" stroke="#D7D7D7" stroke-width="1" stroke-miterlimit="4" d="M72.2031 420.17L70.2031 420.17"/>
	<path fill="none" stroke="#D7D7D7" stroke-width="1" stroke-miterlimit="4" d="M72.2031 408.393L70.2031 408.393"/>
	<path fill="none" stroke="#D7D7D7" stroke-width="1" stroke-miterlimit="4" d="M72.2031 384.837L70.2031 384.837"/>
	<path fill="none" stroke="#D7D7D7" stroke-width="1" stroke-miterlimit="4" d="M72.2031 373.059L70.2031 373.059"/>
	<path fill="none" stroke="#D7D7D7" stroke-width="1" stroke-miterlimit="4" d="M72.2031 361.281L70.2031 361.281"/>
	<path fill="none" stroke="#D7D7D7" stroke-width="1" stroke-miterlimit="4" d="M72.2031 349.504L70.2031 349.504"/>
	<path fill="none" stroke="#D7D7D7" stroke-width="1" stroke-miterlimit="4" d="M72.2031 325.948L70.2031 325.948"/>
	<path fill="none" stroke="#D7D7D7" stroke-width="1" stroke-miterlimit="4" d="M72.2031 314.17L70.2031 314.17"/>
	<path fill="none" stroke="#D7D7D7" stroke-width="1" stroke-miterlimit="4" d="M72.2031 302.392L70.2031 302.392"/>
	<path fill="none" stroke="#D7D7D7" stroke-width="1" stroke-miterlimit="4" d="M72.2031 290.614L70.2031 290.614"/>
	<path fill="none" stroke="#D7D7D7" stroke-width="1" stroke-miterlimit="4" d="M72.2031 267.059L70.2031 267.059"/>
	<path fill="none" stroke="#D7D7D7" stroke-width="1" stroke-miterlimit="4" d="M72.2031 255.281L70.2031 255.281"/>
	<path fill="none" stroke="#D7D7D7" stroke-width="1" stroke-miterlimit="4" d="M72.2031 243.503L70.2031 243.503"/>
	<path fill="none" stroke="#D7D7D7" stroke-width="1" stroke-miterlimit="4" d="M72.2031 231.725L70.2031 231.725"/>
	<path fill="none" stroke="#D7D7D7" stroke-width="1" stroke-miterlimit="4" d="M72.2031 208.17L70.2031 208.17"/>
	<path fill="none" stroke="#D7D7D7" stroke-width="1" stroke-miterlimit="4" d="M72.2031 196.392L70.2031 196.392"/>
	<path fill="none" stroke="#D7D7D7" stroke-width="1" stroke-miterlimit="4" d="M72.2031 184.614L70.2031 184.614"/>
	<path fill="none" stroke="#D7D7D7" stroke-width="1" stroke-miterlimit="4" d="M72.2031 172.836L70.2031 172.836"/>
	<path fill="none" stroke="#D7D7D7" stroke-width="1" stroke-miterlimit="4" d="M72.2031 149.281L70.2031 149.281"/>
	<path fill="none" stroke="#D7D7D7" stroke-width="1" stroke-miterlimit="4" d="M72.2031 137.503L70.2031 137.503"/>
	<path fill="none" stroke="#D7D7D7" stroke-width="1" stroke-miterlimit="4" d="M72.2031 125.725L70.2031 125.725"/>
	<path fill="none" stroke="#D7D7D7" stroke-width="1" stroke-miterlimit="4" d="M72.2031 113.947L70.2031 113.947"/>
	<path fill="none" stroke="#D7D7D7" stroke-width="1" stroke-miterlimit="4" d="M72.2031 90.3917L70.2031 90.3917"/>
	<path fill="none" stroke="#D7D7D7" stroke-width="1" stroke-miterlimit="4" d="M72.2031 78.6139L70.2031 78.6139"/>
	<path fill="none" stroke="#D7D7D7" stroke-width="1" stroke-miterlimit="4" d="M72.2031 66.8361L70.2031 66.8361"/>
	<path fill="none" stroke="#D7D7D7" stroke-width="1" stroke-miterlimit="4" d="M72.2031 734.594L72.2031 58.0469"/>
	<path fill="none" stroke="#D7D7D7" stroke-width="1" stroke-miterlimit="4" d="M335 734.594L335 58.0469"/>
	<text fill="#D7D7D7" transform="translate(203.602 43.0469)" font-size="18" font-weight="600" font-family="Khmer Mondulkiri" x="-116.83301, -102.87598, -97.365234, -90.861328, -84.357422, -73.810547, -67.614258, -58.341797, -43.066406, -32.958984, -23.686523, -16.584961, -7.5498047, -1.3535156, 9.0263672, 16.12793, 25.400391, 35.947266, 45.887695, 55.757812, 66.304688, 76.262695, 85.535156, 91.045898, 100.67871, 110.63672, " y="-16.382812, ">
			Diff temperature by height
	</text>
</svg>
