<?xml version="1.0" encoding="utf-8" ?>
<svg xmlns="http://www.w3.org/2000/svg" xmlns:xlink="http://www.w3.org/1999/xlink" width="1000" height="400">
	<rect fill="#181818" width="1000" height="400"/>
	<clipPath id="cl_3">
		<rect x="144.05469" y="69.375" width="825.94531" height="265.21875"/>
	</clipPath>
	<g clip-path="url(#cl_3)">
		<rect fill="#1F1F1F" x="144.05469" y="69.375" width="825.94531" height="265.21875"/>
	</g>
	<path fill="none" stroke="#404040" stroke-width="1" stroke-miterlimit="4" d="M144.055 334.594L144.055 69.375M184.822 334.594L184.822 69.375M225.589 334.594L225.589 69.375M266.357 334.594L266.357 69.375M307.124 334.594L307.124 69.375M347.891 334.594L347.891 69.375M388.658 334.594L388.658 69.375M429.426 334.594L429.426 69.375M470.193 334.594L470.193 69.375M510.96 334.594L510.96 69.375M551.728 334.594L551.728 69.375M592.495 334.594L592.495 69.375M633.262 334.594L633.262 69.375M674.029 334.594L674.029 69.375M714.797 334.594L714.797 69.375M755.564 334.594L755.564 69.375M796.331 334.594L796.331 69.375M837.099 334.594L837.099 69.375M877.866 334.594L877.866 69.375M918.633 334.594L918.633 69.375M959.401 334.594L959.401 69.375"/>
	<path fill="none" stroke="#404040" stroke-width="1" stroke-miterlimit="4" d="M144.055 325.737L970 325.737M144.055 277.162L970 277.162M144.055 228.588L970 228.588M144.055 180.014L970 180.014M144.055 131.439L970 131.439M144.055 82.865L970 82.865"/>
	<clipPath id="cl_4">
		<rect x="144.05469" y="69.375" width="825.94531" height="265.21875"/>
	</clipPath>
	<g clip-path="url(#cl_4)">
		<path fill="none" stroke="#D7D7D7" stroke-width="1" stroke-miterlimit="4" d="M152.208 317.297L160.362 257.047L168.515 269.93L184.822 247.681L201.129 247.714L225.589 254.128L245.973 267.873L266.357 258.959L286.74 256.381L307.124 256.402L327.508 244.927L347.891 229.934L388.658 227.338L429.426 220.469L470.193 217.62L510.96 227.13L551.728 230.581L592.495 232.819L633.262 235.06L674.029 234.172L714.797 231.681L755.564 227.491L775.948 228.716L796.331 224.642L816.715 223.84L837.099 238.649L857.482 197.766L877.866 152.252L898.25 93.2233L918.633 86.6719L939.017 134.832L959.401 228.588"/>
	</g>
	<clipPath id="cl_5">
		<rect x="144.05469" y="69.375" width="825.94531" height="265.21875"/>
	</clipPath>
	<g clip-path="url(#cl_5)">
		<path fill="none" stroke="fuchsia" stroke-width="1" stroke-miterlimit="4" d="M152.208 317.297L160.362 108.978L168.515 147.368L184.822 102.166L201.129 105.611L225.589 108.148L245.973 117.653L266.357 104.904L286.74 98.5736L307.124 93.0579L327.508 102.086L347.891 104.33L388.658 86.6719L429.426 88.8436L470.193 87.8453L510.96 87.4718L551.728 87.0699L592.495 87.0945L633.262 87.0515L674.029 87.049L714.797 87.0476L755.564 87.0181L775.948 87.0135L796.331 87.0287L816.715 87.0331L837.099 87.0136L857.482 87.0183L877.866 87.0397L898.25 87.0293L918.633 87.0297L939.017 87.0336L959.401 87.049"/>
	</g>
	<clipPath id="cl_6">
		<rect x="144.05469" y="69.375" width="825.94531" height="265.21875"/>
	</clipPath>
	<g clip-path="url(#cl_6)">
		<path fill="none" stroke="#00008B" stroke-width="3" stroke-miterlimit="4" d="M347.891 334.594L347.891 69.375"/>
	</g>
	<clipPath id="cl_7">
		<rect x="144.05469" y="69.375" width="825.94531" height="265.21875"/>
	</clipPath>
	<g clip-path="url(#cl_7)">
		<path fill="none" stroke="red" stroke-width="3" stroke-miterlimit="4" d="M959.401 334.594L959.401 69.375"/>
	</g>
	<text fill="#D7D7D7" transform="translate(557.027 396)" font-size="16" font-weight="600" font-family="Khmer Mondulkiri" x="-79.746094, -70.191406, -63.878906, -55.636719, -48.816406, -41.996094, -32.769531, -26.457031, -18.214844, -8.8398438, 1.6679688, 9.9101562, 18.480469, 26.722656, 31.902344, 41.277344, 47.292969, 56.144531, 65.699219, 73.730469, " y="-14.5625, ">
			Pressure Level [hPa]
	</text>
	<path fill="none" stroke="#D7D7D7" stroke-width="1" stroke-miterlimit="4" d="M144.055 334.594L144.055 338.594"/>
	<text fill="#D7D7D7" transform="translate(144.055 340.594)" font-size="12" font-family="Khmer Mondulkiri" x="-3.1640625, " y="11.039062, ">
			0
	</text>
	<path fill="none" stroke="#D7D7D7" stroke-width="1" stroke-miterlimit="4" d="M184.822 334.594L184.822 338.594"/>
	<text fill="#D7D7D7" transform="translate(184.822 340.594)" font-size="12" font-family="Khmer Mondulkiri" x="-6.328125, 0, " y="11.039062, ">
			50
	</text>
	<path fill="none" stroke="#D7D7D7" stroke-width="1" stroke-miterlimit="4" d="M225.589 334.594L225.589 338.594"/>
	<text fill="#D7D7D7" transform="translate(225.589 340.594)" font-size="12" font-family="Khmer Mondulkiri" x="-9.4921875, -3.1640625, 3.1640625, " y="11.039062, ">
			100
	</text>
	<path fill="none" stroke="#D7D7D7" stroke-width="1" stroke-miterlimit="4" d="M266.357 334.594L266.357 338.594"/>
	<text fill="#D7D7D7" transform="translate(266.357 340.594)" font-size="12" font-family="Khmer Mondulkiri" x="-9.4921875, -3.1640625, 3.1640625, " y="11.039062, ">
			150
	</text>
	<path fill="none" stroke="#D7D7D7" stroke-width="1" stroke-miterlimit="4" d="M307.124 334.594L307.124 338.594"/>
	<text fill="#D7D7D7" transform="translate(307.124 340.594)" font-size="12" font-family="Khmer Mondulkiri" x="-9.4921875, -3.1640625, 3.1640625, " y="11.039062, ">
			200
	</text>
	<path fill="none" stroke="#D7D7D7" stroke-width="1" stroke-miterlimit="4" d="M347.891 334.594L347.891 338.594"/>
	<text fill="#D7D7D7" transform="translate(347.891 340.594)" font-size="12" font-family="Khmer Mondulkiri" x="-9.4921875, -3.1640625, 3.1640625, " y="11.039062, ">
			250
	</text>
	<path fill="none" stroke="#D7D7D7" stroke-width="1" stroke-miterlimit="4" d="M388.658 334.594L388.658 338.594"/>
	<text fill="#D7D7D7" transform="translate(388.658 340.594)" font-size="12" font-family="Khmer Mondulkiri" x="-9.4921875, -3.1640625, 3.1640625, " y="11.039062, ">
			300
	</text>
	<path fill="none" stroke="#D7D7D7" stroke-width="1" stroke-miterlimit="4" d="M429.426 334.594L429.426 338.594"/>
	<text fill="#D7D7D7" transform="translate(429.426 340.594)" font-size="12" font-family="Khmer Mondulkiri" x="-9.4921875, -3.1640625, 3.1640625, " y="11.039062, ">
			350
	</text>
	<path fill="none" stroke="#D7D7D7" stroke-width="1" stroke-miterlimit="4" d="M470.193 334.594L470.193 338.594"/>
	<text fill="#D7D7D7" transform="translate(470.193 340.594)" font-size="12" font-family="Khmer Mondulkiri" x="-9.4921875, -3.1640625, 3.1640625, " y="11.039062, ">
			400
	</text>
	<path fill="none" stroke="#D7D7D7" stroke-width="1" stroke-miterlimit="4" d="M510.96 334.594L510.96 338.594"/>
	<text fill="#D7D7D7" transform="translate(510.96 340.594)" font-size="12" font-family="Khmer Mondulkiri" x="-9.4921875, -3.1640625, 3.1640625, " y="11.039062, ">
			450
	</text>
	<path fill="none" stroke="#D7D7D7" stroke-width="1" stroke-miterlimit="4" d="M551.728 334.594L551.728 338.594"/>
	<text fill="#D7D7D7" transform="translate(551.728 340.594)" font-size="12" font-family="Khmer Mondulkiri" x="-9.4921875, -3.1640625, 3.1640625, " y="11.039062, ">
			500
	</text>
	<path fill="none" stroke="#D7D7D7" stroke-width="1" stroke-miterlimit="4" d="M592.495 334.594L592.495 338.594"/>
	<text fill="#D7D7D7" transform="translate(592.495 340.594)" font-size="12" font-family="Khmer Mondulkiri" x="-9.4921875, -3.1640625, 3.1640625, " y="11.039062, ">
			550
	</text>
	<path fill="none" stroke="#D7D7D7" stroke-width="1" stroke-miterlimit="4" d="M633.262 334.594L633.262 338.594"/>
	<text fill="#D7D7D7" transform="translate(633.262 340.594)" font-size="12" font-family="Khmer Mondulkiri" x="-9.4921875, -3.1640625, 3.1640625, " y="11.039062, ">
			600
	</text>
	<path fill="none" stroke="#D7D7D7" stroke-width="1" stroke-miterlimit="4" d="M674.029 334.594L674.029 338.594"/>
	<text fill="#D7D7D7" transform="translate(674.029 340.594)" font-size="12" font-family="Khmer Mondulkiri" x="-9.4921875, -3.1640625, 3.1640625, " y="11.039062, ">
			650
	</text>
	<path fill="none" stroke="#D7D7D7" stroke-width="1" stroke-miterlimit="4" d="M714.797 334.594L714.797 338.594"/>
	<text fill="#D7D7D7" transform="translate(714.797 340.594)" font-size="12" font-family="Khmer Mondulkiri" x="-9.4921875, -3.1640625, 3.1640625, " y="11.039062, ">
			700
	</text>
	<path fill="none" stroke="#D7D7D7" stroke-width="1" stroke-miterlimit="4" d="M755.564 334.594L755.564 338.594"/>
	<text fill="#D7D7D7" transform="translate(755.564 340.594)" font-size="12" font-family="Khmer Mondulkiri" x="-9.4921875, -3.1640625, 3.1640625, " y="11.039062, ">
			750
	</text>
	<path fill="none" stroke="#D7D7D7" stroke-width="1" stroke-miterlimit="4" d="M796.331 334.594L796.331 338.594"/>
	<text fill="#D7D7D7" transform="translate(796.331 340.594)" font-size="12" font-family="Khmer Mondulkiri" x="-9.4921875, -3.1640625, 3.1640625, " y="11.039062, ">
			800
	</text>
	<path fill="none" stroke="#D7D7D7" stroke-width="1" stroke-miterlimit="4" d="M837.099 334.594L837.099 338.594"/>
	<text fill="#D7D7D7" transform="translate(837.099 340.594)" font-size="12" font-family="Khmer Mondulkiri" x="-9.4921875, -3.1640625, 3.1640625, " y="11.039062, ">
			850
	</text>
	<path fill="none" stroke="#D7D7D7" stroke-width="1" stroke-miterlimit="4" d="M877.866 334.594L877.866 338.594"/>
	<text fill="#D7D7D7" transform="translate(877.866 340.594)" font-size="12" font-family="Khmer Mondulkiri" x="-9.4921875, -3.1640625, 3.1640625, " y="11.039062, ">
			900
	</text>
	<path fill="none" stroke="#D7D7D7" stroke-width="1" stroke-miterlimit="4" d="M918.633 334.594L918.633 338.594"/>
	<text fill="#D7D7D7" transform="translate(918.633 340.594)" font-size="12" font-family="Khmer Mondulkiri" x="-9.4921875, -3.1640625, 3.1640625, " y="11.039062, ">
			950
	</text>
	<path fill="none" stroke="#D7D7D7" stroke-width="1" stroke-miterlimit="4" d="M959.401 334.594L959.401 338.594"/>
	<text fill="#D7D7D7" transform="translate(959.401 340.594)" font-size="12" font-family="Khmer Mondulkiri" x="-14.326172, -7.9980469, -4.6582031, 1.6699219, 7.9980469, " y="11.039062, ">
			1,000
	</text>
	<path fill="none" stroke="#D7D7D7" stroke-width="1" stroke-miterlimit="4" d="M152.208 334.594L152.208 336.594"/>
	<path fill="none" stroke="#D7D7D7" stroke-width="1" stroke-miterlimit="4" d="M160.362 334.594L160.362 336.594"/>
	<path fill="none" stroke="#D7D7D7" stroke-width="1" stroke-miterlimit="4" d="M168.515 334.594L168.515 336.594"/>
	<path fill="none" stroke="#D7D7D7" stroke-width="1" stroke-miterlimit="4" d="M176.669 334.594L176.669 336.594"/>
	<path fill="none" stroke="#D7D7D7" stroke-width="1" stroke-miterlimit="4" d="M192.975 334.594L192.975 336.594"/>
	<path fill="none" stroke="#D7D7D7" stroke-width="1" stroke-miterlimit="4" d="M201.129 334.594L201.129 336.594"/>
	<path fill="none" stroke="#D7D7D7" stroke-width="1" stroke-miterlimit="4" d="M209.282 334.594L209.282 336.594"/>
	<path fill="none" stroke="#D7D7D7" stroke-width="1" stroke-miterlimit="4" d="M217.436 334.594L217.436 336.594"/>
	<path fill="none" stroke="#D7D7D7" stroke-width="1" stroke-miterlimit="4" d="M233.743 334.594L233.743 336.594"/>
	<path fill="none" stroke="#D7D7D7" stroke-width="1" stroke-miterlimit="4" d="M241.896 334.594L241.896 336.594"/>
	<path fill="none" stroke="#D7D7D7" stroke-width="1" stroke-miterlimit="4" d="M250.05 334.594L250.05 336.594"/>
	<path fill="none" stroke="#D7D7D7" stroke-width="1" stroke-miterlimit="4" d="M258.203 334.594L258.203 336.594"/>
	<path fill="none" stroke="#D7D7D7" stroke-width="1" stroke-miterlimit="4" d="M274.51 334.594L274.51 336.594"/>
	<path fill="none" stroke="#D7D7D7" stroke-width="1" stroke-miterlimit="4" d="M282.663 334.594L282.663 336.594"/>
	<path fill="none" stroke="#D7D7D7" stroke-width="1" stroke-miterlimit="4" d="M290.817 334.594L290.817 336.594"/>
	<path fill="none" stroke="#D7D7D7" stroke-width="1" stroke-miterlimit="4" d="M298.97 334.594L298.97 336.594"/>
	<path fill="none" stroke="#D7D7D7" stroke-width="1" stroke-miterlimit="4" d="M315.277 334.594L315.277 336.594"/>
	<path fill="none" stroke="#D7D7D7" stroke-width="1" stroke-miterlimit="4" d="M323.431 334.594L323.431 336.594"/>
	<path fill="none" stroke="#D7D7D7" stroke-width="1" stroke-miterlimit="4" d="M331.584 334.594L331.584 336.594"/>
	<path fill="none" stroke="#D7D7D7" stroke-width="1" stroke-miterlimit="4" d="M339.738 334.594L339.738 336.594"/>
	<path fill="none" stroke="#D7D7D7" stroke-width="1" stroke-miterlimit="4" d="M356.045 334.594L356.045 336.594"/>
	<path fill="none" stroke="#D7D7D7" stroke-width="1" stroke-miterlimit="4" d="M364.198 334.594L364.198 336.594"/>
	<path fill="none" stroke="#D7D7D7" stroke-width="1" stroke-miterlimit="4" d="M372.352 334.594L372.352 336.594"/>
	<path fill="none" stroke="#D7D7D7" stroke-width="1" stroke-miterlimit="4" d="M380.505 334.594L380.505 336.594"/>
	<path fill="none" stroke="#D7D7D7" stroke-width="1" stroke-miterlimit="4" d="M396.812 334.594L396.812 336.594"/>
	<path fill="none" stroke="#D7D7D7" stroke-width="1" stroke-miterlimit="4" d="M404.965 334.594L404.965 336.594"/>
	<path fill="none" stroke="#D7D7D7" stroke-width="1" stroke-miterlimit="4" d="M413.119 334.594L413.119 336.594"/>
	<path fill="none" stroke="#D7D7D7" stroke-width="1" stroke-miterlimit="4" d="M421.272 334.594L421.272 336.594"/>
	<path fill="none" stroke="#D7D7D7" stroke-width="1" stroke-miterlimit="4" d="M437.579 334.594L437.579 336.594"/>
	<path fill="none" stroke="#D7D7D7" stroke-width="1" stroke-miterlimit="4" d="M445.733 334.594L445.733 336.594"/>
	<path fill="none" stroke="#D7D7D7" stroke-width="1" stroke-miterlimit="4" d="M453.886 334.594L453.886 336.594"/>
	<path fill="none" stroke="#D7D7D7" stroke-width="1" stroke-miterlimit="4" d="M462.04 334.594L462.04 336.594"/>
	<path fill="none" stroke="#D7D7D7" stroke-width="1" stroke-miterlimit="4" d="M478.346 334.594L478.346 336.594"/>
	<path fill="none" stroke="#D7D7D7" stroke-width="1" stroke-miterlimit="4" d="M486.5 334.594L486.5 336.594"/>
	<path fill="none" stroke="#D7D7D7" stroke-width="1" stroke-miterlimit="4" d="M494.653 334.594L494.653 336.594"/>
	<path fill="none" stroke="#D7D7D7" stroke-width="1" stroke-miterlimit="4" d="M502.807 334.594L502.807 336.594"/>
	<path fill="none" stroke="#D7D7D7" stroke-width="1" stroke-miterlimit="4" d="M519.114 334.594L519.114 336.594"/>
	<path fill="none" stroke="#D7D7D7" stroke-width="1" stroke-miterlimit="4" d="M527.267 334.594L527.267 336.594"/>
	<path fill="none" stroke="#D7D7D7" stroke-width="1" stroke-miterlimit="4" d="M535.421 334.594L535.421 336.594"/>
	<path fill="none" stroke="#D7D7D7" stroke-width="1" stroke-miterlimit="4" d="M543.574 334.594L543.574 336.594"/>
	<path fill="none" stroke="#D7D7D7" stroke-width="1" stroke-miterlimit="4" d="M559.881 334.594L559.881 336.594"/>
	<path fill="none" stroke="#D7D7D7" stroke-width="1" stroke-miterlimit="4" d="M568.035 334.594L568.035 336.594"/>
	<path fill="none" stroke="#D7D7D7" stroke-width="1" stroke-miterlimit="4" d="M576.188 334.594L576.188 336.594"/>
	<path fill="none" stroke="#D7D7D7" stroke-width="1" stroke-miterlimit="4" d="M584.341 334.594L584.341 336.594"/>
	<path fill="none" stroke="#D7D7D7" stroke-width="1" stroke-miterlimit="4" d="M600.648 334.594L600.648 336.594"/>
	<path fill="none" stroke="#D7D7D7" stroke-width="1" stroke-miterlimit="4" d="M608.802 334.594L608.802 336.594"/>
	<path fill="none" stroke="#D7D7D7" stroke-width="1" stroke-miterlimit="4" d="M616.955 334.594L616.955 336.594"/>
	<path fill="none" stroke="#D7D7D7" stroke-width="1" stroke-miterlimit="4" d="M625.109 334.594L625.109 336.594"/>
	<path fill="none" stroke="#D7D7D7" stroke-width="1" stroke-miterlimit="4" d="M641.416 334.594L641.416 336.594"/>
	<path fill="none" stroke="#D7D7D7" stroke-width="1" stroke-miterlimit="4" d="M649.569 334.594L649.569 336.594"/>
	<path fill="none" stroke="#D7D7D7" stroke-width="1" stroke-miterlimit="4" d="M657.723 334.594L657.723 336.594"/>
	<path fill="none" stroke="#D7D7D7" stroke-width="1" stroke-miterlimit="4" d="M665.876 334.594L665.876 336.594"/>
	<path fill="none" stroke="#D7D7D7" stroke-width="1" stroke-miterlimit="4" d="M682.183 334.594L682.183 336.594"/>
	<path fill="none" stroke="#D7D7D7" stroke-width="1" stroke-miterlimit="4" d="M690.336 334.594L690.336 336.594"/>
	<path fill="none" stroke="#D7D7D7" stroke-width="1" stroke-miterlimit="4" d="M698.49 334.594L698.49 336.594"/>
	<path fill="none" stroke="#D7D7D7" stroke-width="1" stroke-miterlimit="4" d="M706.643 334.594L706.643 336.594"/>
	<path fill="none" stroke="#D7D7D7" stroke-width="1" stroke-miterlimit="4" d="M722.95 334.594L722.95 336.594"/>
	<path fill="none" stroke="#D7D7D7" stroke-width="1" stroke-miterlimit="4" d="M731.104 334.594L731.104 336.594"/>
	<path fill="none" stroke="#D7D7D7" stroke-width="1" stroke-miterlimit="4" d="M739.257 334.594L739.257 336.594"/>
	<path fill="none" stroke="#D7D7D7" stroke-width="1" stroke-miterlimit="4" d="M747.411 334.594L747.411 336.594"/>
	<path fill="none" stroke="#D7D7D7" stroke-width="1" stroke-miterlimit="4" d="M763.718 334.594L763.718 336.594"/>
	<path fill="none" stroke="#D7D7D7" stroke-width="1" stroke-miterlimit="4" d="M771.871 334.594L771.871 336.594"/>
	<path fill="none" stroke="#D7D7D7" stroke-width="1" stroke-miterlimit="4" d="M780.024 334.594L780.024 336.594"/>
	<path fill="none" stroke="#D7D7D7" stroke-width="1" stroke-miterlimit="4" d="M788.178 334.594L788.178 336.594"/>
	<path fill="none" stroke="#D7D7D7" stroke-width="1" stroke-miterlimit="4" d="M804.485 334.594L804.485 336.594"/>
	<path fill="none" stroke="#D7D7D7" stroke-width="1" stroke-miterlimit="4" d="M812.638 334.594L812.638 336.594"/>
	<path fill="none" stroke="#D7D7D7" stroke-width="1" stroke-miterlimit="4" d="M820.792 334.594L820.792 336.594"/>
	<path fill="none" stroke="#D7D7D7" stroke-width="1" stroke-miterlimit="4" d="M828.945 334.594L828.945 336.594"/>
	<path fill="none" stroke="#D7D7D7" stroke-width="1" stroke-miterlimit="4" d="M845.252 334.594L845.252 336.594"/>
	<path fill="none" stroke="#D7D7D7" stroke-width="1" stroke-miterlimit="4" d="M853.406 334.594L853.406 336.594"/>
	<path fill="none" stroke="#D7D7D7" stroke-width="1" stroke-miterlimit="4" d="M861.559 334.594L861.559 336.594"/>
	<path fill="none" stroke="#D7D7D7" stroke-width="1" stroke-miterlimit="4" d="M869.712 334.594L869.712 336.594"/>
	<path fill="none" stroke="#D7D7D7" stroke-width="1" stroke-miterlimit="4" d="M886.019 334.594L886.019 336.594"/>
	<path fill="none" stroke="#D7D7D7" stroke-width="1" stroke-miterlimit="4" d="M894.173 334.594L894.173 336.594"/>
	<path fill="none" stroke="#D7D7D7" stroke-width="1" stroke-miterlimit="4" d="M902.326 334.594L902.326 336.594"/>
	<path fill="none" stroke="#D7D7D7" stroke-width="1" stroke-miterlimit="4" d="M910.48 334.594L910.48 336.594"/>
	<path fill="none" stroke="#D7D7D7" stroke-width="1" stroke-miterlimit="4" d="M926.787 334.594L926.787 336.594"/>
	<path fill="none" stroke="#D7D7D7" stroke-width="1" stroke-miterlimit="4" d="M934.94 334.594L934.94 336.594"/>
	<path fill="none" stroke="#D7D7D7" stroke-width="1" stroke-miterlimit="4" d="M943.094 334.594L943.094 336.594"/>
	<path fill="none" stroke="#D7D7D7" stroke-width="1" stroke-miterlimit="4" d="M951.247 334.594L951.247 336.594"/>
	<path fill="none" stroke="#D7D7D7" stroke-width="1" stroke-miterlimit="4" d="M967.554 334.594L967.554 336.594"/>
	<path fill="none" stroke="#D7D7D7" stroke-width="1" stroke-miterlimit="4" d="M144.055 334.594L970 334.594"/>
	<path fill="none" stroke="#D7D7D7" stroke-width="1" stroke-miterlimit="4" d="M144.055 69.475L970 69.475"/>
	<text fill="#D7D7D7" transform="matrix(0 -1 1 0 82.3555 201.984)" font-size="16" font-weight="600" font-family="Khmer Mondulkiri" x="-53.367188, -44.398438, -34.34375, -24.8125, -15.84375, -6.859375, 2.515625, 8.53125, 17.5, 25.742188, 34.304688, 47.351562, " y="14.8125, ">
			dT/dp [degK]
	</text>
	<path fill="none" stroke="#D7D7D7" stroke-width="1" stroke-miterlimit="4" d="M144.055 325.737L140.055 325.737"/>
	<text fill="#D7D7D7" transform="translate(135.055 325.737)" font-size="12" font-family="Khmer Mondulkiri" x="-22.324219, -16.171875, -9.84375, -6.328125, " y="0.0234375, ">
			-0.4
	</text>
	<path fill="none" stroke="#D7D7D7" stroke-width="1" stroke-miterlimit="4" d="M144.055 277.162L140.055 277.162"/>
	<text fill="#D7D7D7" transform="translate(135.055 277.162)" font-size="12" font-family="Khmer Mondulkiri" x="-22.324219, -16.171875, -9.84375, -6.328125, " y="0.0234375, ">
			-0.2
	</text>
	<path fill="none" stroke="#D7D7D7" stroke-width="1" stroke-miterlimit="4" d="M144.055 228.588L140.055 228.588"/>
	<text fill="#D7D7D7" transform="translate(135.055 228.588)" font-size="12" font-family="Khmer Mondulkiri" x="-6.328125, " y="0.0234375, ">
			0
	</text>
	<path fill="none" stroke="#D7D7D7" stroke-width="1" stroke-miterlimit="4" d="M144.055 180.014L140.055 180.014"/>
	<text fill="#D7D7D7" transform="translate(135.055 180.014)" font-size="12" font-family="Khmer Mondulkiri" x="-16.171875, -9.84375, -6.328125, " y="0.0234375, ">
			0.2
	</text>
	<path fill="none" stroke="#D7D7D7" stroke-width="1" stroke-miterlimit="4" d="M144.055 131.439L140.055 131.439"/>
	<text fill="#D7D7D7" transform="translate(135.055 131.439)" font-size="12" font-family="Khmer Mondulkiri" x="-16.171875, -9.84375, -6.328125, " y="0.0234375, ">
			0.4
	</text>
	<path fill="none" stroke="#D7D7D7" stroke-width="1" stroke-miterlimit="4" d="M144.055 82.865L140.055 82.865"/>
	<text fill="#D7D7D7" transform="translate(135.055 82.865)" font-size="12" font-family="Khmer Mondulkiri" x="-16.171875, -9.84375, -6.328125, " y="0.0234375, ">
			0.6
	</text>
	<path fill="none" stroke="#D7D7D7" stroke-width="1" stroke-miterlimit="4" d="M144.055 316.022L142.055 316.022"/>
	<path fill="none" stroke="#D7D7D7" stroke-width="1" stroke-miterlimit="4" d="M144.055 306.307L142.055 306.307"/>
	<path fill="none" stroke="#D7D7D7" stroke-width="1" stroke-miterlimit="4" d="M144.055 296.592L142.055 296.592"/>
	<path fill="none" stroke="#D7D7D7" stroke-width="1" stroke-miterlimit="4" d="M144.055 286.877L142.055 286.877"/>
	<path fill="none" stroke="#D7D7D7" stroke-width="1" stroke-miterlimit="4" d="M144.055 267.448L142.055 267.448"/>
	<path fill="none" stroke="#D7D7D7" stroke-width="1" stroke-miterlimit="4" d="M144.055 257.733L142.055 257.733"/>
	<path fill="none" stroke="#D7D7D7" stroke-width="1" stroke-miterlimit="4" d="M144.055 248.018L142.055 248.018"/>
	<path fill="none" stroke="#D7D7D7" stroke-width="1" stroke-miterlimit="4" d="M144.055 238.303L142.055 238.303"/>
	<path fill="none" stroke="#D7D7D7" stroke-width="1" stroke-miterlimit="4" d="M144.055 218.873L142.055 218.873"/>
	<path fill="none" stroke="#D7D7D7" stroke-width="1" stroke-miterlimit="4" d="M144.055 209.158L142.055 209.158"/>
	<path fill="none" stroke="#D7D7D7" stroke-width="1" stroke-miterlimit="4" d="M144.055 199.443L142.055 199.443"/>
	<path fill="none" stroke="#D7D7D7" stroke-width="1" stroke-miterlimit="4" d="M144.055 189.729L142.055 189.729"/>
	<path fill="none" stroke="#D7D7D7" stroke-width="1" stroke-miterlimit="4" d="M144.055 170.299L142.055 170.299"/>
	<path fill="none" stroke="#D7D7D7" stroke-width="1" stroke-miterlimit="4" d="M144.055 160.584L142.055 160.584"/>
	<path fill="none" stroke="#D7D7D7" stroke-width="1" stroke-miterlimit="4" d="M144.055 150.869L142.055 150.869"/>
	<path fill="none" stroke="#D7D7D7" stroke-width="1" stroke-miterlimit="4" d="M144.055 141.154L142.055 141.154"/>
	<path fill="none" stroke="#D7D7D7" stroke-width="1" stroke-miterlimit="4" d="M144.055 121.724L142.055 121.724"/>
	<path fill="none" stroke="#D7D7D7" stroke-width="1" stroke-miterlimit="4" d="M144.055 112.01L142.055 112.01"/>
	<path fill="none" stroke="#D7D7D7" stroke-width="1" stroke-miterlimit="4" d="M144.055 102.295L142.055 102.295"/>
	<path fill="none" stroke="#D7D7D7" stroke-width="1" stroke-miterlimit="4" d="M144.055 92.5799L142.055 92.5799"/>
	<path fill="none" stroke="#D7D7D7" stroke-width="1" stroke-miterlimit="4" d="M144.055 73.1501L142.055 73.1501"/>
	<path fill="none" stroke="#D7D7D7" stroke-width="1" stroke-miterlimit="4" d="M144.055 334.594L144.055 69.375"/>
	<path fill="none" stroke="#D7D7D7" stroke-width="1" stroke-miterlimit="4" d="M970 334.594L970 69.375"/>
	<text fill="fuchsia" transform="matrix(0 -1 1 0 4 201.984)" font-size="16" font-weight="600" font-family="Khmer Mondulkiri" x="-53.230469, -44.261719, -35.363281, -25.832031, -16.863281, -7.8789062, 1.4960938, 7.5117188, 16.074219, 25.605469, 38.652344, 47.214844, " y="14.8125, ">
			dq/dp [g/Kg]
	</text>
	<path fill="none" stroke="fuchsia" stroke-width="1" stroke-miterlimit="4" d="M78.3555 298.634L74.3555 298.634"/>
	<text fill="fuchsia" transform="translate(69.3555 298.634)" font-size="12" font-family="Khmer Mondulkiri" x="-28.652344, -22.5, -16.171875, -12.65625, -6.328125, " y="0.0234375, ">
			-0.04
	</text>
	<path fill="none" stroke="fuchsia" stroke-width="1" stroke-miterlimit="4" d="M78.3555 245.738L74.3555 245.738"/>
	<text fill="fuchsia" transform="translate(69.3555 245.738)" font-size="12" font-family="Khmer Mondulkiri" x="-28.652344, -22.5, -16.171875, -12.65625, -6.328125, " y="0.0234375, ">
			-0.03
	</text>
	<path fill="none" stroke="fuchsia" stroke-width="1" stroke-miterlimit="4" d="M78.3555 192.841L74.3555 192.841"/>
	<text fill="fuchsia" transform="translate(69.3555 192.841)" font-size="12" font-family="Khmer Mondulkiri" x="-28.652344, -22.5, -16.171875, -12.65625, -6.328125, " y="0.0234375, ">
			-0.02
	</text>
	<path fill="none" stroke="fuchsia" stroke-width="1" stroke-miterlimit="4" d="M78.3555 139.945L74.3555 139.945"/>
	<text fill="fuchsia" transform="translate(69.3555 139.945)" font-size="12" font-family="Khmer Mondulkiri" x="-28.652344, -22.5, -16.171875, -12.65625, -6.328125, " y="0.0234375, ">
			-0.01
	</text>
	<path fill="none" stroke="fuchsia" stroke-width="1" stroke-miterlimit="4" d="M78.3555 87.049L74.3555 87.049"/>
	<text fill="fuchsia" transform="translate(69.3555 87.049)" font-size="12" font-family="Khmer Mondulkiri" x="-6.328125, " y="0.0234375, ">
			0
	</text>
	<path fill="none" stroke="fuchsia" stroke-width="1" stroke-miterlimit="4" d="M78.3555 330.371L76.3555 330.371"/>
	<path fill="none" stroke="fuchsia" stroke-width="1" stroke-miterlimit="4" d="M78.3555 319.792L76.3555 319.792"/>
	<path fill="none" stroke="fuchsia" stroke-width="1" stroke-miterlimit="4" d="M78.3555 309.213L76.3555 309.213"/>
	<path fill="none" stroke="fuchsia" stroke-width="1" stroke-miterlimit="4" d="M78.3555 288.054L76.3555 288.054"/>
	<path fill="none" stroke="fuchsia" stroke-width="1" stroke-miterlimit="4" d="M78.3555 277.475L76.3555 277.475"/>
	<path fill="none" stroke="fuchsia" stroke-width="1" stroke-miterlimit="4" d="M78.3555 266.896L76.3555 266.896"/>
	<path fill="none" stroke="fuchsia" stroke-width="1" stroke-miterlimit="4" d="M78.3555 256.317L76.3555 256.317"/>
	<path fill="none" stroke="fuchsia" stroke-width="1" stroke-miterlimit="4" d="M78.3555 235.158L76.3555 235.158"/>
	<path fill="none" stroke="fuchsia" stroke-width="1" stroke-miterlimit="4" d="M78.3555 224.579L76.3555 224.579"/>
	<path fill="none" stroke="fuchsia" stroke-width="1" stroke-miterlimit="4" d="M78.3555 214L76.3555 214"/>
	<path fill="none" stroke="fuchsia" stroke-width="1" stroke-miterlimit="4" d="M78.3555 203.421L76.3555 203.421"/>
	<path fill="none" stroke="fuchsia" stroke-width="1" stroke-miterlimit="4" d="M78.3555 182.262L76.3555 182.262"/>
	<path fill="none" stroke="fuchsia" stroke-width="1" stroke-miterlimit="4" d="M78.3555 171.683L76.3555 171.683"/>
	<path fill="none" stroke="fuchsia" stroke-width="1" stroke-miterlimit="4" d="M78.3555 161.104L76.3555 161.104"/>
	<path fill="none" stroke="fuchsia" stroke-width="1" stroke-miterlimit="4" d="M78.3555 150.524L76.3555 150.524"/>
	<path fill="none" stroke="fuchsia" stroke-width="1" stroke-miterlimit="4" d="M78.3555 129.366L76.3555 129.366"/>
	<path fill="none" stroke="fuchsia" stroke-width="1" stroke-miterlimit="4" d="M78.3555 118.787L76.3555 118.787"/>
	<path fill="none" stroke="fuchsia" stroke-width="1" stroke-miterlimit="4" d="M78.3555 108.207L76.3555 108.207"/>
	<path fill="none" stroke="fuchsia" stroke-width="1" stroke-miterlimit="4" d="M78.3555 97.6282L76.3555 97.6282"/>
	<path fill="none" stroke="fuchsia" stroke-width="1" stroke-miterlimit="4" d="M78.3555 76.4698L76.3555 76.4698"/>
	<path fill="none" stroke="fuchsia" stroke-width="1" stroke-miterlimit="4" d="M78.3555 334.594L78.3555 69.375"/>
	<text fill="#D7D7D7" transform="translate(557.027 39.375)" font-size="16" font-weight="600" font-family="Khmer Mondulkiri" x="-269.05469, -252.95312, -244.71094, -235.74219, -226.46094, -218.21875, -211.39844, -202.42969, -194.39844, -185.625, -181.17969, -171.80469, -162.77344, -154.30469, -144.92969, -137.86719, -128.64062, -119.35938, -111.11719, -101.74219, -93.273438, -84.515625, -75.773438, -67.03125, -48.28125, -37.773438, -29.742188, -24.234375, -17.59375, -8.8359375, 0.1953125, 4.8828125, 13.914062, 22.945312, 32.320312, 42.828125, 51.664062, 60.945312, 67.585938, 76.617188, 85.648438, 90.335938, 99.367188, 108.39844, 127.14844, 137.65625, 145.89844, 154.46875, 162.71094, 167.89062, 174.71094, 181.35156, 189.82031, 198.85156, 207.05469, 215.52344, 224.55469, 233.58594, 242.61719, 251.46875, 261.02344, " y="-14.5625, ">
			Wednesday, 01 June 1966 Lat:90.00 Lon:00.00 Levels:10-1000hPa
	</text>
	<rect fill="#00008B" transform="translate(347.891 64.375)" x="-34.674805" y="-30.703125" width="69.349609" height="35.703125"/>
	<text fill="white" transform="translate(347.891 64.375)" font-size="14" font-weight="600" font-family="Khmer Mondulkiri" x="-29.674805, -19.461914, -8.3740234, 0.8203125, 11.675781, 18.887695, 24.855469, " y="-12.742188, ">
			COLDest
	</text>
	<rect fill="red" transform="translate(959.401 64.375)" x="-29.438477" y="-30.703125" width="58.876953" height="35.703125"/>
	<text fill="white" transform="translate(959.401 64.375)" font-size="14" font-weight="600" font-family="Khmer Mondulkiri" x="-24.438477, -13.446289, -2.3583984, 6.4394531, 13.651367, 19.619141, " y="-12.742188, ">
			HOTest
	</text>
</svg>
