<?xml version="1.0" encoding="utf-8" ?>
<svg xmlns="http://www.w3.org/2000/svg" xmlns:xlink="http://www.w3.org/1999/xlink" width="1000" height="400">
	<rect fill="#181818" width="1000" height="400"/>
	<clipPath id="cl_3">
		<rect x="144.05469" y="69.375" width="825.94531" height="265.21875"/>
	</clipPath>
	<g clip-path="url(#cl_3)">
		<rect fill="#1F1F1F" x="144.05469" y="69.375" width="825.94531" height="265.21875"/>
	</g>
	<path fill="none" stroke="#404040" stroke-width="1" stroke-miterlimit="4" d="M144.055 334.594L144.055 69.375M184.822 334.594L184.822 69.375M225.589 334.594L225.589 69.375M266.357 334.594L266.357 69.375M307.124 334.594L307.124 69.375M347.891 334.594L347.891 69.375M388.658 334.594L388.658 69.375M429.426 334.594L429.426 69.375M470.193 334.594L470.193 69.375M510.96 334.594L510.96 69.375M551.728 334.594L551.728 69.375M592.495 334.594L592.495 69.375M633.262 334.594L633.262 69.375M674.029 334.594L674.029 69.375M714.797 334.594L714.797 69.375M755.564 334.594L755.564 69.375M796.331 334.594L796.331 69.375M837.099 334.594L837.099 69.375M877.866 334.594L877.866 69.375M918.633 334.594L918.633 69.375M959.401 334.594L959.401 69.375"/>
	<path fill="none" stroke="#404040" stroke-width="1" stroke-miterlimit="4" d="M144.055 291.463L970 291.463M144.055 243.064L970 243.064M144.055 194.666L970 194.666M144.055 146.267L970 146.267M144.055 97.8683L970 97.8683"/>
	<clipPath id="cl_4">
		<rect x="144.05469" y="69.375" width="825.94531" height="265.21875"/>
	</clipPath>
	<g clip-path="url(#cl_4)">
		<path fill="none" stroke="#D7D7D7" stroke-width="1" stroke-miterlimit="4" d="M152.208 317.297L160.362 265.692L168.515 272.882L184.822 259.211L201.129 254.566L225.589 277.17L245.973 219.15L266.357 199.61L286.74 271.707L307.124 271.608L327.508 284.698L347.891 281.227L388.658 270.436L429.426 276.106L470.193 275.373L510.96 257.439L551.728 234.669L592.495 239.961L633.262 245.458L674.029 252.854L714.797 249.075L755.564 280.308L775.948 286.538L796.331 290.443L816.715 284.508L837.099 207.566L857.482 189.005L877.866 224.39L898.25 157.265L918.633 154.395L939.017 86.6719L959.401 243.064"/>
	</g>
	<clipPath id="cl_5">
		<rect x="144.05469" y="69.375" width="825.94531" height="265.21875"/>
	</clipPath>
	<g clip-path="url(#cl_5)">
		<path fill="none" stroke="fuchsia" stroke-width="1" stroke-miterlimit="4" d="M152.208 208.244L160.362 210.842L168.515 209.313L184.822 211.727L201.129 203.913L225.589 238.987L245.973 107.849L266.357 86.6719L286.74 173.028L307.124 226.838L327.508 317.297L347.891 264.714L388.658 231.797L429.426 229.449L470.193 214.632L510.96 211.265L551.728 209.653L592.495 211.126L633.262 210.855L674.029 210.412L714.797 210.008L755.564 209.982L775.948 209.763L796.331 210.157L816.715 209.668L837.099 208.941L857.482 209.682L877.866 209.94L898.25 210.004L918.633 210.082L939.017 210.248L959.401 209.986"/>
	</g>
	<clipPath id="cl_6">
		<rect x="144.05469" y="69.375" width="825.94531" height="265.21875"/>
	</clipPath>
	<g clip-path="url(#cl_6)">
		<path fill="none" stroke="#00008B" stroke-width="3" stroke-miterlimit="4" d="M837.099 334.594L837.099 69.375"/>
	</g>
	<clipPath id="cl_7">
		<rect x="144.05469" y="69.375" width="825.94531" height="265.21875"/>
	</clipPath>
	<g clip-path="url(#cl_7)">
		<path fill="none" stroke="red" stroke-width="3" stroke-miterlimit="4" d="M152.208 334.594L152.208 69.375"/>
	</g>
	<text fill="#D7D7D7" transform="translate(557.027 396)" font-size="16" font-weight="600" font-family="Khmer Mondulkiri" x="-79.746094, -70.191406, -63.878906, -55.636719, -48.816406, -41.996094, -32.769531, -26.457031, -18.214844, -8.8398438, 1.6679688, 9.9101562, 18.480469, 26.722656, 31.902344, 41.277344, 47.292969, 56.144531, 65.699219, 73.730469, " y="-14.5625, ">
			Pressure Level [hPa]
	</text>
	<path fill="none" stroke="#D7D7D7" stroke-width="1" stroke-miterlimit="4" d="M144.055 334.594L144.055 338.594"/>
	<text fill="#D7D7D7" transform="translate(144.055 340.594)" font-size="12" font-family="Khmer Mondulkiri" x="-3.1640625, " y="11.039062, ">
			0
	</text>
	<path fill="none" stroke="#D7D7D7" stroke-width="1" stroke-miterlimit="4" d="M184.822 334.594L184.822 338.594"/>
	<text fill="#D7D7D7" transform="translate(184.822 340.594)" font-size="12" font-family="Khmer Mondulkiri" x="-6.328125, 0, " y="11.039062, ">
			50
	</text>
	<path fill="none" stroke="#D7D7D7" stroke-width="1" stroke-miterlimit="4" d="M225.589 334.594L225.589 338.594"/>
	<text fill="#D7D7D7" transform="translate(225.589 340.594)" font-size="12" font-family="Khmer Mondulkiri" x="-9.4921875, -3.1640625, 3.1640625, " y="11.039062, ">
			100
	</text>
	<path fill="none" stroke="#D7D7D7" stroke-width="1" stroke-miterlimit="4" d="M266.357 334.594L266.357 338.594"/>
	<text fill="#D7D7D7" transform="translate(266.357 340.594)" font-size="12" font-family="Khmer Mondulkiri" x="-9.4921875, -3.1640625, 3.1640625, " y="11.039062, ">
			150
	</text>
	<path fill="none" stroke="#D7D7D7" stroke-width="1" stroke-miterlimit="4" d="M307.124 334.594L307.124 338.594"/>
	<text fill="#D7D7D7" transform="translate(307.124 340.594)" font-size="12" font-family="Khmer Mondulkiri" x="-9.4921875, -3.1640625, 3.1640625, " y="11.039062, ">
			200
	</text>
	<path fill="none" stroke="#D7D7D7" stroke-width="1" stroke-miterlimit="4" d="M347.891 334.594L347.891 338.594"/>
	<text fill="#D7D7D7" transform="translate(347.891 340.594)" font-size="12" font-family="Khmer Mondulkiri" x="-9.4921875, -3.1640625, 3.1640625, " y="11.039062, ">
			250
	</text>
	<path fill="none" stroke="#D7D7D7" stroke-width="1" stroke-miterlimit="4" d="M388.658 334.594L388.658 338.594"/>
	<text fill="#D7D7D7" transform="translate(388.658 340.594)" font-size="12" font-family="Khmer Mondulkiri" x="-9.4921875, -3.1640625, 3.1640625, " y="11.039062, ">
			300
	</text>
	<path fill="none" stroke="#D7D7D7" stroke-width="1" stroke-miterlimit="4" d="M429.426 334.594L429.426 338.594"/>
	<text fill="#D7D7D7" transform="translate(429.426 340.594)" font-size="12" font-family="Khmer Mondulkiri" x="-9.4921875, -3.1640625, 3.1640625, " y="11.039062, ">
			350
	</text>
	<path fill="none" stroke="#D7D7D7" stroke-width="1" stroke-miterlimit="4" d="M470.193 334.594L470.193 338.594"/>
	<text fill="#D7D7D7" transform="translate(470.193 340.594)" font-size="12" font-family="Khmer Mondulkiri" x="-9.4921875, -3.1640625, 3.1640625, " y="11.039062, ">
			400
	</text>
	<path fill="none" stroke="#D7D7D7" stroke-width="1" stroke-miterlimit="4" d="M510.96 334.594L510.96 338.594"/>
	<text fill="#D7D7D7" transform="translate(510.96 340.594)" font-size="12" font-family="Khmer Mondulkiri" x="-9.4921875, -3.1640625, 3.1640625, " y="11.039062, ">
			450
	</text>
	<path fill="none" stroke="#D7D7D7" stroke-width="1" stroke-miterlimit="4" d="M551.728 334.594L551.728 338.594"/>
	<text fill="#D7D7D7" transform="translate(551.728 340.594)" font-size="12" font-family="Khmer Mondulkiri" x="-9.4921875, -3.1640625, 3.1640625, " y="11.039062, ">
			500
	</text>
	<path fill="none" stroke="#D7D7D7" stroke-width="1" stroke-miterlimit="4" d="M592.495 334.594L592.495 338.594"/>
	<text fill="#D7D7D7" transform="translate(592.495 340.594)" font-size="12" font-family="Khmer Mondulkiri" x="-9.4921875, -3.1640625, 3.1640625, " y="11.039062, ">
			550
	</text>
	<path fill="none" stroke="#D7D7D7" stroke-width="1" stroke-miterlimit="4" d="M633.262 334.594L633.262 338.594"/>
	<text fill="#D7D7D7" transform="translate(633.262 340.594)" font-size="12" font-family="Khmer Mondulkiri" x="-9.4921875, -3.1640625, 3.1640625, " y="11.039062, ">
			600
	</text>
	<path fill="none" stroke="#D7D7D7" stroke-width="1" stroke-miterlimit="4" d="M674.029 334.594L674.029 338.594"/>
	<text fill="#D7D7D7" transform="translate(674.029 340.594)" font-size="12" font-family="Khmer Mondulkiri" x="-9.4921875, -3.1640625, 3.1640625, " y="11.039062, ">
			650
	</text>
	<path fill="none" stroke="#D7D7D7" stroke-width="1" stroke-miterlimit="4" d="M714.797 334.594L714.797 338.594"/>
	<text fill="#D7D7D7" transform="translate(714.797 340.594)" font-size="12" font-family="Khmer Mondulkiri" x="-9.4921875, -3.1640625, 3.1640625, " y="11.039062, ">
			700
	</text>
	<path fill="none" stroke="#D7D7D7" stroke-width="1" stroke-miterlimit="4" d="M755.564 334.594L755.564 338.594"/>
	<text fill="#D7D7D7" transform="translate(755.564 340.594)" font-size="12" font-family="Khmer Mondulkiri" x="-9.4921875, -3.1640625, 3.1640625, " y="11.039062, ">
			750
	</text>
	<path fill="none" stroke="#D7D7D7" stroke-width="1" stroke-miterlimit="4" d="M796.331 334.594L796.331 338.594"/>
	<text fill="#D7D7D7" transform="translate(796.331 340.594)" font-size="12" font-family="Khmer Mondulkiri" x="-9.4921875, -3.1640625, 3.1640625, " y="11.039062, ">
			800
	</text>
	<path fill="none" stroke="#D7D7D7" stroke-width="1" stroke-miterlimit="4" d="M837.099 334.594L837.099 338.594"/>
	<text fill="#D7D7D7" transform="translate(837.099 340.594)" font-size="12" font-family="Khmer Mondulkiri" x="-9.4921875, -3.1640625, 3.1640625, " y="11.039062, ">
			850
	</text>
	<path fill="none" stroke="#D7D7D7" stroke-width="1" stroke-miterlimit="4" d="M877.866 334.594L877.866 338.594"/>
	<text fill="#D7D7D7" transform="translate(877.866 340.594)" font-size="12" font-family="Khmer Mondulkiri" x="-9.4921875, -3.1640625, 3.1640625, " y="11.039062, ">
			900
	</text>
	<path fill="none" stroke="#D7D7D7" stroke-width="1" stroke-miterlimit="4" d="M918.633 334.594L918.633 338.594"/>
	<text fill="#D7D7D7" transform="translate(918.633 340.594)" font-size="12" font-family="Khmer Mondulkiri" x="-9.4921875, -3.1640625, 3.1640625, " y="11.039062, ">
			950
	</text>
	<path fill="none" stroke="#D7D7D7" stroke-width="1" stroke-miterlimit="4" d="M959.401 334.594L959.401 338.594"/>
	<text fill="#D7D7D7" transform="translate(959.401 340.594)" font-size="12" font-family="Khmer Mondulkiri" x="-14.326172, -7.9980469, -4.6582031, 1.6699219, 7.9980469, " y="11.039062, ">
			1,000
	</text>
	<path fill="none" stroke="#D7D7D7" stroke-width="1" stroke-miterlimit="4" d="M152.208 334.594L152.208 336.594"/>
	<path fill="none" stroke="#D7D7D7" stroke-width="1" stroke-miterlimit="4" d="M160.362 334.594L160.362 336.594"/>
	<path fill="none" stroke="#D7D7D7" stroke-width="1" stroke-miterlimit="4" d="M168.515 334.594L168.515 336.594"/>
	<path fill="none" stroke="#D7D7D7" stroke-width="1" stroke-miterlimit="4" d="M176.669 334.594L176.669 336.594"/>
	<path fill="none" stroke="#D7D7D7" stroke-width="1" stroke-miterlimit="4" d="M192.975 334.594L192.975 336.594"/>
	<path fill="none" stroke="#D7D7D7" stroke-width="1" stroke-miterlimit="4" d="M201.129 334.594L201.129 336.594"/>
	<path fill="none" stroke="#D7D7D7" stroke-width="1" stroke-miterlimit="4" d="M209.282 334.594L209.282 336.594"/>
	<path fill="none" stroke="#D7D7D7" stroke-width="1" stroke-miterlimit="4" d="M217.436 334.594L217.436 336.594"/>
	<path fill="none" stroke="#D7D7D7" stroke-width="1" stroke-miterlimit="4" d="M233.743 334.594L233.743 336.594"/>
	<path fill="none" stroke="#D7D7D7" stroke-width="1" stroke-miterlimit="4" d="M241.896 334.594L241.896 336.594"/>
	<path fill="none" stroke="#D7D7D7" stroke-width="1" stroke-miterlimit="4" d="M250.05 334.594L250.05 336.594"/>
	<path fill="none" stroke="#D7D7D7" stroke-width="1" stroke-miterlimit="4" d="M258.203 334.594L258.203 336.594"/>
	<path fill="none" stroke="#D7D7D7" stroke-width="1" stroke-miterlimit="4" d="M274.51 334.594L274.51 336.594"/>
	<path fill="none" stroke="#D7D7D7" stroke-width="1" stroke-miterlimit="4" d="M282.663 334.594L282.663 336.594"/>
	<path fill="none" stroke="#D7D7D7" stroke-width="1" stroke-miterlimit="4" d="M290.817 334.594L290.817 336.594"/>
	<path fill="none" stroke="#D7D7D7" stroke-width="1" stroke-miterlimit="4" d="M298.97 334.594L298.97 336.594"/>
	<path fill="none" stroke="#D7D7D7" stroke-width="1" stroke-miterlimit="4" d="M315.277 334.594L315.277 336.594"/>
	<path fill="none" stroke="#D7D7D7" stroke-width="1" stroke-miterlimit="4" d="M323.431 334.594L323.431 336.594"/>
	<path fill="none" stroke="#D7D7D7" stroke-width="1" stroke-miterlimit="4" d="M331.584 334.594L331.584 336.594"/>
	<path fill="none" stroke="#D7D7D7" stroke-width="1" stroke-miterlimit="4" d="M339.738 334.594L339.738 336.594"/>
	<path fill="none" stroke="#D7D7D7" stroke-width="1" stroke-miterlimit="4" d="M356.045 334.594L356.045 336.594"/>
	<path fill="none" stroke="#D7D7D7" stroke-width="1" stroke-miterlimit="4" d="M364.198 334.594L364.198 336.594"/>
	<path fill="none" stroke="#D7D7D7" stroke-width="1" stroke-miterlimit="4" d="M372.352 334.594L372.352 336.594"/>
	<path fill="none" stroke="#D7D7D7" stroke-width="1" stroke-miterlimit="4" d="M380.505 334.594L380.505 336.594"/>
	<path fill="none" stroke="#D7D7D7" stroke-width="1" stroke-miterlimit="4" d="M396.812 334.594L396.812 336.594"/>
	<path fill="none" stroke="#D7D7D7" stroke-width="1" stroke-miterlimit="4" d="M404.965 334.594L404.965 336.594"/>
	<path fill="none" stroke="#D7D7D7" stroke-width="1" stroke-miterlimit="4" d="M413.119 334.594L413.119 336.594"/>
	<path fill="none" stroke="#D7D7D7" stroke-width="1" stroke-miterlimit="4" d="M421.272 334.594L421.272 336.594"/>
	<path fill="none" stroke="#D7D7D7" stroke-width="1" stroke-miterlimit="4" d="M437.579 334.594L437.579 336.594"/>
	<path fill="none" stroke="#D7D7D7" stroke-width="1" stroke-miterlimit="4" d="M445.733 334.594L445.733 336.594"/>
	<path fill="none" stroke="#D7D7D7" stroke-width="1" stroke-miterlimit="4" d="M453.886 334.594L453.886 336.594"/>
	<path fill="none" stroke="#D7D7D7" stroke-width="1" stroke-miterlimit="4" d="M462.04 334.594L462.04 336.594"/>
	<path fill="none" stroke="#D7D7D7" stroke-width="1" stroke-miterlimit="4" d="M478.346 334.594L478.346 336.594"/>
	<path fill="none" stroke="#D7D7D7" stroke-width="1" stroke-miterlimit="4" d="M486.5 334.594L486.5 336.594"/>
	<path fill="none" stroke="#D7D7D7" stroke-width="1" stroke-miterlimit="4" d="M494.653 334.594L494.653 336.594"/>
	<path fill="none" stroke="#D7D7D7" stroke-width="1" stroke-miterlimit="4" d="M502.807 334.594L502.807 336.594"/>
	<path fill="none" stroke="#D7D7D7" stroke-width="1" stroke-miterlimit="4" d="M519.114 334.594L519.114 336.594"/>
	<path fill="none" stroke="#D7D7D7" stroke-width="1" stroke-miterlimit="4" d="M527.267 334.594L527.267 336.594"/>
	<path fill="none" stroke="#D7D7D7" stroke-width="1" stroke-miterlimit="4" d="M535.421 334.594L535.421 336.594"/>
	<path fill="none" stroke="#D7D7D7" stroke-width="1" stroke-miterlimit="4" d="M543.574 334.594L543.574 336.594"/>
	<path fill="none" stroke="#D7D7D7" stroke-width="1" stroke-miterlimit="4" d="M559.881 334.594L559.881 336.594"/>
	<path fill="none" stroke="#D7D7D7" stroke-width="1" stroke-miterlimit="4" d="M568.035 334.594L568.035 336.594"/>
	<path fill="none" stroke="#D7D7D7" stroke-width="1" stroke-miterlimit="4" d="M576.188 334.594L576.188 336.594"/>
	<path fill="none" stroke="#D7D7D7" stroke-width="1" stroke-miterlimit="4" d="M584.341 334.594L584.341 336.594"/>
	<path fill="none" stroke="#D7D7D7" stroke-width="1" stroke-miterlimit="4" d="M600.648 334.594L600.648 336.594"/>
	<path fill="none" stroke="#D7D7D7" stroke-width="1" stroke-miterlimit="4" d="M608.802 334.594L608.802 336.594"/>
	<path fill="none" stroke="#D7D7D7" stroke-width="1" stroke-miterlimit="4" d="M616.955 334.594L616.955 336.594"/>
	<path fill="none" stroke="#D7D7D7" stroke-width="1" stroke-miterlimit="4" d="M625.109 334.594L625.109 336.594"/>
	<path fill="none" stroke="#D7D7D7" stroke-width="1" stroke-miterlimit="4" d="M641.416 334.594L641.416 336.594"/>
	<path fill="none" stroke="#D7D7D7" stroke-width="1" stroke-miterlimit="4" d="M649.569 334.594L649.569 336.594"/>
	<path fill="none" stroke="#D7D7D7" stroke-width="1" stroke-miterlimit="4" d="M657.723 334.594L657.723 336.594"/>
	<path fill="none" stroke="#D7D7D7" stroke-width="1" stroke-miterlimit="4" d="M665.876 334.594L665.876 336.594"/>
	<path fill="none" stroke="#D7D7D7" stroke-width="1" stroke-miterlimit="4" d="M682.183 334.594L682.183 336.594"/>
	<path fill="none" stroke="#D7D7D7" stroke-width="1" stroke-miterlimit="4" d="M690.336 334.594L690.336 336.594"/>
	<path fill="none" stroke="#D7D7D7" stroke-width="1" stroke-miterlimit="4" d="M698.49 334.594L698.49 336.594"/>
	<path fill="none" stroke="#D7D7D7" stroke-width="1" stroke-miterlimit="4" d="M706.643 334.594L706.643 336.594"/>
	<path fill="none" stroke="#D7D7D7" stroke-width="1" stroke-miterlimit="4" d="M722.95 334.594L722.95 336.594"/>
	<path fill="none" stroke="#D7D7D7" stroke-width="1" stroke-miterlimit="4" d="M731.104 334.594L731.104 336.594"/>
	<path fill="none" stroke="#D7D7D7" stroke-width="1" stroke-miterlimit="4" d="M739.257 334.594L739.257 336.594"/>
	<path fill="none" stroke="#D7D7D7" stroke-width="1" stroke-miterlimit="4" d="M747.411 334.594L747.411 336.594"/>
	<path fill="none" stroke="#D7D7D7" stroke-width="1" stroke-miterlimit="4" d="M763.718 334.594L763.718 336.594"/>
	<path fill="none" stroke="#D7D7D7" stroke-width="1" stroke-miterlimit="4" d="M771.871 334.594L771.871 336.594"/>
	<path fill="none" stroke="#D7D7D7" stroke-width="1" stroke-miterlimit="4" d="M780.024 334.594L780.024 336.594"/>
	<path fill="none" stroke="#D7D7D7" stroke-width="1" stroke-miterlimit="4" d="M788.178 334.594L788.178 336.594"/>
	<path fill="none" stroke="#D7D7D7" stroke-width="1" stroke-miterlimit="4" d="M804.485 334.594L804.485 336.594"/>
	<path fill="none" stroke="#D7D7D7" stroke-width="1" stroke-miterlimit="4" d="M812.638 334.594L812.638 336.594"/>
	<path fill="none" stroke="#D7D7D7" stroke-width="1" stroke-miterlimit="4" d="M820.792 334.594L820.792 336.594"/>
	<path fill="none" stroke="#D7D7D7" stroke-width="1" stroke-miterlimit="4" d="M828.945 334.594L828.945 336.594"/>
	<path fill="none" stroke="#D7D7D7" stroke-width="1" stroke-miterlimit="4" d="M845.252 334.594L845.252 336.594"/>
	<path fill="none" stroke="#D7D7D7" stroke-width="1" stroke-miterlimit="4" d="M853.406 334.594L853.406 336.594"/>
	<path fill="none" stroke="#D7D7D7" stroke-width="1" stroke-miterlimit="4" d="M861.559 334.594L861.559 336.594"/>
	<path fill="none" stroke="#D7D7D7" stroke-width="1" stroke-miterlimit="4" d="M869.712 334.594L869.712 336.594"/>
	<path fill="none" stroke="#D7D7D7" stroke-width="1" stroke-miterlimit="4" d="M886.019 334.594L886.019 336.594"/>
	<path fill="none" stroke="#D7D7D7" stroke-width="1" stroke-miterlimit="4" d="M894.173 334.594L894.173 336.594"/>
	<path fill="none" stroke="#D7D7D7" stroke-width="1" stroke-miterlimit="4" d="M902.326 334.594L902.326 336.594"/>
	<path fill="none" stroke="#D7D7D7" stroke-width="1" stroke-miterlimit="4" d="M910.48 334.594L910.48 336.594"/>
	<path fill="none" stroke="#D7D7D7" stroke-width="1" stroke-miterlimit="4" d="M926.787 334.594L926.787 336.594"/>
	<path fill="none" stroke="#D7D7D7" stroke-width="1" stroke-miterlimit="4" d="M934.94 334.594L934.94 336.594"/>
	<path fill="none" stroke="#D7D7D7" stroke-width="1" stroke-miterlimit="4" d="M943.094 334.594L943.094 336.594"/>
	<path fill="none" stroke="#D7D7D7" stroke-width="1" stroke-miterlimit="4" d="M951.247 334.594L951.247 336.594"/>
	<path fill="none" stroke="#D7D7D7" stroke-width="1" stroke-miterlimit="4" d="M967.554 334.594L967.554 336.594"/>
	<path fill="none" stroke="#D7D7D7" stroke-width="1" stroke-miterlimit="4" d="M144.055 334.594L970 334.594"/>
	<path fill="none" stroke="#D7D7D7" stroke-width="1" stroke-miterlimit="4" d="M144.055 69.475L970 69.475"/>
	<text fill="#D7D7D7" transform="matrix(0 -1 1 0 82.3555 201.984)" font-size="16" font-weight="600" font-family="Khmer Mondulkiri" x="-53.367188, -44.398438, -34.34375, -24.8125, -15.84375, -6.859375, 2.515625, 8.53125, 17.5, 25.742188, 34.304688, 47.351562, " y="14.8125, ">
			dT/dp [degK]
	</text>
	<path fill="none" stroke="#D7D7D7" stroke-width="1" stroke-miterlimit="4" d="M144.055 291.463L140.055 291.463"/>
	<text fill="#D7D7D7" transform="translate(135.055 291.463)" font-size="12" font-family="Khmer Mondulkiri" x="-22.324219, -16.171875, -9.84375, -6.328125, " y="0.0234375, ">
			-0.2
	</text>
	<path fill="none" stroke="#D7D7D7" stroke-width="1" stroke-miterlimit="4" d="M144.055 243.064L140.055 243.064"/>
	<text fill="#D7D7D7" transform="translate(135.055 243.064)" font-size="12" font-family="Khmer Mondulkiri" x="-6.328125, " y="0.0234375, ">
			0
	</text>
	<path fill="none" stroke="#D7D7D7" stroke-width="1" stroke-miterlimit="4" d="M144.055 194.666L140.055 194.666"/>
	<text fill="#D7D7D7" transform="translate(135.055 194.666)" font-size="12" font-family="Khmer Mondulkiri" x="-16.171875, -9.84375, -6.328125, " y="0.0234375, ">
			0.2
	</text>
	<path fill="none" stroke="#D7D7D7" stroke-width="1" stroke-miterlimit="4" d="M144.055 146.267L140.055 146.267"/>
	<text fill="#D7D7D7" transform="translate(135.055 146.267)" font-size="12" font-family="Khmer Mondulkiri" x="-16.171875, -9.84375, -6.328125, " y="0.0234375, ">
			0.4
	</text>
	<path fill="none" stroke="#D7D7D7" stroke-width="1" stroke-miterlimit="4" d="M144.055 97.8683L140.055 97.8683"/>
	<text fill="#D7D7D7" transform="translate(135.055 97.8683)" font-size="12" font-family="Khmer Mondulkiri" x="-16.171875, -9.84375, -6.328125, " y="0.0234375, ">
			0.6
	</text>
	<path fill="none" stroke="#D7D7D7" stroke-width="1" stroke-miterlimit="4" d="M144.055 330.182L142.055 330.182"/>
	<path fill="none" stroke="#D7D7D7" stroke-width="1" stroke-miterlimit="4" d="M144.055 320.502L142.055 320.502"/>
	<path fill="none" stroke="#D7D7D7" stroke-width="1" stroke-miterlimit="4" d="M144.055 310.822L142.055 310.822"/>
	<path fill="none" stroke="#D7D7D7" stroke-width="1" stroke-miterlimit="4" d="M144.055 301.143L142.055 301.143"/>
	<path fill="none" stroke="#D7D7D7" stroke-width="1" stroke-miterlimit="4" d="M144.055 281.783L142.055 281.783"/>
	<path fill="none" stroke="#D7D7D7" stroke-width="1" stroke-miterlimit="4" d="M144.055 272.103L142.055 272.103"/>
	<path fill="none" stroke="#D7D7D7" stroke-width="1" stroke-miterlimit="4" d="M144.055 262.424L142.055 262.424"/>
	<path fill="none" stroke="#D7D7D7" stroke-width="1" stroke-miterlimit="4" d="M144.055 252.744L142.055 252.744"/>
	<path fill="none" stroke="#D7D7D7" stroke-width="1" stroke-miterlimit="4" d="M144.055 233.384L142.055 233.384"/>
	<path fill="none" stroke="#D7D7D7" stroke-width="1" stroke-miterlimit="4" d="M144.055 223.705L142.055 223.705"/>
	<path fill="none" stroke="#D7D7D7" stroke-width="1" stroke-miterlimit="4" d="M144.055 214.025L142.055 214.025"/>
	<path fill="none" stroke="#D7D7D7" stroke-width="1" stroke-miterlimit="4" d="M144.055 204.345L142.055 204.345"/>
	<path fill="none" stroke="#D7D7D7" stroke-width="1" stroke-miterlimit="4" d="M144.055 184.986L142.055 184.986"/>
	<path fill="none" stroke="#D7D7D7" stroke-width="1" stroke-miterlimit="4" d="M144.055 175.306L142.055 175.306"/>
	<path fill="none" stroke="#D7D7D7" stroke-width="1" stroke-miterlimit="4" d="M144.055 165.626L142.055 165.626"/>
	<path fill="none" stroke="#D7D7D7" stroke-width="1" stroke-miterlimit="4" d="M144.055 155.947L142.055 155.947"/>
	<path fill="none" stroke="#D7D7D7" stroke-width="1" stroke-miterlimit="4" d="M144.055 136.587L142.055 136.587"/>
	<path fill="none" stroke="#D7D7D7" stroke-width="1" stroke-miterlimit="4" d="M144.055 126.907L142.055 126.907"/>
	<path fill="none" stroke="#D7D7D7" stroke-width="1" stroke-miterlimit="4" d="M144.055 117.228L142.055 117.228"/>
	<path fill="none" stroke="#D7D7D7" stroke-width="1" stroke-miterlimit="4" d="M144.055 107.548L142.055 107.548"/>
	<path fill="none" stroke="#D7D7D7" stroke-width="1" stroke-miterlimit="4" d="M144.055 88.1886L142.055 88.1886"/>
	<path fill="none" stroke="#D7D7D7" stroke-width="1" stroke-miterlimit="4" d="M144.055 78.5088L142.055 78.5088"/>
	<path fill="none" stroke="#D7D7D7" stroke-width="1" stroke-miterlimit="4" d="M144.055 334.594L144.055 69.375"/>
	<path fill="none" stroke="#D7D7D7" stroke-width="1" stroke-miterlimit="4" d="M970 334.594L970 69.375"/>
	<text fill="fuchsia" transform="matrix(0 -1 1 0 4 201.984)" font-size="16" font-weight="600" font-family="Khmer Mondulkiri" x="-53.230469, -44.261719, -35.363281, -25.832031, -16.863281, -7.8789062, 1.4960938, 7.5117188, 16.074219, 25.605469, 38.652344, 47.214844, " y="14.8125, ">
			dq/dp [g/Kg]
	</text>
	<path fill="none" stroke="fuchsia" stroke-width="1" stroke-miterlimit="4" d="M78.3555 322.739L74.3555 322.739"/>
	<text fill="fuchsia" transform="translate(69.3555 322.739)" font-size="12" font-family="Khmer Mondulkiri" x="-34.980469, -28.828125, -22.5, -18.984375, -12.65625, -6.328125, " y="0.0234375, ">
			-0.003
	</text>
	<path fill="none" stroke="fuchsia" stroke-width="1" stroke-miterlimit="4" d="M78.3555 285.155L74.3555 285.155"/>
	<text fill="fuchsia" transform="translate(69.3555 285.155)" font-size="12" font-family="Khmer Mondulkiri" x="-34.980469, -28.828125, -22.5, -18.984375, -12.65625, -6.328125, " y="0.0234375, ">
			-0.002
	</text>
	<path fill="none" stroke="fuchsia" stroke-width="1" stroke-miterlimit="4" d="M78.3555 247.57L74.3555 247.57"/>
	<text fill="fuchsia" transform="translate(69.3555 247.57)" font-size="12" font-family="Khmer Mondulkiri" x="-34.980469, -28.828125, -22.5, -18.984375, -12.65625, -6.328125, " y="0.0234375, ">
			-0.001
	</text>
	<path fill="none" stroke="fuchsia" stroke-width="1" stroke-miterlimit="4" d="M78.3555 209.986L74.3555 209.986"/>
	<text fill="fuchsia" transform="translate(69.3555 209.986)" font-size="12" font-family="Khmer Mondulkiri" x="-6.328125, " y="0.0234375, ">
			0
	</text>
	<path fill="none" stroke="fuchsia" stroke-width="1" stroke-miterlimit="4" d="M78.3555 172.401L74.3555 172.401"/>
	<text fill="fuchsia" transform="translate(69.3555 172.401)" font-size="12" font-family="Khmer Mondulkiri" x="-28.828125, -22.5, -18.984375, -12.65625, -6.328125, " y="0.0234375, ">
			0.001
	</text>
	<path fill="none" stroke="fuchsia" stroke-width="1" stroke-miterlimit="4" d="M78.3555 134.817L74.3555 134.817"/>
	<text fill="fuchsia" transform="translate(69.3555 134.817)" font-size="12" font-family="Khmer Mondulkiri" x="-28.828125, -22.5, -18.984375, -12.65625, -6.328125, " y="0.0234375, ">
			0.002
	</text>
	<path fill="none" stroke="fuchsia" stroke-width="1" stroke-miterlimit="4" d="M78.3555 97.2321L74.3555 97.2321"/>
	<text fill="fuchsia" transform="translate(69.3555 97.2321)" font-size="12" font-family="Khmer Mondulkiri" x="-28.828125, -22.5, -18.984375, -12.65625, -6.328125, " y="0.0234375, ">
			0.003
	</text>
	<path fill="none" stroke="fuchsia" stroke-width="1" stroke-miterlimit="4" d="M78.3555 330.256L76.3555 330.256"/>
	<path fill="none" stroke="fuchsia" stroke-width="1" stroke-miterlimit="4" d="M78.3555 315.222L76.3555 315.222"/>
	<path fill="none" stroke="fuchsia" stroke-width="1" stroke-miterlimit="4" d="M78.3555 307.705L76.3555 307.705"/>
	<path fill="none" stroke="fuchsia" stroke-width="1" stroke-miterlimit="4" d="M78.3555 300.188L76.3555 300.188"/>
	<path fill="none" stroke="fuchsia" stroke-width="1" stroke-miterlimit="4" d="M78.3555 292.671L76.3555 292.671"/>
	<path fill="none" stroke="fuchsia" stroke-width="1" stroke-miterlimit="4" d="M78.3555 277.638L76.3555 277.638"/>
	<path fill="none" stroke="fuchsia" stroke-width="1" stroke-miterlimit="4" d="M78.3555 270.121L76.3555 270.121"/>
	<path fill="none" stroke="fuchsia" stroke-width="1" stroke-miterlimit="4" d="M78.3555 262.604L76.3555 262.604"/>
	<path fill="none" stroke="fuchsia" stroke-width="1" stroke-miterlimit="4" d="M78.3555 255.087L76.3555 255.087"/>
	<path fill="none" stroke="fuchsia" stroke-width="1" stroke-miterlimit="4" d="M78.3555 240.053L76.3555 240.053"/>
	<path fill="none" stroke="fuchsia" stroke-width="1" stroke-miterlimit="4" d="M78.3555 232.536L76.3555 232.536"/>
	<path fill="none" stroke="fuchsia" stroke-width="1" stroke-miterlimit="4" d="M78.3555 225.019L76.3555 225.019"/>
	<path fill="none" stroke="fuchsia" stroke-width="1" stroke-miterlimit="4" d="M78.3555 217.502L76.3555 217.502"/>
	<path fill="none" stroke="fuchsia" stroke-width="1" stroke-miterlimit="4" d="M78.3555 202.469L76.3555 202.469"/>
	<path fill="none" stroke="fuchsia" stroke-width="1" stroke-miterlimit="4" d="M78.3555 194.952L76.3555 194.952"/>
	<path fill="none" stroke="fuchsia" stroke-width="1" stroke-miterlimit="4" d="M78.3555 187.435L76.3555 187.435"/>
	<path fill="none" stroke="fuchsia" stroke-width="1" stroke-miterlimit="4" d="M78.3555 179.918L76.3555 179.918"/>
	<path fill="none" stroke="fuchsia" stroke-width="1" stroke-miterlimit="4" d="M78.3555 164.884L76.3555 164.884"/>
	<path fill="none" stroke="fuchsia" stroke-width="1" stroke-miterlimit="4" d="M78.3555 157.367L76.3555 157.367"/>
	<path fill="none" stroke="fuchsia" stroke-width="1" stroke-miterlimit="4" d="M78.3555 149.85L76.3555 149.85"/>
	<path fill="none" stroke="fuchsia" stroke-width="1" stroke-miterlimit="4" d="M78.3555 142.333L76.3555 142.333"/>
	<path fill="none" stroke="fuchsia" stroke-width="1" stroke-miterlimit="4" d="M78.3555 127.3L76.3555 127.3"/>
	<path fill="none" stroke="fuchsia" stroke-width="1" stroke-miterlimit="4" d="M78.3555 119.783L76.3555 119.783"/>
	<path fill="none" stroke="fuchsia" stroke-width="1" stroke-miterlimit="4" d="M78.3555 112.266L76.3555 112.266"/>
	<path fill="none" stroke="fuchsia" stroke-width="1" stroke-miterlimit="4" d="M78.3555 104.749L76.3555 104.749"/>
	<path fill="none" stroke="fuchsia" stroke-width="1" stroke-miterlimit="4" d="M78.3555 89.7152L76.3555 89.7152"/>
	<path fill="none" stroke="fuchsia" stroke-width="1" stroke-miterlimit="4" d="M78.3555 82.1983L76.3555 82.1983"/>
	<path fill="none" stroke="fuchsia" stroke-width="1" stroke-miterlimit="4" d="M78.3555 74.6814L76.3555 74.6814"/>
	<path fill="none" stroke="fuchsia" stroke-width="1" stroke-miterlimit="4" d="M78.3555 334.594L78.3555 69.375"/>
	<text fill="#D7D7D7" transform="translate(557.027 39.375)" font-size="16" font-weight="600" font-family="Khmer Mondulkiri" x="-258.53125, -249.5625, -240.33594, -231.05469, -222.08594, -214.05469, -205.28125, -200.83594, -191.46094, -182.42969, -173.96094, -164.58594, -157.52344, -148.29688, -139.01562, -130.77344, -121.39844, -112.35938, -103.32812, -94.289062, -85.757812, -67.007812, -56.5, -48.46875, -42.960938, -36.320312, -28.117188, -19.359375, -10.328125, -5.640625, 3.390625, 12.421875, 21.796875, 32.304688, 41.140625, 50.421875, 57.0625, 66.09375, 75.125, 79.8125, 88.84375, 97.875, 116.625, 127.13281, 135.375, 143.94531, 152.1875, 157.36719, 164.1875, 170.82812, 179.29688, 188.32812, 196.53125, 205, 214.03125, 223.0625, 232.09375, 240.94531, 250.5, " y="-14.5625, ">
			Sunday, 01 June 2025 Lat:-90.00 Lon:00.00 Levels:10-1000hPa
	</text>
	<rect fill="#00008B" transform="translate(837.099 64.375)" x="-34.674805" y="-30.703125" width="69.349609" height="35.703125"/>
	<text fill="white" transform="translate(837.099 64.375)" font-size="14" font-weight="600" font-family="Khmer Mondulkiri" x="-29.674805, -19.461914, -8.3740234, 0.8203125, 11.675781, 18.887695, 24.855469, " y="-12.742188, ">
			COLDest
	</text>
	<rect fill="red" transform="translate(152.208 64.375)" x="-29.438477" y="-30.703125" width="58.876953" height="35.703125"/>
	<text fill="white" transform="translate(152.208 64.375)" font-size="14" font-weight="600" font-family="Khmer Mondulkiri" x="-24.438477, -13.446289, -2.3583984, 6.4394531, 13.651367, 19.619141, " y="-12.742188, ">
			HOTest
	</text>
</svg>
