<?xml version="1.0" encoding="utf-8" ?>
<svg xmlns="http://www.w3.org/2000/svg" xmlns:xlink="http://www.w3.org/1999/xlink" width="950" height="350">
	<rect fill="#181818" width="950" height="350"/>
	<clipPath id="cl_3">
		<rect x="137.72656" y="69.375" width="782.27344" height="215.21875"/>
	</clipPath>
	<g clip-path="url(#cl_3)">
		<rect fill="#1F1F1F" x="137.72656" y="69.375" width="782.27344" height="215.21875"/>
	</g>
	<path fill="none" stroke="#404040" stroke-width="1" stroke-miterlimit="4" d="M137.727 284.594L137.727 69.375M176.338 284.594L176.338 69.375M214.95 284.594L214.95 69.375M253.562 284.594L253.562 69.375M292.173 284.594L292.173 69.375M330.785 284.594L330.785 69.375M369.397 284.594L369.397 69.375M408.009 284.594L408.009 69.375M446.62 284.594L446.62 69.375M485.232 284.594L485.232 69.375M523.844 284.594L523.844 69.375M562.455 284.594L562.455 69.375M601.067 284.594L601.067 69.375M639.679 284.594L639.679 69.375M678.291 284.594L678.291 69.375M716.902 284.594L716.902 69.375M755.514 284.594L755.514 69.375M794.126 284.594L794.126 69.375M832.737 284.594L832.737 69.375M871.349 284.594L871.349 69.375M909.961 284.594L909.961 69.375"/>
	<path fill="none" stroke="#404040" stroke-width="1" stroke-miterlimit="4" d="M137.727 254.431L920 254.431M137.727 220.539L920 220.539M137.727 186.647L920 186.647M137.727 152.755L920 152.755M137.727 118.863L920 118.863M137.727 84.9707L920 84.9707"/>
	<clipPath id="cl_4">
		<rect x="137.72656" y="69.375" width="782.27344" height="215.21875"/>
	</clipPath>
	<g clip-path="url(#cl_4)">
		<path fill="none" stroke="#D7D7D7" stroke-width="1" stroke-miterlimit="4" d="M138.499 118.863L139.271 270.558L140.043 196.54L141.588 148.053L143.132 126.394L145.449 127.31L153.171 127.558L160.894 124.174L176.338 120.904L191.783 120.232L214.95 121.812L234.256 124.188L253.562 124.435L272.868 126.329L292.173 128.896L311.479 131.641L330.785 129.742L369.397 126.074L408.009 127.566L446.62 120.608L485.232 115.385L523.844 117.304L562.455 119.304L601.067 120.104L639.679 120.584L678.291 119.738L716.902 116.514L736.208 117.155L755.514 118.641L774.82 120.276L794.126 101.848L813.432 96.2905L832.737 103.797L852.043 89.4677L871.349 83.411L890.655 97.314L909.961 118.863"/>
	</g>
	<clipPath id="cl_5">
		<rect x="137.72656" y="69.375" width="782.27344" height="215.21875"/>
	</clipPath>
	<g clip-path="url(#cl_5)">
		<path fill="none" stroke="#8B008B" stroke-width="1" stroke-miterlimit="4" d="M138.499 88.1582L139.271 270.558L140.043 249.012L141.588 152.632L143.132 165.364L145.449 94.3116L153.171 100.224L160.894 97.5207L176.338 94.5373L191.783 93.4901L214.95 93.5899L234.256 89.0132L253.562 83.411L272.868 89.4304L292.173 94.0708L311.479 95.1873L330.785 92.1222L369.397 88.6358L408.009 89.2719L446.62 89.0481L485.232 88.3782L523.844 88.1827L562.455 88.1968L601.067 88.1587L639.679 88.1673L678.291 88.1574L716.902 88.1557L736.208 88.1553L755.514 88.1549L774.82 88.1535L794.126 88.1558L813.432 88.157L832.737 88.1563L852.043 88.1554L871.349 88.1547L890.655 88.1543L909.961 88.1582"/>
	</g>
	<clipPath id="cl_6">
		<rect x="137.72656" y="69.375" width="782.27344" height="215.21875"/>
	</clipPath>
	<g clip-path="url(#cl_6)">
		<path fill="none" stroke="#00008B" stroke-width="3" stroke-miterlimit="4" d="M446.62 284.594L446.62 69.375"/>
	</g>
	<clipPath id="cl_7">
		<rect x="137.72656" y="69.375" width="782.27344" height="215.21875"/>
	</clipPath>
	<g clip-path="url(#cl_7)">
		<path fill="none" stroke="red" stroke-width="3" stroke-miterlimit="4" d="M909.961 284.594L909.961 69.375"/>
	</g>
	<text fill="#D7D7D7" transform="translate(528.863 346)" font-size="16" font-weight="600" font-family="Khmer Mondulkiri" x="-79.746094, -70.191406, -63.878906, -55.636719, -48.816406, -41.996094, -32.769531, -26.457031, -18.214844, -8.8398438, 1.6679688, 9.9101562, 18.480469, 26.722656, 31.902344, 41.277344, 47.292969, 56.144531, 65.699219, 73.730469, " y="-14.5625, ">
			Pressure Level [hPa]
	</text>
	<path fill="none" stroke="#D7D7D7" stroke-width="1" stroke-miterlimit="4" d="M137.727 284.594L137.727 288.594"/>
	<text fill="#D7D7D7" transform="translate(137.727 290.594)" font-size="12" font-family="Khmer Mondulkiri" x="-3.1640625, " y="11.039062, ">
			0
	</text>
	<path fill="none" stroke="#D7D7D7" stroke-width="1" stroke-miterlimit="4" d="M176.338 284.594L176.338 288.594"/>
	<text fill="#D7D7D7" transform="translate(176.338 290.594)" font-size="12" font-family="Khmer Mondulkiri" x="-6.328125, 0, " y="11.039062, ">
			50
	</text>
	<path fill="none" stroke="#D7D7D7" stroke-width="1" stroke-miterlimit="4" d="M214.95 284.594L214.95 288.594"/>
	<text fill="#D7D7D7" transform="translate(214.95 290.594)" font-size="12" font-family="Khmer Mondulkiri" x="-9.4921875, -3.1640625, 3.1640625, " y="11.039062, ">
			100
	</text>
	<path fill="none" stroke="#D7D7D7" stroke-width="1" stroke-miterlimit="4" d="M253.562 284.594L253.562 288.594"/>
	<text fill="#D7D7D7" transform="translate(253.562 290.594)" font-size="12" font-family="Khmer Mondulkiri" x="-9.4921875, -3.1640625, 3.1640625, " y="11.039062, ">
			150
	</text>
	<path fill="none" stroke="#D7D7D7" stroke-width="1" stroke-miterlimit="4" d="M292.173 284.594L292.173 288.594"/>
	<text fill="#D7D7D7" transform="translate(292.173 290.594)" font-size="12" font-family="Khmer Mondulkiri" x="-9.4921875, -3.1640625, 3.1640625, " y="11.039062, ">
			200
	</text>
	<path fill="none" stroke="#D7D7D7" stroke-width="1" stroke-miterlimit="4" d="M330.785 284.594L330.785 288.594"/>
	<text fill="#D7D7D7" transform="translate(330.785 290.594)" font-size="12" font-family="Khmer Mondulkiri" x="-9.4921875, -3.1640625, 3.1640625, " y="11.039062, ">
			250
	</text>
	<path fill="none" stroke="#D7D7D7" stroke-width="1" stroke-miterlimit="4" d="M369.397 284.594L369.397 288.594"/>
	<text fill="#D7D7D7" transform="translate(369.397 290.594)" font-size="12" font-family="Khmer Mondulkiri" x="-9.4921875, -3.1640625, 3.1640625, " y="11.039062, ">
			300
	</text>
	<path fill="none" stroke="#D7D7D7" stroke-width="1" stroke-miterlimit="4" d="M408.009 284.594L408.009 288.594"/>
	<text fill="#D7D7D7" transform="translate(408.009 290.594)" font-size="12" font-family="Khmer Mondulkiri" x="-9.4921875, -3.1640625, 3.1640625, " y="11.039062, ">
			350
	</text>
	<path fill="none" stroke="#D7D7D7" stroke-width="1" stroke-miterlimit="4" d="M446.62 284.594L446.62 288.594"/>
	<text fill="#D7D7D7" transform="translate(446.62 290.594)" font-size="12" font-family="Khmer Mondulkiri" x="-9.4921875, -3.1640625, 3.1640625, " y="11.039062, ">
			400
	</text>
	<path fill="none" stroke="#D7D7D7" stroke-width="1" stroke-miterlimit="4" d="M485.232 284.594L485.232 288.594"/>
	<text fill="#D7D7D7" transform="translate(485.232 290.594)" font-size="12" font-family="Khmer Mondulkiri" x="-9.4921875, -3.1640625, 3.1640625, " y="11.039062, ">
			450
	</text>
	<path fill="none" stroke="#D7D7D7" stroke-width="1" stroke-miterlimit="4" d="M523.844 284.594L523.844 288.594"/>
	<text fill="#D7D7D7" transform="translate(523.844 290.594)" font-size="12" font-family="Khmer Mondulkiri" x="-9.4921875, -3.1640625, 3.1640625, " y="11.039062, ">
			500
	</text>
	<path fill="none" stroke="#D7D7D7" stroke-width="1" stroke-miterlimit="4" d="M562.455 284.594L562.455 288.594"/>
	<text fill="#D7D7D7" transform="translate(562.455 290.594)" font-size="12" font-family="Khmer Mondulkiri" x="-9.4921875, -3.1640625, 3.1640625, " y="11.039062, ">
			550
	</text>
	<path fill="none" stroke="#D7D7D7" stroke-width="1" stroke-miterlimit="4" d="M601.067 284.594L601.067 288.594"/>
	<text fill="#D7D7D7" transform="translate(601.067 290.594)" font-size="12" font-family="Khmer Mondulkiri" x="-9.4921875, -3.1640625, 3.1640625, " y="11.039062, ">
			600
	</text>
	<path fill="none" stroke="#D7D7D7" stroke-width="1" stroke-miterlimit="4" d="M639.679 284.594L639.679 288.594"/>
	<text fill="#D7D7D7" transform="translate(639.679 290.594)" font-size="12" font-family="Khmer Mondulkiri" x="-9.4921875, -3.1640625, 3.1640625, " y="11.039062, ">
			650
	</text>
	<path fill="none" stroke="#D7D7D7" stroke-width="1" stroke-miterlimit="4" d="M678.291 284.594L678.291 288.594"/>
	<text fill="#D7D7D7" transform="translate(678.291 290.594)" font-size="12" font-family="Khmer Mondulkiri" x="-9.4921875, -3.1640625, 3.1640625, " y="11.039062, ">
			700
	</text>
	<path fill="none" stroke="#D7D7D7" stroke-width="1" stroke-miterlimit="4" d="M716.902 284.594L716.902 288.594"/>
	<text fill="#D7D7D7" transform="translate(716.902 290.594)" font-size="12" font-family="Khmer Mondulkiri" x="-9.4921875, -3.1640625, 3.1640625, " y="11.039062, ">
			750
	</text>
	<path fill="none" stroke="#D7D7D7" stroke-width="1" stroke-miterlimit="4" d="M755.514 284.594L755.514 288.594"/>
	<text fill="#D7D7D7" transform="translate(755.514 290.594)" font-size="12" font-family="Khmer Mondulkiri" x="-9.4921875, -3.1640625, 3.1640625, " y="11.039062, ">
			800
	</text>
	<path fill="none" stroke="#D7D7D7" stroke-width="1" stroke-miterlimit="4" d="M794.126 284.594L794.126 288.594"/>
	<text fill="#D7D7D7" transform="translate(794.126 290.594)" font-size="12" font-family="Khmer Mondulkiri" x="-9.4921875, -3.1640625, 3.1640625, " y="11.039062, ">
			850
	</text>
	<path fill="none" stroke="#D7D7D7" stroke-width="1" stroke-miterlimit="4" d="M832.737 284.594L832.737 288.594"/>
	<text fill="#D7D7D7" transform="translate(832.737 290.594)" font-size="12" font-family="Khmer Mondulkiri" x="-9.4921875, -3.1640625, 3.1640625, " y="11.039062, ">
			900
	</text>
	<path fill="none" stroke="#D7D7D7" stroke-width="1" stroke-miterlimit="4" d="M871.349 284.594L871.349 288.594"/>
	<text fill="#D7D7D7" transform="translate(871.349 290.594)" font-size="12" font-family="Khmer Mondulkiri" x="-9.4921875, -3.1640625, 3.1640625, " y="11.039062, ">
			950
	</text>
	<path fill="none" stroke="#D7D7D7" stroke-width="1" stroke-miterlimit="4" d="M909.961 284.594L909.961 288.594"/>
	<text fill="#D7D7D7" transform="translate(909.961 290.594)" font-size="12" font-family="Khmer Mondulkiri" x="-14.326172, -7.9980469, -4.6582031, 1.6699219, 7.9980469, " y="11.039062, ">
			1,000
	</text>
	<path fill="none" stroke="#D7D7D7" stroke-width="1" stroke-miterlimit="4" d="M145.449 284.594L145.449 286.594"/>
	<path fill="none" stroke="#D7D7D7" stroke-width="1" stroke-miterlimit="4" d="M153.171 284.594L153.171 286.594"/>
	<path fill="none" stroke="#D7D7D7" stroke-width="1" stroke-miterlimit="4" d="M160.894 284.594L160.894 286.594"/>
	<path fill="none" stroke="#D7D7D7" stroke-width="1" stroke-miterlimit="4" d="M168.616 284.594L168.616 286.594"/>
	<path fill="none" stroke="#D7D7D7" stroke-width="1" stroke-miterlimit="4" d="M184.061 284.594L184.061 286.594"/>
	<path fill="none" stroke="#D7D7D7" stroke-width="1" stroke-miterlimit="4" d="M191.783 284.594L191.783 286.594"/>
	<path fill="none" stroke="#D7D7D7" stroke-width="1" stroke-miterlimit="4" d="M199.505 284.594L199.505 286.594"/>
	<path fill="none" stroke="#D7D7D7" stroke-width="1" stroke-miterlimit="4" d="M207.228 284.594L207.228 286.594"/>
	<path fill="none" stroke="#D7D7D7" stroke-width="1" stroke-miterlimit="4" d="M222.672 284.594L222.672 286.594"/>
	<path fill="none" stroke="#D7D7D7" stroke-width="1" stroke-miterlimit="4" d="M230.395 284.594L230.395 286.594"/>
	<path fill="none" stroke="#D7D7D7" stroke-width="1" stroke-miterlimit="4" d="M238.117 284.594L238.117 286.594"/>
	<path fill="none" stroke="#D7D7D7" stroke-width="1" stroke-miterlimit="4" d="M245.839 284.594L245.839 286.594"/>
	<path fill="none" stroke="#D7D7D7" stroke-width="1" stroke-miterlimit="4" d="M261.284 284.594L261.284 286.594"/>
	<path fill="none" stroke="#D7D7D7" stroke-width="1" stroke-miterlimit="4" d="M269.006 284.594L269.006 286.594"/>
	<path fill="none" stroke="#D7D7D7" stroke-width="1" stroke-miterlimit="4" d="M276.729 284.594L276.729 286.594"/>
	<path fill="none" stroke="#D7D7D7" stroke-width="1" stroke-miterlimit="4" d="M284.451 284.594L284.451 286.594"/>
	<path fill="none" stroke="#D7D7D7" stroke-width="1" stroke-miterlimit="4" d="M299.896 284.594L299.896 286.594"/>
	<path fill="none" stroke="#D7D7D7" stroke-width="1" stroke-miterlimit="4" d="M307.618 284.594L307.618 286.594"/>
	<path fill="none" stroke="#D7D7D7" stroke-width="1" stroke-miterlimit="4" d="M315.34 284.594L315.34 286.594"/>
	<path fill="none" stroke="#D7D7D7" stroke-width="1" stroke-miterlimit="4" d="M323.063 284.594L323.063 286.594"/>
	<path fill="none" stroke="#D7D7D7" stroke-width="1" stroke-miterlimit="4" d="M338.508 284.594L338.508 286.594"/>
	<path fill="none" stroke="#D7D7D7" stroke-width="1" stroke-miterlimit="4" d="M346.23 284.594L346.23 286.594"/>
	<path fill="none" stroke="#D7D7D7" stroke-width="1" stroke-miterlimit="4" d="M353.952 284.594L353.952 286.594"/>
	<path fill="none" stroke="#D7D7D7" stroke-width="1" stroke-miterlimit="4" d="M361.675 284.594L361.675 286.594"/>
	<path fill="none" stroke="#D7D7D7" stroke-width="1" stroke-miterlimit="4" d="M377.119 284.594L377.119 286.594"/>
	<path fill="none" stroke="#D7D7D7" stroke-width="1" stroke-miterlimit="4" d="M384.842 284.594L384.842 286.594"/>
	<path fill="none" stroke="#D7D7D7" stroke-width="1" stroke-miterlimit="4" d="M392.564 284.594L392.564 286.594"/>
	<path fill="none" stroke="#D7D7D7" stroke-width="1" stroke-miterlimit="4" d="M400.286 284.594L400.286 286.594"/>
	<path fill="none" stroke="#D7D7D7" stroke-width="1" stroke-miterlimit="4" d="M415.731 284.594L415.731 286.594"/>
	<path fill="none" stroke="#D7D7D7" stroke-width="1" stroke-miterlimit="4" d="M423.453 284.594L423.453 286.594"/>
	<path fill="none" stroke="#D7D7D7" stroke-width="1" stroke-miterlimit="4" d="M431.176 284.594L431.176 286.594"/>
	<path fill="none" stroke="#D7D7D7" stroke-width="1" stroke-miterlimit="4" d="M438.898 284.594L438.898 286.594"/>
	<path fill="none" stroke="#D7D7D7" stroke-width="1" stroke-miterlimit="4" d="M454.343 284.594L454.343 286.594"/>
	<path fill="none" stroke="#D7D7D7" stroke-width="1" stroke-miterlimit="4" d="M462.065 284.594L462.065 286.594"/>
	<path fill="none" stroke="#D7D7D7" stroke-width="1" stroke-miterlimit="4" d="M469.787 284.594L469.787 286.594"/>
	<path fill="none" stroke="#D7D7D7" stroke-width="1" stroke-miterlimit="4" d="M477.51 284.594L477.51 286.594"/>
	<path fill="none" stroke="#D7D7D7" stroke-width="1" stroke-miterlimit="4" d="M492.954 284.594L492.954 286.594"/>
	<path fill="none" stroke="#D7D7D7" stroke-width="1" stroke-miterlimit="4" d="M500.677 284.594L500.677 286.594"/>
	<path fill="none" stroke="#D7D7D7" stroke-width="1" stroke-miterlimit="4" d="M508.399 284.594L508.399 286.594"/>
	<path fill="none" stroke="#D7D7D7" stroke-width="1" stroke-miterlimit="4" d="M516.121 284.594L516.121 286.594"/>
	<path fill="none" stroke="#D7D7D7" stroke-width="1" stroke-miterlimit="4" d="M531.566 284.594L531.566 286.594"/>
	<path fill="none" stroke="#D7D7D7" stroke-width="1" stroke-miterlimit="4" d="M539.288 284.594L539.288 286.594"/>
	<path fill="none" stroke="#D7D7D7" stroke-width="1" stroke-miterlimit="4" d="M547.011 284.594L547.011 286.594"/>
	<path fill="none" stroke="#D7D7D7" stroke-width="1" stroke-miterlimit="4" d="M554.733 284.594L554.733 286.594"/>
	<path fill="none" stroke="#D7D7D7" stroke-width="1" stroke-miterlimit="4" d="M570.178 284.594L570.178 286.594"/>
	<path fill="none" stroke="#D7D7D7" stroke-width="1" stroke-miterlimit="4" d="M577.9 284.594L577.9 286.594"/>
	<path fill="none" stroke="#D7D7D7" stroke-width="1" stroke-miterlimit="4" d="M585.622 284.594L585.622 286.594"/>
	<path fill="none" stroke="#D7D7D7" stroke-width="1" stroke-miterlimit="4" d="M593.345 284.594L593.345 286.594"/>
	<path fill="none" stroke="#D7D7D7" stroke-width="1" stroke-miterlimit="4" d="M608.79 284.594L608.79 286.594"/>
	<path fill="none" stroke="#D7D7D7" stroke-width="1" stroke-miterlimit="4" d="M616.512 284.594L616.512 286.594"/>
	<path fill="none" stroke="#D7D7D7" stroke-width="1" stroke-miterlimit="4" d="M624.234 284.594L624.234 286.594"/>
	<path fill="none" stroke="#D7D7D7" stroke-width="1" stroke-miterlimit="4" d="M631.957 284.594L631.957 286.594"/>
	<path fill="none" stroke="#D7D7D7" stroke-width="1" stroke-miterlimit="4" d="M647.401 284.594L647.401 286.594"/>
	<path fill="none" stroke="#D7D7D7" stroke-width="1" stroke-miterlimit="4" d="M655.124 284.594L655.124 286.594"/>
	<path fill="none" stroke="#D7D7D7" stroke-width="1" stroke-miterlimit="4" d="M662.846 284.594L662.846 286.594"/>
	<path fill="none" stroke="#D7D7D7" stroke-width="1" stroke-miterlimit="4" d="M670.568 284.594L670.568 286.594"/>
	<path fill="none" stroke="#D7D7D7" stroke-width="1" stroke-miterlimit="4" d="M686.013 284.594L686.013 286.594"/>
	<path fill="none" stroke="#D7D7D7" stroke-width="1" stroke-miterlimit="4" d="M693.735 284.594L693.735 286.594"/>
	<path fill="none" stroke="#D7D7D7" stroke-width="1" stroke-miterlimit="4" d="M701.458 284.594L701.458 286.594"/>
	<path fill="none" stroke="#D7D7D7" stroke-width="1" stroke-miterlimit="4" d="M709.18 284.594L709.18 286.594"/>
	<path fill="none" stroke="#D7D7D7" stroke-width="1" stroke-miterlimit="4" d="M724.625 284.594L724.625 286.594"/>
	<path fill="none" stroke="#D7D7D7" stroke-width="1" stroke-miterlimit="4" d="M732.347 284.594L732.347 286.594"/>
	<path fill="none" stroke="#D7D7D7" stroke-width="1" stroke-miterlimit="4" d="M740.069 284.594L740.069 286.594"/>
	<path fill="none" stroke="#D7D7D7" stroke-width="1" stroke-miterlimit="4" d="M747.792 284.594L747.792 286.594"/>
	<path fill="none" stroke="#D7D7D7" stroke-width="1" stroke-miterlimit="4" d="M763.236 284.594L763.236 286.594"/>
	<path fill="none" stroke="#D7D7D7" stroke-width="1" stroke-miterlimit="4" d="M770.959 284.594L770.959 286.594"/>
	<path fill="none" stroke="#D7D7D7" stroke-width="1" stroke-miterlimit="4" d="M778.681 284.594L778.681 286.594"/>
	<path fill="none" stroke="#D7D7D7" stroke-width="1" stroke-miterlimit="4" d="M786.403 284.594L786.403 286.594"/>
	<path fill="none" stroke="#D7D7D7" stroke-width="1" stroke-miterlimit="4" d="M801.848 284.594L801.848 286.594"/>
	<path fill="none" stroke="#D7D7D7" stroke-width="1" stroke-miterlimit="4" d="M809.57 284.594L809.57 286.594"/>
	<path fill="none" stroke="#D7D7D7" stroke-width="1" stroke-miterlimit="4" d="M817.293 284.594L817.293 286.594"/>
	<path fill="none" stroke="#D7D7D7" stroke-width="1" stroke-miterlimit="4" d="M825.015 284.594L825.015 286.594"/>
	<path fill="none" stroke="#D7D7D7" stroke-width="1" stroke-miterlimit="4" d="M840.46 284.594L840.46 286.594"/>
	<path fill="none" stroke="#D7D7D7" stroke-width="1" stroke-miterlimit="4" d="M848.182 284.594L848.182 286.594"/>
	<path fill="none" stroke="#D7D7D7" stroke-width="1" stroke-miterlimit="4" d="M855.905 284.594L855.905 286.594"/>
	<path fill="none" stroke="#D7D7D7" stroke-width="1" stroke-miterlimit="4" d="M863.627 284.594L863.627 286.594"/>
	<path fill="none" stroke="#D7D7D7" stroke-width="1" stroke-miterlimit="4" d="M879.072 284.594L879.072 286.594"/>
	<path fill="none" stroke="#D7D7D7" stroke-width="1" stroke-miterlimit="4" d="M886.794 284.594L886.794 286.594"/>
	<path fill="none" stroke="#D7D7D7" stroke-width="1" stroke-miterlimit="4" d="M894.516 284.594L894.516 286.594"/>
	<path fill="none" stroke="#D7D7D7" stroke-width="1" stroke-miterlimit="4" d="M902.239 284.594L902.239 286.594"/>
	<path fill="none" stroke="#D7D7D7" stroke-width="1" stroke-miterlimit="4" d="M917.683 284.594L917.683 286.594"/>
	<path fill="none" stroke="#D7D7D7" stroke-width="1" stroke-miterlimit="4" d="M137.727 284.594L920 284.594"/>
	<path fill="none" stroke="#D7D7D7" stroke-width="1" stroke-miterlimit="4" d="M137.727 69.475L920 69.475"/>
	<text fill="#D7D7D7" transform="matrix(0 -1 1 0 76.0273 176.984)" font-size="16" font-weight="600" font-family="Khmer Mondulkiri" x="-53.367188, -44.398438, -34.34375, -24.8125, -15.84375, -6.859375, 2.515625, 8.53125, 17.5, 25.742188, 34.304688, 47.351562, " y="14.8125, ">
			dT/dp [degK]
	</text>
	<path fill="none" stroke="#D7D7D7" stroke-width="1" stroke-miterlimit="4" d="M137.727 254.431L133.727 254.431"/>
	<text fill="#D7D7D7" transform="translate(128.727 254.431)" font-size="12" font-family="Khmer Mondulkiri" x="-12.480469, -6.328125, " y="0.0234375, ">
			-2
	</text>
	<path fill="none" stroke="#D7D7D7" stroke-width="1" stroke-miterlimit="4" d="M137.727 220.539L133.727 220.539"/>
	<text fill="#D7D7D7" transform="translate(128.727 220.539)" font-size="12" font-family="Khmer Mondulkiri" x="-22.324219, -16.171875, -9.84375, -6.328125, " y="0.0234375, ">
			-1.5
	</text>
	<path fill="none" stroke="#D7D7D7" stroke-width="1" stroke-miterlimit="4" d="M137.727 186.647L133.727 186.647"/>
	<text fill="#D7D7D7" transform="translate(128.727 186.647)" font-size="12" font-family="Khmer Mondulkiri" x="-12.480469, -6.328125, " y="0.0234375, ">
			-1
	</text>
	<path fill="none" stroke="#D7D7D7" stroke-width="1" stroke-miterlimit="4" d="M137.727 152.755L133.727 152.755"/>
	<text fill="#D7D7D7" transform="translate(128.727 152.755)" font-size="12" font-family="Khmer Mondulkiri" x="-22.324219, -16.171875, -9.84375, -6.328125, " y="0.0234375, ">
			-0.5
	</text>
	<path fill="none" stroke="#D7D7D7" stroke-width="1" stroke-miterlimit="4" d="M137.727 118.863L133.727 118.863"/>
	<text fill="#D7D7D7" transform="translate(128.727 118.863)" font-size="12" font-family="Khmer Mondulkiri" x="-6.328125, " y="0.0234375, ">
			0
	</text>
	<path fill="none" stroke="#D7D7D7" stroke-width="1" stroke-miterlimit="4" d="M137.727 84.9707L133.727 84.9707"/>
	<text fill="#D7D7D7" transform="translate(128.727 84.9707)" font-size="12" font-family="Khmer Mondulkiri" x="-16.171875, -9.84375, -6.328125, " y="0.0234375, ">
			0.5
	</text>
	<path fill="none" stroke="#D7D7D7" stroke-width="1" stroke-miterlimit="4" d="M137.727 281.544L135.727 281.544"/>
	<path fill="none" stroke="#D7D7D7" stroke-width="1" stroke-miterlimit="4" d="M137.727 274.766L135.727 274.766"/>
	<path fill="none" stroke="#D7D7D7" stroke-width="1" stroke-miterlimit="4" d="M137.727 267.987L135.727 267.987"/>
	<path fill="none" stroke="#D7D7D7" stroke-width="1" stroke-miterlimit="4" d="M137.727 261.209L135.727 261.209"/>
	<path fill="none" stroke="#D7D7D7" stroke-width="1" stroke-miterlimit="4" d="M137.727 247.652L135.727 247.652"/>
	<path fill="none" stroke="#D7D7D7" stroke-width="1" stroke-miterlimit="4" d="M137.727 240.874L135.727 240.874"/>
	<path fill="none" stroke="#D7D7D7" stroke-width="1" stroke-miterlimit="4" d="M137.727 234.096L135.727 234.096"/>
	<path fill="none" stroke="#D7D7D7" stroke-width="1" stroke-miterlimit="4" d="M137.727 227.317L135.727 227.317"/>
	<path fill="none" stroke="#D7D7D7" stroke-width="1" stroke-miterlimit="4" d="M137.727 213.76L135.727 213.76"/>
	<path fill="none" stroke="#D7D7D7" stroke-width="1" stroke-miterlimit="4" d="M137.727 206.982L135.727 206.982"/>
	<path fill="none" stroke="#D7D7D7" stroke-width="1" stroke-miterlimit="4" d="M137.727 200.204L135.727 200.204"/>
	<path fill="none" stroke="#D7D7D7" stroke-width="1" stroke-miterlimit="4" d="M137.727 193.425L135.727 193.425"/>
	<path fill="none" stroke="#D7D7D7" stroke-width="1" stroke-miterlimit="4" d="M137.727 179.868L135.727 179.868"/>
	<path fill="none" stroke="#D7D7D7" stroke-width="1" stroke-miterlimit="4" d="M137.727 173.09L135.727 173.09"/>
	<path fill="none" stroke="#D7D7D7" stroke-width="1" stroke-miterlimit="4" d="M137.727 166.312L135.727 166.312"/>
	<path fill="none" stroke="#D7D7D7" stroke-width="1" stroke-miterlimit="4" d="M137.727 159.533L135.727 159.533"/>
	<path fill="none" stroke="#D7D7D7" stroke-width="1" stroke-miterlimit="4" d="M137.727 145.976L135.727 145.976"/>
	<path fill="none" stroke="#D7D7D7" stroke-width="1" stroke-miterlimit="4" d="M137.727 139.198L135.727 139.198"/>
	<path fill="none" stroke="#D7D7D7" stroke-width="1" stroke-miterlimit="4" d="M137.727 132.42L135.727 132.42"/>
	<path fill="none" stroke="#D7D7D7" stroke-width="1" stroke-miterlimit="4" d="M137.727 125.641L135.727 125.641"/>
	<path fill="none" stroke="#D7D7D7" stroke-width="1" stroke-miterlimit="4" d="M137.727 112.084L135.727 112.084"/>
	<path fill="none" stroke="#D7D7D7" stroke-width="1" stroke-miterlimit="4" d="M137.727 105.306L135.727 105.306"/>
	<path fill="none" stroke="#D7D7D7" stroke-width="1" stroke-miterlimit="4" d="M137.727 98.5276L135.727 98.5276"/>
	<path fill="none" stroke="#D7D7D7" stroke-width="1" stroke-miterlimit="4" d="M137.727 91.7492L135.727 91.7492"/>
	<path fill="none" stroke="#D7D7D7" stroke-width="1" stroke-miterlimit="4" d="M137.727 78.1924L135.727 78.1924"/>
	<path fill="none" stroke="#D7D7D7" stroke-width="1" stroke-miterlimit="4" d="M137.727 71.414L135.727 71.414"/>
	<path fill="none" stroke="#D7D7D7" stroke-width="1" stroke-miterlimit="4" d="M137.727 284.594L137.727 69.375"/>
	<path fill="none" stroke="#D7D7D7" stroke-width="1" stroke-miterlimit="4" d="M920 284.594L920 69.375"/>
	<text fill="#8B008B" transform="matrix(0 -1 1 0 4 176.984)" font-size="16" font-weight="600" font-family="Khmer Mondulkiri" x="-53.230469, -44.261719, -35.363281, -25.832031, -16.863281, -7.8789062, 1.4960938, 7.5117188, 16.074219, 25.605469, 38.652344, 47.214844, " y="14.8125, ">
			dq/dp [g/Kg]
	</text>
	<path fill="none" stroke="#8B008B" stroke-width="1" stroke-miterlimit="4" d="M72.0273 282.101L68.0273 282.101"/>
	<text fill="#8B008B" transform="translate(63.0273 282.101)" font-size="12" font-family="Khmer Mondulkiri" x="-22.324219, -16.171875, -9.84375, -6.328125, " y="0.0234375, ">
			-0.3
	</text>
	<path fill="none" stroke="#8B008B" stroke-width="1" stroke-miterlimit="4" d="M72.0273 217.453L68.0273 217.453"/>
	<text fill="#8B008B" transform="translate(63.0273 217.453)" font-size="12" font-family="Khmer Mondulkiri" x="-22.324219, -16.171875, -9.84375, -6.328125, " y="0.0234375, ">
			-0.2
	</text>
	<path fill="none" stroke="#8B008B" stroke-width="1" stroke-miterlimit="4" d="M72.0273 152.806L68.0273 152.806"/>
	<text fill="#8B008B" transform="translate(63.0273 152.806)" font-size="12" font-family="Khmer Mondulkiri" x="-22.324219, -16.171875, -9.84375, -6.328125, " y="0.0234375, ">
			-0.1
	</text>
	<path fill="none" stroke="#8B008B" stroke-width="1" stroke-miterlimit="4" d="M72.0273 88.1582L68.0273 88.1582"/>
	<text fill="#8B008B" transform="translate(63.0273 88.1582)" font-size="12" font-family="Khmer Mondulkiri" x="-6.328125, " y="0.0234375, ">
			0
	</text>
	<path fill="none" stroke="#8B008B" stroke-width="1" stroke-miterlimit="4" d="M72.0273 269.171L70.0273 269.171"/>
	<path fill="none" stroke="#8B008B" stroke-width="1" stroke-miterlimit="4" d="M72.0273 256.242L70.0273 256.242"/>
	<path fill="none" stroke="#8B008B" stroke-width="1" stroke-miterlimit="4" d="M72.0273 243.312L70.0273 243.312"/>
	<path fill="none" stroke="#8B008B" stroke-width="1" stroke-miterlimit="4" d="M72.0273 230.383L70.0273 230.383"/>
	<path fill="none" stroke="#8B008B" stroke-width="1" stroke-miterlimit="4" d="M72.0273 204.524L70.0273 204.524"/>
	<path fill="none" stroke="#8B008B" stroke-width="1" stroke-miterlimit="4" d="M72.0273 191.594L70.0273 191.594"/>
	<path fill="none" stroke="#8B008B" stroke-width="1" stroke-miterlimit="4" d="M72.0273 178.665L70.0273 178.665"/>
	<path fill="none" stroke="#8B008B" stroke-width="1" stroke-miterlimit="4" d="M72.0273 165.735L70.0273 165.735"/>
	<path fill="none" stroke="#8B008B" stroke-width="1" stroke-miterlimit="4" d="M72.0273 139.876L70.0273 139.876"/>
	<path fill="none" stroke="#8B008B" stroke-width="1" stroke-miterlimit="4" d="M72.0273 126.947L70.0273 126.947"/>
	<path fill="none" stroke="#8B008B" stroke-width="1" stroke-miterlimit="4" d="M72.0273 114.017L70.0273 114.017"/>
	<path fill="none" stroke="#8B008B" stroke-width="1" stroke-miterlimit="4" d="M72.0273 101.088L70.0273 101.088"/>
	<path fill="none" stroke="#8B008B" stroke-width="1" stroke-miterlimit="4" d="M72.0273 75.2288L70.0273 75.2288"/>
	<path fill="none" stroke="#8B008B" stroke-width="1" stroke-miterlimit="4" d="M72.0273 284.594L72.0273 69.375"/>
	<text fill="#D7D7D7" transform="translate(528.863 39.375)" font-size="16" font-weight="600" font-family="Khmer Mondulkiri" x="-177.42969, -161.98438, -153.14844, -143.86719, -134.89844, -126.86719, -118.09375, -113.64844, -104.27344, -95.242188, -86.203125, -76.828125, -69.765625, -60.539062, -51.257812, -43.015625, -33.640625, -24.601562, -15.570312, -6.53125, 2, 20.75, 31.257812, 39.289062, 44.796875, 51.4375, 60.195312, 69.226562, 73.914062, 82.945312, 91.976562, 101.35156, 111.85938, 120.69531, 129.97656, 136.61719, 145.64844, 154.67969, 159.36719, 168.39844, " y="-14.5625, ">
			Monday, 02 June 2025 Lat:90.00 Lon:00.00
	</text>
	<rect fill="#00008B" transform="translate(446.62 64.375)" x="-34.674805" y="-30.703125" width="69.349609" height="35.703125"/>
	<text fill="white" transform="translate(446.62 64.375)" font-size="14" font-weight="600" font-family="Khmer Mondulkiri" x="-29.674805, -19.461914, -8.3740234, 0.8203125, 11.675781, 18.887695, 24.855469, " y="-12.742188, ">
			COLDest
	</text>
	<rect fill="red" transform="translate(909.961 64.375)" x="-29.438477" y="-30.703125" width="58.876953" height="35.703125"/>
	<text fill="white" transform="translate(909.961 64.375)" font-size="14" font-weight="600" font-family="Khmer Mondulkiri" x="-24.438477, -13.446289, -2.3583984, 6.4394531, 13.651367, 19.619141, " y="-12.742188, ">
			HOTest
	</text>
</svg>
