<?xml version="1.0" encoding="utf-8" ?>
<svg xmlns="http://www.w3.org/2000/svg" xmlns:xlink="http://www.w3.org/1999/xlink" width="1000" height="400">
	<rect fill="#181818" width="1000" height="400"/>
	<clipPath id="cl_3">
		<rect x="144.05469" y="69.375" width="825.94531" height="265.21875"/>
	</clipPath>
	<g clip-path="url(#cl_3)">
		<rect fill="#1F1F1F" x="144.05469" y="69.375" width="825.94531" height="265.21875"/>
	</g>
	<path fill="none" stroke="#404040" stroke-width="1" stroke-miterlimit="4" d="M144.055 334.594L144.055 69.375M184.822 334.594L184.822 69.375M225.589 334.594L225.589 69.375M266.357 334.594L266.357 69.375M307.124 334.594L307.124 69.375M347.891 334.594L347.891 69.375M388.658 334.594L388.658 69.375M429.426 334.594L429.426 69.375M470.193 334.594L470.193 69.375M510.96 334.594L510.96 69.375M551.728 334.594L551.728 69.375M592.495 334.594L592.495 69.375M633.262 334.594L633.262 69.375M674.029 334.594L674.029 69.375M714.797 334.594L714.797 69.375M755.564 334.594L755.564 69.375M796.331 334.594L796.331 69.375M837.099 334.594L837.099 69.375M877.866 334.594L877.866 69.375M918.633 334.594L918.633 69.375M959.401 334.594L959.401 69.375"/>
	<path fill="none" stroke="#404040" stroke-width="1" stroke-miterlimit="4" d="M144.055 291.261L970 291.261M144.055 234.362L970 234.362M144.055 177.463L970 177.463M144.055 120.564L970 120.564"/>
	<clipPath id="cl_4">
		<rect x="144.05469" y="69.375" width="825.94531" height="265.21875"/>
	</clipPath>
	<g clip-path="url(#cl_4)">
		<path fill="none" stroke="#D7D7D7" stroke-width="1" stroke-miterlimit="4" d="M152.208 317.297L160.362 263.367L168.515 271.188L184.822 251.728L201.129 247.738L225.589 273.3L245.973 236.579L266.357 186.594L286.74 252.305L307.124 281.687L327.508 282.406L347.891 276.897L388.658 260.361L429.426 273.281L470.193 276.18L510.96 257.089L551.728 236.383L592.495 232.415L633.262 230.918L674.029 240.065L714.797 238.831L755.564 285.665L775.948 285.991L796.331 268.884L816.715 265.76L837.099 140.612L857.482 87.3296L877.866 145.768L898.25 125.183L918.633 175.021L939.017 86.6719L959.401 234.362"/>
	</g>
	<clipPath id="cl_5">
		<rect x="144.05469" y="69.375" width="825.94531" height="265.21875"/>
	</clipPath>
	<g clip-path="url(#cl_5)">
		<path fill="none" stroke="fuchsia" stroke-width="1" stroke-miterlimit="4" d="M152.208 210.593L160.362 210.738L168.515 210.134L184.822 212.602L201.129 202.861L225.589 246.047L245.973 86.6719L266.357 134.7L286.74 317.297L307.124 225.9L327.508 220.911L347.891 226.408L388.658 219.089L429.426 217.374L470.193 214.524L510.96 211.602L551.728 210.453L592.495 210.641L633.262 211.069L674.029 211.503L714.797 211.096L755.564 210.555L775.948 210.464L796.331 210.376L816.715 210.49L837.099 210.401L857.482 210.361L877.866 210.518L898.25 210.566L918.633 210.752L939.017 210.884L959.401 210.565"/>
	</g>
	<clipPath id="cl_6">
		<rect x="144.05469" y="69.375" width="825.94531" height="265.21875"/>
	</clipPath>
	<g clip-path="url(#cl_6)">
		<path fill="none" stroke="#00008B" stroke-width="3" stroke-miterlimit="4" d="M816.715 334.594L816.715 69.375"/>
	</g>
	<clipPath id="cl_7">
		<rect x="144.05469" y="69.375" width="825.94531" height="265.21875"/>
	</clipPath>
	<g clip-path="url(#cl_7)">
		<path fill="none" stroke="red" stroke-width="3" stroke-miterlimit="4" d="M959.401 334.594L959.401 69.375"/>
	</g>
	<text fill="#D7D7D7" transform="translate(557.027 396)" font-size="16" font-weight="600" font-family="Khmer Mondulkiri" x="-79.746094, -70.191406, -63.878906, -55.636719, -48.816406, -41.996094, -32.769531, -26.457031, -18.214844, -8.8398438, 1.6679688, 9.9101562, 18.480469, 26.722656, 31.902344, 41.277344, 47.292969, 56.144531, 65.699219, 73.730469, " y="-14.5625, ">
			Pressure Level [hPa]
	</text>
	<path fill="none" stroke="#D7D7D7" stroke-width="1" stroke-miterlimit="4" d="M144.055 334.594L144.055 338.594"/>
	<text fill="#D7D7D7" transform="translate(144.055 340.594)" font-size="12" font-family="Khmer Mondulkiri" x="-3.1640625, " y="11.039062, ">
			0
	</text>
	<path fill="none" stroke="#D7D7D7" stroke-width="1" stroke-miterlimit="4" d="M184.822 334.594L184.822 338.594"/>
	<text fill="#D7D7D7" transform="translate(184.822 340.594)" font-size="12" font-family="Khmer Mondulkiri" x="-6.328125, 0, " y="11.039062, ">
			50
	</text>
	<path fill="none" stroke="#D7D7D7" stroke-width="1" stroke-miterlimit="4" d="M225.589 334.594L225.589 338.594"/>
	<text fill="#D7D7D7" transform="translate(225.589 340.594)" font-size="12" font-family="Khmer Mondulkiri" x="-9.4921875, -3.1640625, 3.1640625, " y="11.039062, ">
			100
	</text>
	<path fill="none" stroke="#D7D7D7" stroke-width="1" stroke-miterlimit="4" d="M266.357 334.594L266.357 338.594"/>
	<text fill="#D7D7D7" transform="translate(266.357 340.594)" font-size="12" font-family="Khmer Mondulkiri" x="-9.4921875, -3.1640625, 3.1640625, " y="11.039062, ">
			150
	</text>
	<path fill="none" stroke="#D7D7D7" stroke-width="1" stroke-miterlimit="4" d="M307.124 334.594L307.124 338.594"/>
	<text fill="#D7D7D7" transform="translate(307.124 340.594)" font-size="12" font-family="Khmer Mondulkiri" x="-9.4921875, -3.1640625, 3.1640625, " y="11.039062, ">
			200
	</text>
	<path fill="none" stroke="#D7D7D7" stroke-width="1" stroke-miterlimit="4" d="M347.891 334.594L347.891 338.594"/>
	<text fill="#D7D7D7" transform="translate(347.891 340.594)" font-size="12" font-family="Khmer Mondulkiri" x="-9.4921875, -3.1640625, 3.1640625, " y="11.039062, ">
			250
	</text>
	<path fill="none" stroke="#D7D7D7" stroke-width="1" stroke-miterlimit="4" d="M388.658 334.594L388.658 338.594"/>
	<text fill="#D7D7D7" transform="translate(388.658 340.594)" font-size="12" font-family="Khmer Mondulkiri" x="-9.4921875, -3.1640625, 3.1640625, " y="11.039062, ">
			300
	</text>
	<path fill="none" stroke="#D7D7D7" stroke-width="1" stroke-miterlimit="4" d="M429.426 334.594L429.426 338.594"/>
	<text fill="#D7D7D7" transform="translate(429.426 340.594)" font-size="12" font-family="Khmer Mondulkiri" x="-9.4921875, -3.1640625, 3.1640625, " y="11.039062, ">
			350
	</text>
	<path fill="none" stroke="#D7D7D7" stroke-width="1" stroke-miterlimit="4" d="M470.193 334.594L470.193 338.594"/>
	<text fill="#D7D7D7" transform="translate(470.193 340.594)" font-size="12" font-family="Khmer Mondulkiri" x="-9.4921875, -3.1640625, 3.1640625, " y="11.039062, ">
			400
	</text>
	<path fill="none" stroke="#D7D7D7" stroke-width="1" stroke-miterlimit="4" d="M510.96 334.594L510.96 338.594"/>
	<text fill="#D7D7D7" transform="translate(510.96 340.594)" font-size="12" font-family="Khmer Mondulkiri" x="-9.4921875, -3.1640625, 3.1640625, " y="11.039062, ">
			450
	</text>
	<path fill="none" stroke="#D7D7D7" stroke-width="1" stroke-miterlimit="4" d="M551.728 334.594L551.728 338.594"/>
	<text fill="#D7D7D7" transform="translate(551.728 340.594)" font-size="12" font-family="Khmer Mondulkiri" x="-9.4921875, -3.1640625, 3.1640625, " y="11.039062, ">
			500
	</text>
	<path fill="none" stroke="#D7D7D7" stroke-width="1" stroke-miterlimit="4" d="M592.495 334.594L592.495 338.594"/>
	<text fill="#D7D7D7" transform="translate(592.495 340.594)" font-size="12" font-family="Khmer Mondulkiri" x="-9.4921875, -3.1640625, 3.1640625, " y="11.039062, ">
			550
	</text>
	<path fill="none" stroke="#D7D7D7" stroke-width="1" stroke-miterlimit="4" d="M633.262 334.594L633.262 338.594"/>
	<text fill="#D7D7D7" transform="translate(633.262 340.594)" font-size="12" font-family="Khmer Mondulkiri" x="-9.4921875, -3.1640625, 3.1640625, " y="11.039062, ">
			600
	</text>
	<path fill="none" stroke="#D7D7D7" stroke-width="1" stroke-miterlimit="4" d="M674.029 334.594L674.029 338.594"/>
	<text fill="#D7D7D7" transform="translate(674.029 340.594)" font-size="12" font-family="Khmer Mondulkiri" x="-9.4921875, -3.1640625, 3.1640625, " y="11.039062, ">
			650
	</text>
	<path fill="none" stroke="#D7D7D7" stroke-width="1" stroke-miterlimit="4" d="M714.797 334.594L714.797 338.594"/>
	<text fill="#D7D7D7" transform="translate(714.797 340.594)" font-size="12" font-family="Khmer Mondulkiri" x="-9.4921875, -3.1640625, 3.1640625, " y="11.039062, ">
			700
	</text>
	<path fill="none" stroke="#D7D7D7" stroke-width="1" stroke-miterlimit="4" d="M755.564 334.594L755.564 338.594"/>
	<text fill="#D7D7D7" transform="translate(755.564 340.594)" font-size="12" font-family="Khmer Mondulkiri" x="-9.4921875, -3.1640625, 3.1640625, " y="11.039062, ">
			750
	</text>
	<path fill="none" stroke="#D7D7D7" stroke-width="1" stroke-miterlimit="4" d="M796.331 334.594L796.331 338.594"/>
	<text fill="#D7D7D7" transform="translate(796.331 340.594)" font-size="12" font-family="Khmer Mondulkiri" x="-9.4921875, -3.1640625, 3.1640625, " y="11.039062, ">
			800
	</text>
	<path fill="none" stroke="#D7D7D7" stroke-width="1" stroke-miterlimit="4" d="M837.099 334.594L837.099 338.594"/>
	<text fill="#D7D7D7" transform="translate(837.099 340.594)" font-size="12" font-family="Khmer Mondulkiri" x="-9.4921875, -3.1640625, 3.1640625, " y="11.039062, ">
			850
	</text>
	<path fill="none" stroke="#D7D7D7" stroke-width="1" stroke-miterlimit="4" d="M877.866 334.594L877.866 338.594"/>
	<text fill="#D7D7D7" transform="translate(877.866 340.594)" font-size="12" font-family="Khmer Mondulkiri" x="-9.4921875, -3.1640625, 3.1640625, " y="11.039062, ">
			900
	</text>
	<path fill="none" stroke="#D7D7D7" stroke-width="1" stroke-miterlimit="4" d="M918.633 334.594L918.633 338.594"/>
	<text fill="#D7D7D7" transform="translate(918.633 340.594)" font-size="12" font-family="Khmer Mondulkiri" x="-9.4921875, -3.1640625, 3.1640625, " y="11.039062, ">
			950
	</text>
	<path fill="none" stroke="#D7D7D7" stroke-width="1" stroke-miterlimit="4" d="M959.401 334.594L959.401 338.594"/>
	<text fill="#D7D7D7" transform="translate(959.401 340.594)" font-size="12" font-family="Khmer Mondulkiri" x="-14.326172, -7.9980469, -4.6582031, 1.6699219, 7.9980469, " y="11.039062, ">
			1,000
	</text>
	<path fill="none" stroke="#D7D7D7" stroke-width="1" stroke-miterlimit="4" d="M152.208 334.594L152.208 336.594"/>
	<path fill="none" stroke="#D7D7D7" stroke-width="1" stroke-miterlimit="4" d="M160.362 334.594L160.362 336.594"/>
	<path fill="none" stroke="#D7D7D7" stroke-width="1" stroke-miterlimit="4" d="M168.515 334.594L168.515 336.594"/>
	<path fill="none" stroke="#D7D7D7" stroke-width="1" stroke-miterlimit="4" d="M176.669 334.594L176.669 336.594"/>
	<path fill="none" stroke="#D7D7D7" stroke-width="1" stroke-miterlimit="4" d="M192.975 334.594L192.975 336.594"/>
	<path fill="none" stroke="#D7D7D7" stroke-width="1" stroke-miterlimit="4" d="M201.129 334.594L201.129 336.594"/>
	<path fill="none" stroke="#D7D7D7" stroke-width="1" stroke-miterlimit="4" d="M209.282 334.594L209.282 336.594"/>
	<path fill="none" stroke="#D7D7D7" stroke-width="1" stroke-miterlimit="4" d="M217.436 334.594L217.436 336.594"/>
	<path fill="none" stroke="#D7D7D7" stroke-width="1" stroke-miterlimit="4" d="M233.743 334.594L233.743 336.594"/>
	<path fill="none" stroke="#D7D7D7" stroke-width="1" stroke-miterlimit="4" d="M241.896 334.594L241.896 336.594"/>
	<path fill="none" stroke="#D7D7D7" stroke-width="1" stroke-miterlimit="4" d="M250.05 334.594L250.05 336.594"/>
	<path fill="none" stroke="#D7D7D7" stroke-width="1" stroke-miterlimit="4" d="M258.203 334.594L258.203 336.594"/>
	<path fill="none" stroke="#D7D7D7" stroke-width="1" stroke-miterlimit="4" d="M274.51 334.594L274.51 336.594"/>
	<path fill="none" stroke="#D7D7D7" stroke-width="1" stroke-miterlimit="4" d="M282.663 334.594L282.663 336.594"/>
	<path fill="none" stroke="#D7D7D7" stroke-width="1" stroke-miterlimit="4" d="M290.817 334.594L290.817 336.594"/>
	<path fill="none" stroke="#D7D7D7" stroke-width="1" stroke-miterlimit="4" d="M298.97 334.594L298.97 336.594"/>
	<path fill="none" stroke="#D7D7D7" stroke-width="1" stroke-miterlimit="4" d="M315.277 334.594L315.277 336.594"/>
	<path fill="none" stroke="#D7D7D7" stroke-width="1" stroke-miterlimit="4" d="M323.431 334.594L323.431 336.594"/>
	<path fill="none" stroke="#D7D7D7" stroke-width="1" stroke-miterlimit="4" d="M331.584 334.594L331.584 336.594"/>
	<path fill="none" stroke="#D7D7D7" stroke-width="1" stroke-miterlimit="4" d="M339.738 334.594L339.738 336.594"/>
	<path fill="none" stroke="#D7D7D7" stroke-width="1" stroke-miterlimit="4" d="M356.045 334.594L356.045 336.594"/>
	<path fill="none" stroke="#D7D7D7" stroke-width="1" stroke-miterlimit="4" d="M364.198 334.594L364.198 336.594"/>
	<path fill="none" stroke="#D7D7D7" stroke-width="1" stroke-miterlimit="4" d="M372.352 334.594L372.352 336.594"/>
	<path fill="none" stroke="#D7D7D7" stroke-width="1" stroke-miterlimit="4" d="M380.505 334.594L380.505 336.594"/>
	<path fill="none" stroke="#D7D7D7" stroke-width="1" stroke-miterlimit="4" d="M396.812 334.594L396.812 336.594"/>
	<path fill="none" stroke="#D7D7D7" stroke-width="1" stroke-miterlimit="4" d="M404.965 334.594L404.965 336.594"/>
	<path fill="none" stroke="#D7D7D7" stroke-width="1" stroke-miterlimit="4" d="M413.119 334.594L413.119 336.594"/>
	<path fill="none" stroke="#D7D7D7" stroke-width="1" stroke-miterlimit="4" d="M421.272 334.594L421.272 336.594"/>
	<path fill="none" stroke="#D7D7D7" stroke-width="1" stroke-miterlimit="4" d="M437.579 334.594L437.579 336.594"/>
	<path fill="none" stroke="#D7D7D7" stroke-width="1" stroke-miterlimit="4" d="M445.733 334.594L445.733 336.594"/>
	<path fill="none" stroke="#D7D7D7" stroke-width="1" stroke-miterlimit="4" d="M453.886 334.594L453.886 336.594"/>
	<path fill="none" stroke="#D7D7D7" stroke-width="1" stroke-miterlimit="4" d="M462.04 334.594L462.04 336.594"/>
	<path fill="none" stroke="#D7D7D7" stroke-width="1" stroke-miterlimit="4" d="M478.346 334.594L478.346 336.594"/>
	<path fill="none" stroke="#D7D7D7" stroke-width="1" stroke-miterlimit="4" d="M486.5 334.594L486.5 336.594"/>
	<path fill="none" stroke="#D7D7D7" stroke-width="1" stroke-miterlimit="4" d="M494.653 334.594L494.653 336.594"/>
	<path fill="none" stroke="#D7D7D7" stroke-width="1" stroke-miterlimit="4" d="M502.807 334.594L502.807 336.594"/>
	<path fill="none" stroke="#D7D7D7" stroke-width="1" stroke-miterlimit="4" d="M519.114 334.594L519.114 336.594"/>
	<path fill="none" stroke="#D7D7D7" stroke-width="1" stroke-miterlimit="4" d="M527.267 334.594L527.267 336.594"/>
	<path fill="none" stroke="#D7D7D7" stroke-width="1" stroke-miterlimit="4" d="M535.421 334.594L535.421 336.594"/>
	<path fill="none" stroke="#D7D7D7" stroke-width="1" stroke-miterlimit="4" d="M543.574 334.594L543.574 336.594"/>
	<path fill="none" stroke="#D7D7D7" stroke-width="1" stroke-miterlimit="4" d="M559.881 334.594L559.881 336.594"/>
	<path fill="none" stroke="#D7D7D7" stroke-width="1" stroke-miterlimit="4" d="M568.035 334.594L568.035 336.594"/>
	<path fill="none" stroke="#D7D7D7" stroke-width="1" stroke-miterlimit="4" d="M576.188 334.594L576.188 336.594"/>
	<path fill="none" stroke="#D7D7D7" stroke-width="1" stroke-miterlimit="4" d="M584.341 334.594L584.341 336.594"/>
	<path fill="none" stroke="#D7D7D7" stroke-width="1" stroke-miterlimit="4" d="M600.648 334.594L600.648 336.594"/>
	<path fill="none" stroke="#D7D7D7" stroke-width="1" stroke-miterlimit="4" d="M608.802 334.594L608.802 336.594"/>
	<path fill="none" stroke="#D7D7D7" stroke-width="1" stroke-miterlimit="4" d="M616.955 334.594L616.955 336.594"/>
	<path fill="none" stroke="#D7D7D7" stroke-width="1" stroke-miterlimit="4" d="M625.109 334.594L625.109 336.594"/>
	<path fill="none" stroke="#D7D7D7" stroke-width="1" stroke-miterlimit="4" d="M641.416 334.594L641.416 336.594"/>
	<path fill="none" stroke="#D7D7D7" stroke-width="1" stroke-miterlimit="4" d="M649.569 334.594L649.569 336.594"/>
	<path fill="none" stroke="#D7D7D7" stroke-width="1" stroke-miterlimit="4" d="M657.723 334.594L657.723 336.594"/>
	<path fill="none" stroke="#D7D7D7" stroke-width="1" stroke-miterlimit="4" d="M665.876 334.594L665.876 336.594"/>
	<path fill="none" stroke="#D7D7D7" stroke-width="1" stroke-miterlimit="4" d="M682.183 334.594L682.183 336.594"/>
	<path fill="none" stroke="#D7D7D7" stroke-width="1" stroke-miterlimit="4" d="M690.336 334.594L690.336 336.594"/>
	<path fill="none" stroke="#D7D7D7" stroke-width="1" stroke-miterlimit="4" d="M698.49 334.594L698.49 336.594"/>
	<path fill="none" stroke="#D7D7D7" stroke-width="1" stroke-miterlimit="4" d="M706.643 334.594L706.643 336.594"/>
	<path fill="none" stroke="#D7D7D7" stroke-width="1" stroke-miterlimit="4" d="M722.95 334.594L722.95 336.594"/>
	<path fill="none" stroke="#D7D7D7" stroke-width="1" stroke-miterlimit="4" d="M731.104 334.594L731.104 336.594"/>
	<path fill="none" stroke="#D7D7D7" stroke-width="1" stroke-miterlimit="4" d="M739.257 334.594L739.257 336.594"/>
	<path fill="none" stroke="#D7D7D7" stroke-width="1" stroke-miterlimit="4" d="M747.411 334.594L747.411 336.594"/>
	<path fill="none" stroke="#D7D7D7" stroke-width="1" stroke-miterlimit="4" d="M763.718 334.594L763.718 336.594"/>
	<path fill="none" stroke="#D7D7D7" stroke-width="1" stroke-miterlimit="4" d="M771.871 334.594L771.871 336.594"/>
	<path fill="none" stroke="#D7D7D7" stroke-width="1" stroke-miterlimit="4" d="M780.024 334.594L780.024 336.594"/>
	<path fill="none" stroke="#D7D7D7" stroke-width="1" stroke-miterlimit="4" d="M788.178 334.594L788.178 336.594"/>
	<path fill="none" stroke="#D7D7D7" stroke-width="1" stroke-miterlimit="4" d="M804.485 334.594L804.485 336.594"/>
	<path fill="none" stroke="#D7D7D7" stroke-width="1" stroke-miterlimit="4" d="M812.638 334.594L812.638 336.594"/>
	<path fill="none" stroke="#D7D7D7" stroke-width="1" stroke-miterlimit="4" d="M820.792 334.594L820.792 336.594"/>
	<path fill="none" stroke="#D7D7D7" stroke-width="1" stroke-miterlimit="4" d="M828.945 334.594L828.945 336.594"/>
	<path fill="none" stroke="#D7D7D7" stroke-width="1" stroke-miterlimit="4" d="M845.252 334.594L845.252 336.594"/>
	<path fill="none" stroke="#D7D7D7" stroke-width="1" stroke-miterlimit="4" d="M853.406 334.594L853.406 336.594"/>
	<path fill="none" stroke="#D7D7D7" stroke-width="1" stroke-miterlimit="4" d="M861.559 334.594L861.559 336.594"/>
	<path fill="none" stroke="#D7D7D7" stroke-width="1" stroke-miterlimit="4" d="M869.712 334.594L869.712 336.594"/>
	<path fill="none" stroke="#D7D7D7" stroke-width="1" stroke-miterlimit="4" d="M886.019 334.594L886.019 336.594"/>
	<path fill="none" stroke="#D7D7D7" stroke-width="1" stroke-miterlimit="4" d="M894.173 334.594L894.173 336.594"/>
	<path fill="none" stroke="#D7D7D7" stroke-width="1" stroke-miterlimit="4" d="M902.326 334.594L902.326 336.594"/>
	<path fill="none" stroke="#D7D7D7" stroke-width="1" stroke-miterlimit="4" d="M910.48 334.594L910.48 336.594"/>
	<path fill="none" stroke="#D7D7D7" stroke-width="1" stroke-miterlimit="4" d="M926.787 334.594L926.787 336.594"/>
	<path fill="none" stroke="#D7D7D7" stroke-width="1" stroke-miterlimit="4" d="M934.94 334.594L934.94 336.594"/>
	<path fill="none" stroke="#D7D7D7" stroke-width="1" stroke-miterlimit="4" d="M943.094 334.594L943.094 336.594"/>
	<path fill="none" stroke="#D7D7D7" stroke-width="1" stroke-miterlimit="4" d="M951.247 334.594L951.247 336.594"/>
	<path fill="none" stroke="#D7D7D7" stroke-width="1" stroke-miterlimit="4" d="M967.554 334.594L967.554 336.594"/>
	<path fill="none" stroke="#D7D7D7" stroke-width="1" stroke-miterlimit="4" d="M144.055 334.594L970 334.594"/>
	<path fill="none" stroke="#D7D7D7" stroke-width="1" stroke-miterlimit="4" d="M144.055 69.475L970 69.475"/>
	<text fill="#D7D7D7" transform="matrix(0 -1 1 0 82.3555 201.984)" font-size="16" font-weight="600" font-family="Khmer Mondulkiri" x="-53.367188, -44.398438, -34.34375, -24.8125, -15.84375, -6.859375, 2.515625, 8.53125, 17.5, 25.742188, 34.304688, 47.351562, " y="14.8125, ">
			dT/dp [degK]
	</text>
	<path fill="none" stroke="#D7D7D7" stroke-width="1" stroke-miterlimit="4" d="M144.055 291.261L140.055 291.261"/>
	<text fill="#D7D7D7" transform="translate(135.055 291.261)" font-size="12" font-family="Khmer Mondulkiri" x="-22.324219, -16.171875, -9.84375, -6.328125, " y="0.0234375, ">
			-0.2
	</text>
	<path fill="none" stroke="#D7D7D7" stroke-width="1" stroke-miterlimit="4" d="M144.055 234.362L140.055 234.362"/>
	<text fill="#D7D7D7" transform="translate(135.055 234.362)" font-size="12" font-family="Khmer Mondulkiri" x="-6.328125, " y="0.0234375, ">
			0
	</text>
	<path fill="none" stroke="#D7D7D7" stroke-width="1" stroke-miterlimit="4" d="M144.055 177.463L140.055 177.463"/>
	<text fill="#D7D7D7" transform="translate(135.055 177.463)" font-size="12" font-family="Khmer Mondulkiri" x="-16.171875, -9.84375, -6.328125, " y="0.0234375, ">
			0.2
	</text>
	<path fill="none" stroke="#D7D7D7" stroke-width="1" stroke-miterlimit="4" d="M144.055 120.564L140.055 120.564"/>
	<text fill="#D7D7D7" transform="translate(135.055 120.564)" font-size="12" font-family="Khmer Mondulkiri" x="-16.171875, -9.84375, -6.328125, " y="0.0234375, ">
			0.4
	</text>
	<path fill="none" stroke="#D7D7D7" stroke-width="1" stroke-miterlimit="4" d="M144.055 325.4L142.055 325.4"/>
	<path fill="none" stroke="#D7D7D7" stroke-width="1" stroke-miterlimit="4" d="M144.055 314.02L142.055 314.02"/>
	<path fill="none" stroke="#D7D7D7" stroke-width="1" stroke-miterlimit="4" d="M144.055 302.641L142.055 302.641"/>
	<path fill="none" stroke="#D7D7D7" stroke-width="1" stroke-miterlimit="4" d="M144.055 279.881L142.055 279.881"/>
	<path fill="none" stroke="#D7D7D7" stroke-width="1" stroke-miterlimit="4" d="M144.055 268.501L142.055 268.501"/>
	<path fill="none" stroke="#D7D7D7" stroke-width="1" stroke-miterlimit="4" d="M144.055 257.121L142.055 257.121"/>
	<path fill="none" stroke="#D7D7D7" stroke-width="1" stroke-miterlimit="4" d="M144.055 245.742L142.055 245.742"/>
	<path fill="none" stroke="#D7D7D7" stroke-width="1" stroke-miterlimit="4" d="M144.055 222.982L142.055 222.982"/>
	<path fill="none" stroke="#D7D7D7" stroke-width="1" stroke-miterlimit="4" d="M144.055 211.602L142.055 211.602"/>
	<path fill="none" stroke="#D7D7D7" stroke-width="1" stroke-miterlimit="4" d="M144.055 200.222L142.055 200.222"/>
	<path fill="none" stroke="#D7D7D7" stroke-width="1" stroke-miterlimit="4" d="M144.055 188.843L142.055 188.843"/>
	<path fill="none" stroke="#D7D7D7" stroke-width="1" stroke-miterlimit="4" d="M144.055 166.083L142.055 166.083"/>
	<path fill="none" stroke="#D7D7D7" stroke-width="1" stroke-miterlimit="4" d="M144.055 154.703L142.055 154.703"/>
	<path fill="none" stroke="#D7D7D7" stroke-width="1" stroke-miterlimit="4" d="M144.055 143.323L142.055 143.323"/>
	<path fill="none" stroke="#D7D7D7" stroke-width="1" stroke-miterlimit="4" d="M144.055 131.944L142.055 131.944"/>
	<path fill="none" stroke="#D7D7D7" stroke-width="1" stroke-miterlimit="4" d="M144.055 109.184L142.055 109.184"/>
	<path fill="none" stroke="#D7D7D7" stroke-width="1" stroke-miterlimit="4" d="M144.055 97.8041L142.055 97.8041"/>
	<path fill="none" stroke="#D7D7D7" stroke-width="1" stroke-miterlimit="4" d="M144.055 86.4243L142.055 86.4243"/>
	<path fill="none" stroke="#D7D7D7" stroke-width="1" stroke-miterlimit="4" d="M144.055 75.0445L142.055 75.0445"/>
	<path fill="none" stroke="#D7D7D7" stroke-width="1" stroke-miterlimit="4" d="M144.055 334.594L144.055 69.375"/>
	<path fill="none" stroke="#D7D7D7" stroke-width="1" stroke-miterlimit="4" d="M970 334.594L970 69.375"/>
	<text fill="fuchsia" transform="matrix(0 -1 1 0 4 201.984)" font-size="16" font-weight="600" font-family="Khmer Mondulkiri" x="-53.230469, -44.261719, -35.363281, -25.832031, -16.863281, -7.8789062, 1.4960938, 7.5117188, 16.074219, 25.605469, 38.652344, 47.214844, " y="14.8125, ">
			dq/dp [g/Kg]
	</text>
	<path fill="none" stroke="fuchsia" stroke-width="1" stroke-miterlimit="4" d="M78.3555 298.568L74.3555 298.568"/>
	<text fill="fuchsia" transform="translate(69.3555 298.568)" font-size="12" font-family="Khmer Mondulkiri" x="-34.980469, -28.828125, -22.5, -18.984375, -12.65625, -6.328125, " y="0.0234375, ">
			-0.004
	</text>
	<path fill="none" stroke="fuchsia" stroke-width="1" stroke-miterlimit="4" d="M78.3555 254.567L74.3555 254.567"/>
	<text fill="fuchsia" transform="translate(69.3555 254.567)" font-size="12" font-family="Khmer Mondulkiri" x="-34.980469, -28.828125, -22.5, -18.984375, -12.65625, -6.328125, " y="0.0234375, ">
			-0.002
	</text>
	<path fill="none" stroke="fuchsia" stroke-width="1" stroke-miterlimit="4" d="M78.3555 210.565L74.3555 210.565"/>
	<text fill="fuchsia" transform="translate(69.3555 210.565)" font-size="12" font-family="Khmer Mondulkiri" x="-6.328125, " y="0.0234375, ">
			0
	</text>
	<path fill="none" stroke="fuchsia" stroke-width="1" stroke-miterlimit="4" d="M78.3555 166.564L74.3555 166.564"/>
	<text fill="fuchsia" transform="translate(69.3555 166.564)" font-size="12" font-family="Khmer Mondulkiri" x="-28.828125, -22.5, -18.984375, -12.65625, -6.328125, " y="0.0234375, ">
			0.002
	</text>
	<path fill="none" stroke="fuchsia" stroke-width="1" stroke-miterlimit="4" d="M78.3555 122.563L74.3555 122.563"/>
	<text fill="fuchsia" transform="translate(69.3555 122.563)" font-size="12" font-family="Khmer Mondulkiri" x="-28.828125, -22.5, -18.984375, -12.65625, -6.328125, " y="0.0234375, ">
			0.004
	</text>
	<path fill="none" stroke="fuchsia" stroke-width="1" stroke-miterlimit="4" d="M78.3555 78.5614L74.3555 78.5614"/>
	<text fill="fuchsia" transform="translate(69.3555 78.5614)" font-size="12" font-family="Khmer Mondulkiri" x="-28.828125, -22.5, -18.984375, -12.65625, -6.328125, " y="0.0234375, ">
			0.006
	</text>
	<path fill="none" stroke="fuchsia" stroke-width="1" stroke-miterlimit="4" d="M78.3555 333.769L76.3555 333.769"/>
	<path fill="none" stroke="fuchsia" stroke-width="1" stroke-miterlimit="4" d="M78.3555 324.969L76.3555 324.969"/>
	<path fill="none" stroke="fuchsia" stroke-width="1" stroke-miterlimit="4" d="M78.3555 316.168L76.3555 316.168"/>
	<path fill="none" stroke="fuchsia" stroke-width="1" stroke-miterlimit="4" d="M78.3555 307.368L76.3555 307.368"/>
	<path fill="none" stroke="fuchsia" stroke-width="1" stroke-miterlimit="4" d="M78.3555 289.768L76.3555 289.768"/>
	<path fill="none" stroke="fuchsia" stroke-width="1" stroke-miterlimit="4" d="M78.3555 280.967L76.3555 280.967"/>
	<path fill="none" stroke="fuchsia" stroke-width="1" stroke-miterlimit="4" d="M78.3555 272.167L76.3555 272.167"/>
	<path fill="none" stroke="fuchsia" stroke-width="1" stroke-miterlimit="4" d="M78.3555 263.367L76.3555 263.367"/>
	<path fill="none" stroke="fuchsia" stroke-width="1" stroke-miterlimit="4" d="M78.3555 245.766L76.3555 245.766"/>
	<path fill="none" stroke="fuchsia" stroke-width="1" stroke-miterlimit="4" d="M78.3555 236.966L76.3555 236.966"/>
	<path fill="none" stroke="fuchsia" stroke-width="1" stroke-miterlimit="4" d="M78.3555 228.166L76.3555 228.166"/>
	<path fill="none" stroke="fuchsia" stroke-width="1" stroke-miterlimit="4" d="M78.3555 219.366L76.3555 219.366"/>
	<path fill="none" stroke="fuchsia" stroke-width="1" stroke-miterlimit="4" d="M78.3555 201.765L76.3555 201.765"/>
	<path fill="none" stroke="fuchsia" stroke-width="1" stroke-miterlimit="4" d="M78.3555 192.965L76.3555 192.965"/>
	<path fill="none" stroke="fuchsia" stroke-width="1" stroke-miterlimit="4" d="M78.3555 184.165L76.3555 184.165"/>
	<path fill="none" stroke="fuchsia" stroke-width="1" stroke-miterlimit="4" d="M78.3555 175.364L76.3555 175.364"/>
	<path fill="none" stroke="fuchsia" stroke-width="1" stroke-miterlimit="4" d="M78.3555 157.764L76.3555 157.764"/>
	<path fill="none" stroke="fuchsia" stroke-width="1" stroke-miterlimit="4" d="M78.3555 148.963L76.3555 148.963"/>
	<path fill="none" stroke="fuchsia" stroke-width="1" stroke-miterlimit="4" d="M78.3555 140.163L76.3555 140.163"/>
	<path fill="none" stroke="fuchsia" stroke-width="1" stroke-miterlimit="4" d="M78.3555 131.363L76.3555 131.363"/>
	<path fill="none" stroke="fuchsia" stroke-width="1" stroke-miterlimit="4" d="M78.3555 113.762L76.3555 113.762"/>
	<path fill="none" stroke="fuchsia" stroke-width="1" stroke-miterlimit="4" d="M78.3555 104.962L76.3555 104.962"/>
	<path fill="none" stroke="fuchsia" stroke-width="1" stroke-miterlimit="4" d="M78.3555 96.1619L76.3555 96.1619"/>
	<path fill="none" stroke="fuchsia" stroke-width="1" stroke-miterlimit="4" d="M78.3555 87.3617L76.3555 87.3617"/>
	<path fill="none" stroke="fuchsia" stroke-width="1" stroke-miterlimit="4" d="M78.3555 69.7611L76.3555 69.7611"/>
	<path fill="none" stroke="fuchsia" stroke-width="1" stroke-miterlimit="4" d="M78.3555 334.594L78.3555 69.375"/>
	<text fill="#D7D7D7" transform="translate(557.027 39.375)" font-size="16" font-weight="600" font-family="Khmer Mondulkiri" x="-273.15625, -257.05469, -248.8125, -239.84375, -230.5625, -222.32031, -215.5, -206.53125, -198.5, -189.72656, -185.28125, -175.90625, -166.875, -158.40625, -149.03125, -141.96875, -132.74219, -123.46094, -115.21875, -105.84375, -97.375, -88.617188, -79.875, -71.132812, -52.382812, -41.875, -33.84375, -28.335938, -21.695312, -13.492188, -4.734375, 4.296875, 8.984375, 18.015625, 27.046875, 36.421875, 46.929688, 55.765625, 65.046875, 71.6875, 80.71875, 89.75, 94.4375, 103.46875, 112.5, 131.25, 141.75781, 150, 158.57031, 166.8125, 171.99219, 178.8125, 185.45312, 193.92188, 202.95312, 211.15625, 219.625, 228.65625, 237.6875, 246.71875, 255.57031, 265.125, " y="-14.5625, ">
			Wednesday, 01 June 1966 Lat:-90.00 Lon:00.00 Levels:10-1000hPa
	</text>
	<rect fill="#00008B" transform="translate(816.715 64.375)" x="-34.674805" y="-30.703125" width="69.349609" height="35.703125"/>
	<text fill="white" transform="translate(816.715 64.375)" font-size="14" font-weight="600" font-family="Khmer Mondulkiri" x="-29.674805, -19.461914, -8.3740234, 0.8203125, 11.675781, 18.887695, 24.855469, " y="-12.742188, ">
			COLDest
	</text>
	<rect fill="red" transform="translate(959.401 64.375)" x="-29.438477" y="-30.703125" width="58.876953" height="35.703125"/>
	<text fill="white" transform="translate(959.401 64.375)" font-size="14" font-weight="600" font-family="Khmer Mondulkiri" x="-24.438477, -13.446289, -2.3583984, 6.4394531, 13.651367, 19.619141, " y="-12.742188, ">
			HOTest
	</text>
</svg>
